<?xml version="1.0" encoding="utf-8"?>
<!-- Generator: Adobe Illustrator 16.0.0, SVG Export Plug-In . SVG Version: 6.00 Build 0)  -->
<!DOCTYPE svg PUBLIC "-//W3C//DTD SVG 1.1//EN" "http://www.w3.org/Graphics/SVG/1.1/DTD/svg11.dtd">
<svg version="1.1" xmlns="http://www.w3.org/2000/svg" xmlns:xlink="http://www.w3.org/1999/xlink" x="0px" y="0px" width="580px"
	 height="500px" viewBox="0 0 580 500" enable-background="new 0 0 580 500" xml:space="preserve">
<g id="BACKGROUND">
</g>
<g id="OBJECT">
	<g>
		<path fill="#E8916A" d="M448.086,379.533c-6.301-13.517-9.565-28.248-9.565-43.161v-8.646c0-4.07,1.375-8.021,3.902-11.212
			c3.357-4.238,4.638-9.759,3.49-15.043l-1.96-9.026c-2.222-10.226-1.452-20.875,2.215-30.677l8.234-22.005l-16.479-7.284h-49.46
			h-49.46l-16.479,7.284l8.234,22.005c3.667,9.802,4.437,20.451,2.216,30.677l-1.961,9.026c-1.147,5.284,0.134,10.805,3.491,15.043
			c2.526,3.191,3.901,7.142,3.901,11.212v8.646c0,14.913-3.265,29.645-9.565,43.161l-17.302,37.119h76.925h76.925L448.086,379.533z"
			/>
		<path opacity="0.5" fill="#A34262" d="M439.317,349.028l-50.854-24.463l-50.854,24.463c-1.24,9.927-3.932,19.636-8.009,28.813
			l47.754-25.09c6.955-3.654,15.262-3.654,22.216,0l47.754,25.09C443.248,368.664,440.557,358.955,439.317,349.028z"/>
		<g opacity="0.5">
			<g>
				<path fill="#A34262" d="M425.141,398.532c-6.159,0.636-13.144,1.263-20.555,1.462c-7.41,0.21-15.239-0.002-23.024-0.74
					c-7.784-0.757-15.511-2.039-22.744-3.656c-7.239-1.607-13.977-3.552-19.901-5.349c5.056,3.556,11.434,6.959,18.659,9.583
					c7.217,2.637,15.264,4.488,23.423,5.279c8.161,0.776,16.414,0.491,24-0.724C412.591,403.188,419.5,401.061,425.141,398.532z"/>
			</g>
			<g>
				<path fill="#A34262" d="M430.273,377.402c-3.975,1.199-8.48,2.586-13.306,3.881c-4.822,1.301-9.961,2.511-15.144,3.499
					c-5.184,0.98-10.408,1.737-15.372,2.295c-4.963,0.563-9.665,0.924-13.802,1.265c4.031,0.971,8.81,1.604,13.94,1.691
					c5.128,0.095,10.6-0.358,15.97-1.374c5.368-1.022,10.626-2.607,15.362-4.574C422.664,382.123,426.878,379.782,430.273,377.402z"
					/>
			</g>
			<g>
				<path fill="#A34262" d="M419.819,358.092c-4.676,1.152-9.989,2.384-15.677,3.331c-5.686,0.956-11.739,1.63-17.815,1.892
					c-6.077,0.248-12.167,0.084-17.912-0.393c-5.747-0.468-11.145-1.25-15.9-2.006c4.272,2.203,9.548,4.148,15.395,5.4
					c5.841,1.264,12.238,1.833,18.609,1.571c6.37-0.272,12.698-1.376,18.412-3.124C410.652,363.025,415.746,360.646,419.819,358.092
					z"/>
			</g>
			<g>
				<path fill="#A34262" d="M419.024,275.95c-5.288-0.239-11.301-0.444-17.667-0.842c-6.365-0.391-13.081-0.973-19.771-1.791
					c-6.688-0.828-13.346-1.892-19.616-3.056c-6.271-1.157-12.155-2.416-17.343-3.466c4.593,2.618,10.198,5.116,16.415,7.124
					c6.211,2.015,13.027,3.537,19.93,4.391c6.903,0.846,13.885,1.021,20.399,0.571C407.89,278.44,413.934,277.377,419.024,275.95z"
					/>
			</g>
			<g>
				<path fill="#A34262" d="M426.187,261.521c-6.089,1.776-13.842,4.088-21.753,5.759c-7.902,1.712-15.923,2.775-22.205,3.646
					c6.23,1.145,14.683,1.073,22.836-0.697C413.229,268.508,420.969,265.115,426.187,261.521z"/>
			</g>
		</g>
	</g>
	<g>
		<g>
			<path fill="#F5D896" d="M431.331,228.057c-5.206-2.295-8.446-7.486-8.428-13.176c0.005-1.412-0.098-2.826-0.309-4.23l-1.15-7.666
				l-32.98,17.434l-32.981-17.434l-1.149,7.666c-0.211,1.404-0.313,2.818-0.31,4.23c0.019,5.689-3.221,10.881-8.427,13.176
				l-9.22,4.063l7.727,12.751c7.064,11.655,19.703,18.774,33.333,18.774h11.027h11.027c13.629,0,26.268-7.119,33.332-18.774
				l7.728-12.751L431.331,228.057z"/>
			<path fill="#F5D896" d="M422.587,133.794l-7.329-9.773c-6.325-8.434-16.252-13.398-26.794-13.398s-20.47,4.964-26.794,13.398
				l-7.33,9.773c-5.459,7.28-8.41,16.133-8.41,25.232v20.982c0,8.136,2.36,16.098,6.794,22.919l3.792,5.834
				c6.661,10.249,18.056,16.433,30.28,16.433h1.668h1.667c12.225,0,23.619-6.184,30.281-16.433l3.791-5.834
				c4.435-6.821,6.795-14.783,6.795-22.919v-20.982C430.998,149.927,428.047,141.074,422.587,133.794z"/>
			<g>
				<path opacity="0.5" fill="#ECA85E" d="M417.341,238.208c-5.293,2.45-11.642,4.198-18.413,4.394
					c-6.748,0.219-13.879-1.107-20.138-4.217c-6.25-3.129-11.6-8.027-15.484-13.549c-3.919-5.525-6.341-11.648-7.569-17.351
					c-0.631,5.786,0.501,12.892,4.014,19.513c3.451,6.613,9.267,12.711,16.563,16.353c7.299,3.638,15.667,4.613,23.026,3.392
					C406.741,245.564,413.099,242.194,417.341,238.208z"/>
			</g>
			<g>
				<path opacity="0.5" fill="#ECA85E" d="M421.866,207.801c-1.398,3.422-3.337,7.115-5.975,10.572
					c-2.624,3.459-5.933,6.674-9.715,9.177c-3.786,2.497-8.041,4.279-12.252,5.335c-4.216,1.07-8.372,1.404-12.069,1.349
					c3.486,1.212,7.889,1.803,12.54,1.246c4.644-0.534,9.51-2.215,13.72-4.996c4.209-2.78,7.665-6.599,9.978-10.659
					C420.43,215.764,421.613,211.482,421.866,207.801z"/>
			</g>
			<g>
				<path opacity="0.5" fill="#ECA85E" d="M426.77,238.241c-4.392,4.34-9.982,8.496-16.55,11.453
					c-6.539,2.971-14.016,4.736-21.476,4.635c-7.459-0.121-14.88-2.108-21.327-5.274c-6.477-3.151-11.94-7.473-16.2-11.941
					c2.632,5.572,7.404,11.416,14,15.759c6.547,4.364,14.882,7.201,23.439,7.33c8.559,0.127,16.975-2.46,23.648-6.627
					C419.027,249.432,423.973,243.732,426.77,238.241z"/>
			</g>
			<g>
				<path opacity="0.5" fill="#ECA85E" d="M394.614,219.902c-5.602,0.018-11.959-1.422-17.85-4.67
					c-5.891-3.207-11.312-8.111-15.13-14.074c-3.824-5.99-6.113-12.895-7.132-19.572c-1.038-6.694-0.854-13.149-0.201-18.706
					c-1.514,5.382-2.391,11.949-1.758,18.944c0.608,6.971,2.799,14.375,6.873,20.752c4.084,6.384,10.054,11.447,16.458,14.418
					c3.2,1.494,6.506,2.472,9.701,2.932C388.771,220.391,391.849,220.332,394.614,219.902z"/>
			</g>
			<g>
				<path opacity="0.5" fill="#ECA85E" d="M406.641,209.037c2.168-0.229,4.503-1.069,6.663-2.483
					c2.136-1.438,4.112-3.392,5.715-5.689c1.629-2.288,2.928-4.894,3.911-7.653c0.949-2.738,1.634-5.605,2.063-8.496
					c0.876-5.793,0.678-11.621,0.043-16.96c-0.655-5.349-1.751-10.244-2.923-14.445c-0.443,8.715,0.369,20.007-1.226,30.795
					c-0.399,2.694-0.949,5.353-1.664,7.925c-0.729,2.531-1.668,4.971-2.85,7.194c-1.161,2.238-2.595,4.23-4.218,5.924
					C410.508,206.809,408.633,208.135,406.641,209.037z"/>
			</g>
		</g>
		<g>
			<path fill="#F0BF9C" d="M388.464,127.754c-16.29,0-29.495,13.205-29.495,29.495v0.632v7.846v18.564
				c0,7.848,3.43,15.304,9.388,20.411l3.666,3.142c4.578,3.926,10.41,6.083,16.441,6.083c6.03,0,11.862-2.157,16.441-6.083
				l3.665-3.142c5.959-5.107,9.388-12.563,9.388-20.411v-18.564v-7.072v-1.406C417.958,140.959,404.753,127.754,388.464,127.754
				L388.464,127.754z"/>
			<g>
				<g>
					<path fill="#8C404C" d="M371.365,161.922c-3.49,0.289-6.443,2.216-8.193,4.956l17.091-1.415
						C378.086,163.048,374.855,161.633,371.365,161.922z"/>
				</g>
				<circle fill="#402C49" cx="372.944" cy="173.446" r="2.658"/>
				<g>
					<path fill="#8C404C" d="M405.562,161.922c3.49,0.289,6.444,2.216,8.194,4.956l-17.091-1.415
						C398.842,163.048,402.072,161.633,405.562,161.922z"/>
				</g>
				<circle fill="#402C49" cx="403.982" cy="173.446" r="2.658"/>
				<path fill="#EBA588" d="M381.946,185.65c1.164,2.433,3.641,4.116,6.518,4.116c2.876,0,5.353-1.684,6.518-4.116H381.946z"/>
				<path fill="#FFFFFF" d="M375.066,195.178c2.394,4.998,7.484,8.459,13.397,8.459c5.912,0,11.003-3.461,13.397-8.459H375.066z"/>
			</g>
			<path fill="#E8916A" d="M417.958,157.249c0-16.29-13.205-29.495-29.494-29.495l0,0c-16.29,0-29.495,13.205-29.495,29.495v0.632
				v2.114l3.661-5.785c4.154-6.563,10.65-11.3,18.17-13.247c5.026-1.301,10.302-1.301,15.328,0
				c7.519,1.947,14.016,6.684,18.169,13.247l3.661,5.785v-1.341V157.249z"/>
		</g>
	</g>
	<g>
		<g>
			<path fill="#F0BF9C" d="M364.08,321.44l3.936-0.849c4.443-0.96,7.9-4.455,8.812-8.908l4.949-24.195v-18.39l0,0
				c3.93,0.982,6.688,4.514,6.688,8.564v50.142c0,4.867-3.073,9.204-7.666,10.816l-12.737,4.473L364.08,321.44z"/>
			<linearGradient id="SVGID_2_" gradientUnits="userSpaceOnUse" x1="385.5586" y1="278.1738" x2="385.5586" y2="301.9365">
				<stop  offset="0" style="stop-color:#EBA588"/>
				<stop  offset="1" style="stop-color:#EBA588;stop-opacity:0"/>
			</linearGradient>
			<path fill="url(#SVGID_2_)" d="M388.464,301.937h-5.812v-23.763l0,0c3.209,0,5.812,2.602,5.812,5.812V301.937z"/>
			<path fill="#EBA588" d="M388.464,301.937l-0.344,2.509c-1.039,7.598-0.923,15.31,0.344,22.873v0.001V301.937z"/>
			<polygon fill="#402C49" points="364.08,321.44 370.91,342.094 368.061,343.094 			"/>
		</g>
		<g>
			<path fill="#E8916A" d="M368.865,347.471l-5.044-27.438l-38.908,9.527l8.062-37.116c2.221-10.226,1.451-20.875-2.216-30.677
				l-8.234-22.005l0,0c-4.116,2.135-7.173,5.868-8.454,10.325l-25.96,90.358c-1.802,6.269-0.729,13.014,2.929,18.415l0,0
				c5.717,8.443,16.484,11.854,26.02,8.24L368.865,347.471z"/>
			<path fill="#CC6164" d="M324.913,329.561l-26.987,8.12l2.595-2.005c5.229-4.041,11.167-7.072,17.509-8.937l0,0
				c2.943-0.866,5.396-2.915,6.772-5.657l3.442-6.86L324.913,329.561z"/>
			<path fill="#CC6164" d="M331.014,301.471l1.961-9.026c2.221-10.226,1.451-20.875-2.216-30.677l-4.905-13.107l0.948,4.433
				C330.2,268.982,331.614,285.232,331.014,301.471L331.014,301.471z"/>
			<path fill="#F7DD8C" d="M355.556,351.988c-0.041-0.227-0.076-0.801,0.453-1.246c1.16-0.974,1.696-2.446,1.433-3.938
				c-0.263-1.491-1.27-2.691-2.692-3.209c-0.65-0.237-0.813-0.789-0.853-1.017c-0.04-0.227-0.075-0.801,0.452-1.244
				c1.161-0.974,1.697-2.446,1.435-3.938c-0.263-1.493-1.27-2.692-2.694-3.211c-0.648-0.236-0.811-0.789-0.851-1.016
				c-0.041-0.227-0.077-0.802,0.452-1.246c1.16-0.974,1.697-2.446,1.433-3.938c-0.263-1.492-1.27-2.691-2.692-3.209
				c-0.65-0.237-0.813-0.79-0.853-1.017c-0.019-0.104-0.029-0.283,0.008-0.486l-2.861,0.7c0.011,0.095,0.015,0.188,0.031,0.283
				c0.263,1.493,1.27,2.692,2.694,3.212c0.648,0.235,0.811,0.788,0.851,1.015s0.076,0.801-0.453,1.245
				c-1.159,0.975-1.696,2.446-1.432,3.938c0.263,1.492,1.27,2.691,2.692,3.21c0.65,0.236,0.813,0.789,0.853,1.016
				s0.075,0.801-0.453,1.245c-1.161,0.974-1.696,2.445-1.434,3.938s1.27,2.692,2.694,3.211c0.648,0.236,0.811,0.788,0.851,1.015
				c0.041,0.227,0.077,0.803-0.452,1.245c-1.16,0.975-1.697,2.446-1.434,3.938c0.061,0.346,0.165,0.674,0.302,0.984l2.696-1.021
				C355.625,352.268,355.573,352.093,355.556,351.988z"/>
			<path opacity="0.3" fill="#F7DD8C" d="M297.926,337.681l26.987-8.12l38.908-9.527l-1.736,0.766
				c-19.886,8.761-41.005,14.399-62.61,16.716L297.926,337.681z"/>
		</g>
	</g>
	<g>
		<g>
			<path fill="#F0BF9C" d="M412.847,321.44l-3.935-0.849c-4.444-0.96-7.901-4.455-8.813-8.908l-4.949-24.195v-18.39l0,0
				c-3.93,0.982-6.687,4.514-6.687,8.564v50.142c0,4.867,3.073,9.204,7.665,10.816l12.737,4.473L412.847,321.44z"/>
			
				<linearGradient id="SVGID_3_" gradientUnits="userSpaceOnUse" x1="-1090.3208" y1="278.1738" x2="-1090.3208" y2="301.9365" gradientTransform="matrix(-1 0 0 1 -698.9512 0)">
				<stop  offset="0" style="stop-color:#EBA588"/>
				<stop  offset="1" style="stop-color:#EBA588;stop-opacity:0"/>
			</linearGradient>
			<path fill="url(#SVGID_3_)" d="M388.464,301.937h5.812v-23.763l0,0c-3.21,0-5.812,2.602-5.812,5.812V301.937z"/>
			<path fill="#EBA588" d="M388.464,301.937l0.343,2.509c1.039,7.598,0.924,15.31-0.343,22.873v0.001V301.937z"/>
			<polygon fill="#402C49" points="412.847,321.44 406.017,342.094 408.866,343.094 			"/>
		</g>
		<g>
			<path fill="#E8916A" d="M408.062,347.471l5.044-27.438l38.908,9.527l-8.061-37.116c-2.222-10.226-1.452-20.875,2.215-30.677
				l8.234-22.005l0,0c4.116,2.135,7.174,5.868,8.454,10.325l25.961,90.358c1.801,6.269,0.728,13.014-2.929,18.415l0,0
				c-5.717,8.443-16.485,11.854-26.021,8.24L408.062,347.471z"/>
			<path fill="#CC6164" d="M452.014,329.561l26.987,8.12l-2.594-2.005c-5.23-4.041-11.168-7.072-17.509-8.937l0,0
				c-2.944-0.866-5.396-2.915-6.773-5.657l-3.442-6.86L452.014,329.561z"/>
			<path fill="#CC6164" d="M445.913,301.471l-1.96-9.026c-2.222-10.226-1.452-20.875,2.215-30.677l4.905-13.107l-0.948,4.433
				C446.728,268.982,445.313,285.232,445.913,301.471L445.913,301.471z"/>
			<path fill="#F7DD8C" d="M421.372,351.988c0.04-0.227,0.075-0.801-0.454-1.246c-1.16-0.974-1.696-2.446-1.433-3.938
				c0.264-1.491,1.27-2.691,2.692-3.209c0.65-0.237,0.813-0.789,0.853-1.017c0.04-0.227,0.076-0.801-0.452-1.244
				c-1.16-0.974-1.697-2.446-1.434-3.938c0.262-1.493,1.27-2.692,2.694-3.211c0.648-0.236,0.811-0.789,0.851-1.016
				s0.076-0.802-0.453-1.246c-1.16-0.974-1.696-2.446-1.433-3.938c0.264-1.492,1.27-2.691,2.692-3.209
				c0.65-0.237,0.813-0.79,0.853-1.017c0.019-0.104,0.029-0.283-0.007-0.486l2.86,0.7c-0.011,0.095-0.015,0.188-0.031,0.283
				c-0.262,1.493-1.27,2.692-2.694,3.212c-0.648,0.235-0.811,0.788-0.851,1.015s-0.075,0.801,0.453,1.245
				c1.16,0.975,1.696,2.446,1.433,3.938s-1.271,2.691-2.692,3.21c-0.65,0.236-0.813,0.789-0.854,1.016
				c-0.04,0.227-0.075,0.801,0.454,1.245c1.16,0.974,1.695,2.445,1.433,3.938c-0.262,1.492-1.27,2.692-2.694,3.211
				c-0.648,0.236-0.811,0.788-0.851,1.015s-0.076,0.803,0.452,1.245c1.161,0.975,1.697,2.446,1.435,3.938
				c-0.062,0.346-0.166,0.674-0.303,0.984l-2.695-1.021C421.303,352.268,421.354,352.093,421.372,351.988z"/>
			<path opacity="0.3" fill="#F7DD8C" d="M479.001,337.681l-26.987-8.12l-38.908-9.527l1.736,0.766
				c19.886,8.761,41.005,14.399,62.611,16.716L479.001,337.681z"/>
		</g>
	</g>
	<g>
		<g>
			<rect x="188.002" y="177.987" fill="#F0BF9C" width="28.311" height="33.753"/>
			<path fill="#402C49" d="M188.002,177.987v7.322l0.775,0.854c3.727,4.1,8.473,6.354,13.38,6.354s9.653-2.254,13.38-6.354
				l0.775-0.854v-7.322H188.002z"/>
		</g>
		<path fill="#FAECCB" d="M236.547,110.559h-68.779l4.852-14.187c4.32-12.629,16.19-21.115,29.538-21.115l0,0
			c13.348,0,25.218,8.486,29.538,21.115L236.547,110.559z"/>
		<path fill="#8C404C" d="M229.416,95.411c-3.785-2.024-8.01-3.083-12.302-3.083h-14.957H187.2c-4.292,0-8.517,1.059-12.302,3.083
			l0,0c-10.182,5.444-15.573,16.933-13.256,28.243l4.377,21.354v13.395h36.138h36.138v-13.395l4.377-21.354
			C244.989,112.344,239.598,100.855,229.416,95.411L229.416,95.411z"/>
		<g>
			<g>
				<circle fill="#EBA588" cx="166.019" cy="155.221" r="10.212"/>
				<circle fill="#E78882" cx="166.019" cy="155.221" r="6.427"/>
			</g>
			<g>
				<circle fill="#EBA588" cx="238.296" cy="155.221" r="10.212"/>
				<circle fill="#E78882" cx="238.295" cy="155.221" r="6.427"/>
			</g>
		</g>
		<g>
			<path fill="#F0BF9C" d="M216.873,111.663c-9.331,9.217-23.411,14.142-36.521,13.777c3.775-2.42,7.045-5.916,8.896-10
				c-5.21,4.626-11.329,8.217-17.898,10.535v27.585c0,8.197,3.582,15.985,9.806,21.32l3.829,3.282
				c4.782,4.1,10.874,6.354,17.174,6.354s12.391-2.254,17.173-6.354l3.83-3.282c6.224-5.335,9.805-13.123,9.805-21.32v-26.778
				C226.178,123.672,220.514,118.316,216.873,111.663z"/>
			<path fill="#EBA588" d="M216.873,111.663c-9.331,9.217-23.411,14.142-36.521,13.777c3.775-2.42,7.045-5.916,8.896-10
				c-5.21,4.626-11.329,8.217-17.898,10.535v6.135c2.441-0.89,4.784-2.051,6.963-3.466c6.69,1.805,14.011,1.911,20.608-0.214
				c6.597-2.124,12.555-6.191,16.936-11.562c5.328,10.409,17.109,9.915,17.109,9.915
				C226.178,123.672,220.514,118.316,216.873,111.663z"/>
			<g>
				<g>
					<path fill="#8C404C" d="M184.297,130.195c-3.645,0.302-6.73,2.314-8.559,5.176l17.853-1.478
						C191.316,131.371,187.943,129.893,184.297,130.195z"/>
				</g>
				<circle fill="#402C49" cx="185.947" cy="142.232" r="2.776"/>
				<g>
					<path fill="#8C404C" d="M220.018,130.195c3.645,0.302,6.73,2.314,8.559,5.176l-17.853-1.478
						C212.997,131.371,216.371,129.893,220.018,130.195z"/>
				</g>
				<circle fill="#402C49" cx="218.368" cy="142.232" r="2.776"/>
				<path fill="#EBA588" d="M195.35,154.98c1.217,2.541,3.803,4.299,6.808,4.299s5.591-1.758,6.808-4.299H195.35z"/>
				<path fill="#FFFFFF" d="M188.163,164.931c2.501,5.221,7.818,8.836,13.994,8.836s11.493-3.615,13.994-8.836H188.163z"/>
			</g>
		</g>
	</g>
	<g>
		<g>
			<path fill="#FAECCB" d="M202.157,211.74l-22.769-8.756l2.852-8.4l13.545,5.209c3.84,1.477,6.372,5.164,6.372,9.277V211.74z"/>
			<path fill="#FAECCB" d="M202.157,211.74l22.769-8.756l-2.852-8.4l-13.545,5.209c-3.84,1.477-6.372,5.164-6.372,9.277V211.74z"/>
			<polygon fill="#F5D896" points="256.449,319.212 258.998,213.174 224.926,202.984 202.157,211.74 179.389,202.984 
				145.316,213.174 147.864,319.212 139.267,416.652 202.157,416.652 265.047,416.652 			"/>
			<polygon fill="#FAECCB" points="202.157,211.74 197.527,209.96 197.527,416.652 202.157,416.652 206.787,416.652 206.787,209.96 
							"/>
			
				<rect x="153.079" y="359.772" transform="matrix(0.9989 0.0459 -0.0459 0.9989 16.8428 -7.4133)" fill="#FAECCB" width="33.436" height="6.329"/>
			
				<rect x="217.8" y="359.772" transform="matrix(-0.9989 0.0459 -0.0459 -0.9989 485.4516 714.7228)" fill="#FAECCB" width="33.436" height="6.329"/>
		</g>
		<polygon opacity="0.5" fill="#ECA85E" points="258.271,339.861 202.157,267.308 146.043,339.861 141.854,387.332 202.157,300.424 
			262.461,387.332 		"/>
		<g opacity="0.5">
			<g>
				<path fill="#ECA85E" d="M240.346,395.347c-5.943,0.118-12.687,0.249-19.824,0.064c-7.139-0.175-14.667-0.66-22.154-1.529
					c-7.487-0.883-14.925-2.149-21.91-3.627c-6.987-1.47-13.518-3.153-19.273-4.641c4.993,3.21,11.186,6.286,18.129,8.72
					c6.936,2.444,14.611,4.242,22.397,5.159c7.787,0.905,15.671,0.928,22.983,0.152C228.011,398.88,234.746,397.317,240.346,395.347
					z"/>
			</g>
			<g>
				<path fill="#ECA85E" d="M238.895,377.454c-3.977,0.802-8.488,1.72-13.304,2.492c-4.813,0.777-9.927,1.409-15.062,1.796
					c-5.135,0.376-10.285,0.506-15.16,0.447c-4.877-0.052-9.475-0.293-13.526-0.499c3.778,1.462,8.335,2.68,13.304,3.383
					c4.965,0.71,10.336,0.906,15.669,0.514c5.331-0.399,10.615-1.386,15.421-2.822C231.047,381.335,235.373,379.458,238.895,377.454
					z"/>
			</g>
			<g>
				<path fill="#ECA85E" d="M230.988,341.76c-4.199,0.546-8.963,1.099-14.025,1.363c-5.063,0.272-10.418,0.261-15.753-0.114
					c-5.333-0.388-10.638-1.14-15.608-2.13c-4.975-0.983-9.61-2.208-13.689-3.347c3.512,2.354,7.926,4.583,12.908,6.262
					c4.977,1.688,10.51,2.823,16.103,3.229c5.593,0.396,11.231,0.06,16.397-0.902C222.492,345.167,227.178,343.59,230.988,341.76z"
					/>
			</g>
			<g>
				<path fill="#ECA85E" d="M240.212,298.778c-4.765,2.442-10.179,5.187-16.049,7.798c-5.865,2.618-12.181,5.104-18.62,7.228
					c-6.443,2.111-13.002,3.857-19.277,5.229c-6.273,1.381-12.26,2.385-17.544,3.245c5.279,0.836,11.508,1.103,18.115,0.528
					c6.605-0.563,13.578-1.967,20.295-4.17c6.714-2.212,13.159-5.22,18.811-8.686C231.602,306.494,236.458,302.584,240.212,298.778z
					"/>
			</g>
			<g>
				<path fill="#ECA85E" d="M234.203,250.498c-4.778,0.142-10.203,0.323-15.953,0.291c-5.748-0.024-11.819-0.261-17.869-0.771
					c-6.049-0.521-12.072-1.316-17.742-2.265c-5.672-0.942-10.988-2.04-15.674-2.988c4.147,2.365,9.236,4.59,14.893,6.306
					c5.652,1.724,11.863,2.937,18.137,3.476c6.275,0.53,12.602,0.387,18.464-0.354C224.323,253.457,229.715,252.127,234.203,250.498
					z"/>
			</g>
		</g>
	</g>
	<g>
		<g>
			<path fill="#F5D896" d="M145.316,213.174L145.316,213.174c-3.709,1.074-6.496,4.146-7.203,7.943l-20.561,110.354h33.258
				l7.941-51.807c2.275-14.836,0.631-30.009-4.769-44.014L145.316,213.174z"/>
			<path opacity="0.5" fill="#ECA85E" d="M153.983,235.651l-4.032-10.457l1.279,4.612c3.5,12.622,4.27,25.846,2.256,38.788
				l-1.395,8.963c-1.383,8.887-5.828,17.011-12.566,22.966l-3.731,3.298c-5.881,5.198-10.45,11.712-13.334,19.011l-3.413,8.64
				h24.656h7.107l7.563-47.606l-0.307,0.271l0.686-4.471C161.027,264.829,159.383,249.656,153.983,235.651z"/>
		</g>
		<g>
			<path fill="#F0BF9C" d="M179.389,275.587l9.633-9.554l6.449-31.524v-18.39l0,0c3.93,0.982,6.687,4.514,6.687,8.564v49.656
				c0,3.993-1.663,7.806-4.591,10.521l-9.564,8.876L179.389,275.587z"/>
			<linearGradient id="SVGID_4_" gradientUnits="userSpaceOnUse" x1="199.252" y1="225.1943" x2="199.252" y2="248.958">
				<stop  offset="0" style="stop-color:#EBA588"/>
				<stop  offset="1" style="stop-color:#EBA588;stop-opacity:0"/>
			</linearGradient>
			<path fill="url(#SVGID_4_)" d="M202.157,248.958h-5.812v-23.764l0,0c3.209,0,5.812,2.603,5.812,5.812V248.958z"/>
			<g>
				<path fill="#F5D896" d="M123.683,319.541c-7.117,6.512-8.174,17.344-2.449,25.108c7.22,9.793,21.685,10.289,29.56,1.016
					l23.076-27.177l-14.844-31.285L123.683,319.541z"/>
				<polygon fill="#FAECCB" points="177.068,270.694 159.025,287.203 173.869,318.488 190.47,298.938 				"/>
			</g>
			<circle fill="#ECA85E" cx="178.489" cy="301.777" r="3.741"/>
			<polygon fill="#402C49" points="179.389,275.587 190.47,291.447 188.002,293.737 			"/>
			<path fill="#EBA588" d="M202.157,248.958l-0.343,2.508c-1.039,7.599-0.924,15.31,0.343,22.874l0,0V248.958z"/>
		</g>
	</g>
	<g>
		<g>
			<path fill="#F5D896" d="M258.998,213.174L258.998,213.174c3.709,1.074,6.496,4.146,7.203,7.943l20.561,110.354h-33.258
				l-7.941-51.807c-2.275-14.836-0.631-30.009,4.769-44.014L258.998,213.174z"/>
			<path opacity="0.5" fill="#ECA85E" d="M250.331,235.651l4.032-10.457l-1.279,4.612c-3.501,12.622-4.27,25.846-2.256,38.788
				l1.395,8.963c1.383,8.887,5.828,17.011,12.566,22.966l3.731,3.298c5.88,5.198,10.449,11.712,13.334,19.011l3.413,8.64h-24.656
				h-7.107l-7.563-47.606l0.307,0.271l-0.686-4.471C243.287,264.829,244.932,249.656,250.331,235.651z"/>
		</g>
		<g>
			<path fill="#F0BF9C" d="M224.926,275.587l-9.633-9.554l-6.449-31.524v-18.39l0,0c-3.93,0.982-6.687,4.514-6.687,8.564v49.656
				c0,3.993,1.663,7.806,4.591,10.521l9.564,8.876L224.926,275.587z"/>
			
				<linearGradient id="SVGID_5_" gradientUnits="userSpaceOnUse" x1="-1294.063" y1="225.1943" x2="-1294.063" y2="248.958" gradientTransform="matrix(-1 0 0 1 -1089 0)">
				<stop  offset="0" style="stop-color:#EBA588"/>
				<stop  offset="1" style="stop-color:#EBA588;stop-opacity:0"/>
			</linearGradient>
			<path fill="url(#SVGID_5_)" d="M202.157,248.958h5.812v-23.764l0,0c-3.209,0-5.812,2.603-5.812,5.812V248.958z"/>
			<g>
				<path fill="#F5D896" d="M280.632,319.541c7.117,6.512,8.174,17.344,2.449,25.108c-7.22,9.793-21.685,10.289-29.56,1.016
					l-23.076-27.177l14.844-31.285L280.632,319.541z"/>
				<polygon fill="#FAECCB" points="227.246,270.694 245.289,287.203 230.445,318.488 213.845,298.938 				"/>
			</g>
			<circle fill="#ECA85E" cx="225.825" cy="301.777" r="3.741"/>
			<polygon fill="#402C49" points="224.926,275.587 213.845,291.447 216.313,293.737 			"/>
			<path fill="#EBA588" d="M202.157,248.958l0.343,2.508c1.039,7.599,0.924,15.31-0.343,22.874l0,0V248.958z"/>
		</g>
	</g>
	<g>
		<g>
			<path fill="#CFE88B" d="M74.409,133.738L75.226,137c0.229,0.916,0.945,1.632,1.862,1.861l3.261,0.816
				c0.646,0.162,0.646,1.08,0,1.242l-3.261,0.816c-0.917,0.23-1.633,0.945-1.862,1.862l-0.816,3.261
				c-0.162,0.646-1.08,0.646-1.242,0l-0.817-3.261c-0.229-0.917-0.944-1.632-1.861-1.862l-3.261-0.816
				c-0.646-0.162-0.646-1.08,0-1.242l3.261-0.816c0.917-0.229,1.633-0.945,1.861-1.861l0.817-3.262
				C73.329,133.092,74.247,133.092,74.409,133.738z"/>
		</g>
		<g>
			<path fill="#CFE88B" d="M86.839,130.004l0.36,1.438c0.101,0.404,0.416,0.72,0.82,0.82l1.437,0.36
				c0.285,0.071,0.285,0.476,0,0.548l-1.437,0.359c-0.404,0.102-0.72,0.416-0.82,0.82l-0.36,1.438c-0.071,0.285-0.476,0.285-0.548,0
				l-0.359-1.438c-0.102-0.404-0.416-0.719-0.82-0.82l-1.438-0.359c-0.285-0.072-0.285-0.477,0-0.548l1.438-0.36
				c0.404-0.101,0.719-0.416,0.82-0.82l0.359-1.438C86.363,129.72,86.768,129.72,86.839,130.004z"/>
		</g>
		<g>
			<path fill="#CFE88B" d="M65.77,102.897l0.762,3.04c0.213,0.854,0.881,1.521,1.734,1.735l3.041,0.762
				c0.602,0.151,0.602,1.007,0,1.157l-3.041,0.762c-0.854,0.214-1.521,0.881-1.734,1.735l-0.762,3.04
				c-0.151,0.603-1.008,0.603-1.158,0l-0.762-3.04c-0.213-0.854-0.881-1.521-1.734-1.735l-3.041-0.762
				c-0.602-0.15-0.602-1.006,0-1.157l3.041-0.762c0.854-0.214,1.521-0.881,1.734-1.735l0.762-3.04
				C64.762,102.295,65.618,102.295,65.77,102.897z"/>
		</g>
		<g>
			<path fill="#CFE88B" d="M214.272,46.951l0.858,3.427c0.24,0.963,0.993,1.715,1.956,1.957l3.427,0.858
				c0.68,0.17,0.68,1.135,0,1.305l-3.427,0.858c-0.963,0.241-1.716,0.994-1.956,1.957l-0.858,3.427
				c-0.171,0.679-1.136,0.679-1.306,0l-0.857-3.427c-0.242-0.963-0.994-1.715-1.957-1.957l-3.427-0.858
				c-0.679-0.17-0.679-1.135,0-1.305l3.427-0.858c0.963-0.241,1.715-0.993,1.957-1.957l0.857-3.427
				C213.137,46.271,214.102,46.271,214.272,46.951z"/>
		</g>
		<g>
			<path fill="#CFE88B" d="M242.637,45.288l0.471,1.879c0.132,0.528,0.545,0.94,1.072,1.073l1.88,0.471
				c0.372,0.093,0.372,0.623,0,0.716l-1.88,0.471c-0.527,0.132-0.94,0.544-1.072,1.073l-0.471,1.879
				c-0.094,0.373-0.623,0.373-0.716,0l-0.471-1.879c-0.132-0.528-0.545-0.94-1.073-1.073l-1.879-0.471
				c-0.373-0.093-0.373-0.623,0-0.716l1.879-0.471c0.528-0.132,0.941-0.545,1.073-1.073l0.471-1.879
				C242.014,44.915,242.543,44.915,242.637,45.288z"/>
		</g>
		<g>
			<path fill="#CFE88B" d="M212.235,26.313l0.692,2.764c0.194,0.777,0.801,1.383,1.578,1.578l2.764,0.692
				c0.547,0.137,0.547,0.916,0,1.052l-2.764,0.692c-0.777,0.194-1.384,0.801-1.578,1.578l-0.692,2.764
				c-0.138,0.548-0.915,0.548-1.052,0l-0.693-2.764c-0.193-0.776-0.801-1.383-1.577-1.578l-2.764-0.692
				c-0.548-0.137-0.548-0.915,0-1.052l2.764-0.692c0.776-0.195,1.384-0.801,1.577-1.578l0.693-2.764
				C211.32,25.766,212.098,25.766,212.235,26.313z"/>
		</g>
		<g>
			<path fill="#CFE88B" d="M360.391,96.594l0.803,3.205c0.226,0.901,0.93,1.605,1.831,1.83l3.205,0.803
				c0.636,0.16,0.636,1.063,0,1.221l-3.205,0.804c-0.901,0.226-1.605,0.929-1.831,1.83l-0.803,3.206
				c-0.159,0.635-1.062,0.635-1.221,0l-0.803-3.206c-0.226-0.901-0.93-1.604-1.83-1.83l-3.206-0.804
				c-0.636-0.158-0.636-1.061,0-1.221l3.206-0.803c0.9-0.225,1.604-0.929,1.83-1.83l0.803-3.205
				C359.329,95.958,360.231,95.958,360.391,96.594z"/>
		</g>
		<g>
			<path fill="#CFE88B" d="M389.871,71.599l0.941,3.759c0.265,1.056,1.09,1.881,2.146,2.146l3.758,0.941
				c0.745,0.187,0.745,1.245,0,1.432l-3.758,0.941c-1.057,0.265-1.882,1.089-2.146,2.146l-0.941,3.759
				c-0.187,0.745-1.244,0.745-1.431,0l-0.941-3.759c-0.265-1.056-1.09-1.881-2.146-2.146l-3.758-0.941
				c-0.745-0.187-0.745-1.245,0-1.432l3.758-0.941c1.057-0.264,1.882-1.089,2.146-2.146l0.941-3.759
				C388.627,70.854,389.685,70.854,389.871,71.599z"/>
		</g>
		<g>
			<path fill="#CFE88B" d="M353.711,72.291l0.498,1.99c0.141,0.559,0.577,0.996,1.137,1.136l1.989,0.499
				c0.395,0.099,0.395,0.659,0,0.758l-1.989,0.498c-0.56,0.14-0.996,0.577-1.137,1.136l-0.498,1.99
				c-0.099,0.395-0.659,0.395-0.758,0l-0.498-1.99c-0.141-0.559-0.577-0.996-1.137-1.136l-1.989-0.498
				c-0.395-0.099-0.395-0.659,0-0.758l1.989-0.499c0.56-0.14,0.996-0.577,1.137-1.136l0.498-1.99
				C353.052,71.897,353.612,71.897,353.711,72.291z"/>
		</g>
		<g>
			<path fill="#CFE88B" d="M181.188,49.718l0.693,2.764c0.194,0.777,0.801,1.383,1.577,1.578l2.764,0.692
				c0.548,0.137,0.548,0.916,0,1.053l-2.764,0.692c-0.776,0.194-1.383,0.801-1.577,1.578l-0.693,2.764
				c-0.137,0.547-0.914,0.547-1.052,0l-0.692-2.764c-0.194-0.776-0.801-1.383-1.578-1.578l-2.764-0.692
				c-0.547-0.137-0.547-0.916,0-1.053l2.764-0.692c0.777-0.195,1.384-0.801,1.578-1.578l0.692-2.764
				C180.273,49.17,181.051,49.17,181.188,49.718z"/>
		</g>
		<g>
			<path fill="#CFE88B" d="M507.415,131.815l0.997,3.979c0.28,1.119,1.153,1.992,2.271,2.271l3.98,0.998
				c0.788,0.197,0.788,1.317,0,1.516l-3.98,0.996c-1.118,0.28-1.991,1.153-2.271,2.271l-0.997,3.98
				c-0.197,0.788-1.318,0.788-1.516,0l-0.997-3.98c-0.279-1.118-1.153-1.991-2.271-2.271l-3.979-0.996
				c-0.789-0.198-0.789-1.318,0-1.516l3.979-0.998c1.118-0.279,1.992-1.152,2.271-2.271l0.997-3.979
				C506.097,131.027,507.218,131.027,507.415,131.815z"/>
		</g>
		<g>
			<path fill="#CFE88B" d="M530.693,154.166l0.831,3.316c0.233,0.932,0.961,1.66,1.894,1.894l3.316,0.831
				c0.657,0.164,0.657,1.098,0,1.263l-3.316,0.831c-0.933,0.232-1.66,0.961-1.894,1.893l-0.831,3.316
				c-0.164,0.657-1.099,0.657-1.263,0l-0.831-3.316c-0.233-0.932-0.961-1.66-1.893-1.893l-3.316-0.831
				c-0.657-0.165-0.657-1.099,0-1.263l3.316-0.831c0.932-0.233,1.659-0.962,1.893-1.894l0.831-3.316
				C529.595,153.51,530.529,153.51,530.693,154.166z"/>
		</g>
		<g>
			<path fill="#CFE88B" d="M498.698,163.777l0.526,2.101c0.147,0.591,0.608,1.052,1.199,1.198l2.101,0.527
				c0.416,0.104,0.416,0.695,0,0.799l-2.101,0.526c-0.591,0.147-1.052,0.608-1.199,1.199l-0.526,2.101
				c-0.104,0.416-0.695,0.416-0.8,0l-0.526-2.101c-0.147-0.591-0.608-1.052-1.198-1.199l-2.101-0.526
				c-0.416-0.104-0.416-0.695,0-0.799l2.101-0.527c0.59-0.146,1.051-0.607,1.198-1.198l0.526-2.101
				C498.003,163.361,498.594,163.361,498.698,163.777z"/>
		</g>
		<g>
			<path fill="#CFE88B" d="M488.576,89.618l0.72,2.874c0.202,0.809,0.833,1.438,1.642,1.641l2.874,0.721
				c0.569,0.143,0.569,0.951,0,1.094l-2.874,0.721c-0.809,0.201-1.439,0.832-1.642,1.641l-0.72,2.874
				c-0.143,0.569-0.952,0.569-1.095,0l-0.72-2.874c-0.202-0.809-0.833-1.439-1.641-1.641l-2.874-0.721
				c-0.57-0.143-0.57-0.951,0-1.094l2.874-0.721c0.808-0.202,1.438-0.832,1.641-1.641l0.72-2.874
				C487.624,89.049,488.434,89.049,488.576,89.618z"/>
		</g>
	</g>
</g>
</svg>
