<?xml version="1.0" encoding="utf-8"?>
<!-- Generator: Adobe Illustrator 16.0.0, SVG Export Plug-In . SVG Version: 6.00 Build 0)  -->
<!DOCTYPE svg PUBLIC "-//W3C//DTD SVG 1.1//EN" "http://www.w3.org/Graphics/SVG/1.1/DTD/svg11.dtd">
<svg version="1.1" id="Layer_1" xmlns="http://www.w3.org/2000/svg" xmlns:xlink="http://www.w3.org/1999/xlink" x="0px" y="0px"
	 width="1920px" height="1080px" viewBox="0 0 1920 1080" enable-background="new 0 0 1920 1080" xml:space="preserve">
<g>
	<defs>
		<rect id="SVGID_1_" x="1" y="1" width="1921" height="1080"/>
	</defs>
	<use xlink:href="#SVGID_1_"  overflow="visible" fill="#522166"/>
	<clipPath id="SVGID_2_">
		<use xlink:href="#SVGID_1_"  overflow="visible"/>
	</clipPath>
	<g clip-path="url(#SVGID_2_)">
		<g>
			<g>
				<g>
					
						<line fill="none" stroke="#EB3D72" stroke-width="2" stroke-linecap="round" stroke-miterlimit="10" x1="1732.103" y1="647.015" x2="1714.923" y2="666.163"/>
					
						<line fill="none" stroke="#EB3D72" stroke-width="2" stroke-linecap="round" stroke-miterlimit="10" x1="1713.938" y1="647.999" x2="1733.086" y2="665.179"/>
				</g>
				<path fill="none" stroke="#612273" stroke-width="2" stroke-linecap="round" stroke-miterlimit="10" d="M1692.84,611.782
					c-1.064-2.646-1.119-5.697,0.088-8.528c2.414-5.661,8.96-8.294,14.621-5.881c5.662,2.414,8.295,8.96,5.881,14.622
					c-2.414,5.661-8.96,8.294-14.621,5.88C1695.978,616.668,1693.904,614.429,1692.84,611.782"/>
				<path fill="none" stroke="#EB3D72" stroke-width="2" stroke-linecap="round" stroke-miterlimit="10" d="M1686.55,542.593
					c1.919,0,3.838,0.732,5.303,2.196c2.928,2.929,2.928,7.677,0,10.605c-2.929,2.928-7.677,2.928-10.604,0
					c-2.929-2.929-2.929-7.677,0-10.605C1682.712,543.325,1684.631,542.593,1686.55,542.593"/>
				<path fill="none" stroke="#32C4AA" stroke-width="2" stroke-linecap="round" stroke-miterlimit="10" d="M1774.106,660.036
					c2.852,0,5.704,1.088,7.88,3.264c4.352,4.353,4.352,11.408,0,15.76c-4.353,4.352-11.408,4.352-15.76,0s-4.352-11.407,0-15.76
					C1768.402,661.124,1771.254,660.036,1774.106,660.036"/>
				<path fill="none" stroke="#EB3D72" stroke-width="2" stroke-linecap="round" stroke-miterlimit="10" d="M1697.648,709.587
					c4.154,0,8.309,1.585,11.479,4.755c6.339,6.339,6.339,16.617,0,22.956c-6.34,6.34-16.617,6.34-22.957,0
					c-6.339-6.339-6.339-16.617,0-22.956C1689.34,711.172,1693.494,709.587,1697.648,709.587"/>
				<g>
					
						<line fill="none" stroke="#612273" stroke-width="2" stroke-linecap="round" stroke-miterlimit="10" x1="1778.244" y1="752.444" x2="1759.935" y2="752.444"/>
					
						<line fill="none" stroke="#612273" stroke-width="2" stroke-linecap="round" stroke-miterlimit="10" x1="1769.089" y1="743.289" x2="1769.089" y2="761.599"/>
				</g>
				<g>
					
						<line fill="none" stroke="#32C4AA" stroke-width="2" stroke-linecap="round" stroke-miterlimit="10" x1="1669.379" y1="643.477" x2="1646.244" y2="654.727"/>
					
						<line fill="none" stroke="#32C4AA" stroke-width="2" stroke-linecap="round" stroke-miterlimit="10" x1="1652.187" y1="637.534" x2="1663.437" y2="660.669"/>
				</g>
			</g>
			<g>
				<g>
					
						<line fill="none" stroke="#EB3D72" stroke-width="2" stroke-linecap="round" stroke-miterlimit="10" x1="1522.938" y1="843.609" x2="1524.329" y2="869.297"/>
					
						<line fill="none" stroke="#EB3D72" stroke-width="2" stroke-linecap="round" stroke-miterlimit="10" x1="1510.79" y1="857.149" x2="1536.477" y2="855.758"/>
				</g>
				<path fill="none" stroke="#612273" stroke-width="2" stroke-linecap="round" stroke-miterlimit="10" d="M1470.262,846.459
					c-2.623-1.118-4.82-3.237-5.969-6.093c-2.296-5.71,0.471-12.2,6.182-14.497c5.709-2.296,12.2,0.471,14.496,6.181
					c2.297,5.71-0.471,12.201-6.181,14.497C1475.936,847.695,1472.885,847.578,1470.262,846.459"/>
				<path fill="none" stroke="#EB3D72" stroke-width="2" stroke-linecap="round" stroke-miterlimit="10" d="M1416.89,801.982
					c1.357-1.356,3.231-2.196,5.303-2.196c4.142,0,7.498,3.357,7.498,7.499s-3.356,7.498-7.498,7.498s-7.499-3.356-7.499-7.498
					C1414.693,805.215,1415.533,803.34,1416.89,801.982"/>
				<path fill="none" stroke="#32C4AA" stroke-width="2" stroke-linecap="round" stroke-miterlimit="10" d="M1561.846,823.116
					c2.018-2.017,4.803-3.265,7.88-3.265c6.155,0,11.144,4.989,11.144,11.144c0,6.155-4.988,11.144-11.144,11.144
					c-6.154,0-11.144-4.988-11.144-11.144C1558.582,827.918,1559.83,825.133,1561.846,823.116"/>
				<path fill="none" stroke="#EB3D72" stroke-width="2" stroke-linecap="round" stroke-miterlimit="10" d="M1542.82,912.218
					c2.938-2.938,6.995-4.755,11.479-4.755c8.965,0,16.232,7.268,16.232,16.232c0,8.966-7.268,16.233-16.232,16.233
					c-8.966,0-16.233-7.268-16.233-16.233C1538.065,919.213,1539.883,915.155,1542.82,912.218"/>
				<g>
					
						<line fill="none" stroke="#612273" stroke-width="2" stroke-linecap="round" stroke-miterlimit="10" x1="1630.114" y1="885.532" x2="1617.167" y2="898.479"/>
					
						<line fill="none" stroke="#612273" stroke-width="2" stroke-linecap="round" stroke-miterlimit="10" x1="1617.167" y1="885.532" x2="1630.114" y2="898.479"/>
				</g>
				<g>
					
						<line fill="none" stroke="#32C4AA" stroke-width="2" stroke-linecap="round" stroke-miterlimit="10" x1="1476.083" y1="885.46" x2="1467.679" y2="909.773"/>
					
						<line fill="none" stroke="#32C4AA" stroke-width="2" stroke-linecap="round" stroke-miterlimit="10" x1="1459.725" y1="893.414" x2="1484.038" y2="901.818"/>
				</g>
			</g>
			<g>
				<path fill="none" stroke="#32C4AA" stroke-width="2" stroke-linecap="round" stroke-miterlimit="10" d="M1527.07,1088.521
					c0-2.853,1.088-5.704,3.264-7.88c4.352-4.353,11.408-4.353,15.76,0c4.352,4.352,4.352,11.407,0,15.759
					c-4.352,4.353-11.408,4.353-15.76,0C1528.158,1094.225,1527.07,1091.373,1527.07,1088.521"/>
			</g>
			<g>
				<path fill="#612273" d="M2018.579,989.343c-39.229,39.216-103.278,38.747-143.059-1.046
					c-39.78-39.794-40.227-103.844-0.997-143.06c33.185-33.173,164.726-61.587,204.476-69.556c5.483-1.1,10.308,3.727,9.207,9.21
					C2080.223,824.639,2051.764,956.17,2018.579,989.343z"/>
				<path fill="#541F66" d="M1971.185,988.806c-26.181,26.172-68.927,25.858-95.475-0.698
					c-26.548-26.558-26.846-69.303-0.665-95.475s144.094-47.905,144.094-47.905S1997.365,962.634,1971.185,988.806z"/>
				<path fill="#FED150" d="M1926.234,944.397c-10.015-10.285-19.951-3.237-21.373-1.854c-1.422,1.384-7.692,9.542-0.767,16.655
					s12.774,0.987,12.774,0.987c2.592-2.521,2.737-6.574,0.324-9.052c-2.412-2.478-6.468-2.442-9.06,0.079
					c0,0-0.21-1.542,2.538-4.028s6.698-1.463,10.348,2.286c3.65,3.749,7.702,18.338-7.276,33.098
					c-13.729,13.528-35.011,9.095-45.021,0.656c-0.026,0.571-0.075,1.143-0.147,1.712c-0.444,3.516,0.959,7.099,4.048,8.835
					c13.49,7.58,34.206,6.38,46.737-5.813C1934.148,973.571,1936.248,954.683,1926.234,944.397z"/>
				<path fill="#FED150" d="M1926.636,849.271c-3.215,1.063-6.72-0.693-7.829-3.924s0.598-6.711,3.813-7.774
					c3.215-1.063,6.72,0.694,7.829,3.925C1931.558,844.728,1929.851,848.208,1926.636,849.271z"/>
			</g>
			<g>
				<path fill="#EB3D72" d="M1975.527,1095.911c-55.469-0.01-100.428-45.631-100.418-101.897
					c0.01-56.268,44.984-101.873,100.453-101.863c46.922,0.008,160.027,72.93,193.77,95.402c4.655,3.101,4.654,9.924-0.002,13.022
					C2135.58,1023.036,2022.449,1095.919,1975.527,1095.911z"/>
				<path fill="#D32A62" d="M1942.395,1062.018c-37.02-0.006-67.023-30.453-67.018-68.004c0.007-37.552,30.021-67.988,67.041-67.981
					c37.019,0.007,135.764,68.017,135.764,68.017S1979.413,1062.024,1942.395,1062.018z"/>
				<path fill="#FED150" d="M1942.01,998.832c0.192-14.354-11.817-16.397-13.801-16.425c-1.984-0.027-12.187,1.309-12.319,11.235
					c-0.132,9.928,8.336,9.731,8.336,9.731c3.615,0.049,6.583-2.714,6.629-6.171c0.047-3.458-2.847-6.301-6.462-6.351
					c0,0,0.942-1.239,4.644-1.054c3.701,0.185,5.771,3.701,5.7,8.934c-0.069,5.231-7.521,18.412-28.549,18.258
					c-19.274-0.142-31.188-18.325-32.299-31.37c-0.422,0.386-0.861,0.755-1.314,1.106c-2.8,2.172-4.342,5.698-3.385,9.109
					c4.179,14.899,19.676,28.698,37.158,28.938C1926.979,1025.058,1941.818,1013.186,1942.01,998.832z"/>
			</g>
			<g>
				<path fill="#32C4AA" d="M1863.595,1140.666c-39.216-39.229-38.747-103.279,1.047-143.059
					c39.793-39.78,103.843-40.227,143.059-0.997c33.173,33.185,61.587,164.726,69.556,204.476c1.1,5.483-3.726,10.308-9.21,9.206
					C2028.299,1202.31,1896.768,1173.851,1863.595,1140.666z"/>
				<path fill="#2FAF96" d="M1864.133,1093.271c-26.172-26.181-25.859-68.926,0.698-95.474
					c26.558-26.549,69.303-26.847,95.475-0.666c26.172,26.182,47.904,144.095,47.904,144.095S1890.305,1119.451,1864.133,1093.271z"
					/>
				<path fill="#FED150" d="M1908.54,1048.32c10.285-10.014,3.238-19.951,1.854-21.373c-1.383-1.422-9.542-7.691-16.655-0.766
					s-0.986,12.774-0.986,12.774c2.521,2.591,6.573,2.736,9.051,0.324s2.442-6.469-0.079-9.06c0,0,1.543-0.21,4.029,2.538
					c2.486,2.747,1.462,6.698-2.286,10.348c-3.749,3.65-18.338,7.702-33.099-7.277c-13.528-13.729-9.095-35.01-0.656-45.02
					c-0.571-0.026-1.143-0.076-1.712-0.147c-3.515-0.444-7.099,0.959-8.834,4.048c-7.581,13.49-6.381,34.205,5.812,46.737
					C1879.366,1056.235,1898.255,1058.335,1908.54,1048.32z"/>
			</g>
			<g>
				<path fill="#612273" d="M1765.485,1097.11c0.01-55.469,45.631-100.428,101.898-100.418
					c56.267,0.01,101.872,44.984,101.862,100.453c-0.008,46.922-72.93,160.027-95.402,193.77c-3.1,4.655-9.924,4.654-13.022-0.002
					C1838.36,1257.162,1765.478,1144.032,1765.485,1097.11z"/>
				<path fill="#541F66" d="M1799.379,1063.978c0.007-37.02,30.453-67.023,68.004-67.017c37.552,0.006,67.988,30.021,67.981,67.04
					c-0.006,37.019-68.016,135.764-68.016,135.764S1799.373,1100.996,1799.379,1063.978z"/>
				<path fill="#FED150" d="M1862.564,1063.594c14.354,0.191,16.397-11.818,16.425-13.802s-1.309-12.187-11.235-12.319
					c-9.928-0.132-9.73,8.336-9.73,8.336c-0.05,3.615,2.713,6.583,6.17,6.629c3.458,0.047,6.301-2.847,6.351-6.462
					c0,0,1.239,0.942,1.055,4.644c-0.186,3.701-3.702,5.771-8.935,5.7c-5.231-0.069-18.412-7.521-18.258-28.549
					c0.142-19.274,18.325-31.188,31.37-32.299c-0.386-0.422-0.754-0.86-1.106-1.314c-2.172-2.8-5.697-4.342-9.109-3.385
					c-14.899,4.179-28.698,19.676-28.938,37.158C1836.339,1048.562,1848.211,1063.402,1862.564,1063.594z"/>
			</g>
			<g>
				<path fill="#EB3D72" d="M1720.573,991.313c39.229-39.215,103.278-38.747,143.059,1.047s40.227,103.844,0.997,143.059
					c-33.185,33.174-164.726,61.588-204.476,69.557c-5.484,1.1-10.309-3.727-9.207-9.21
					C1658.929,1156.018,1687.389,1024.486,1720.573,991.313z"/>
				<path fill="#D32A62" d="M1767.968,991.851c26.181-26.172,68.926-25.859,95.475,0.698c26.548,26.558,26.846,69.303,0.665,95.475
					s-144.094,47.905-144.094,47.905S1741.787,1018.022,1767.968,991.851z"/>
				<path fill="#FED150" d="M1812.918,1036.258c10.015,10.285,19.951,3.238,21.373,1.855c1.422-1.384,7.692-9.543,0.767-16.656
					s-12.774-0.986-12.774-0.986c-2.592,2.521-2.737,6.574-0.325,9.052c2.413,2.478,6.469,2.441,9.061-0.08
					c0,0,0.21,1.543-2.538,4.029s-6.698,1.463-10.349-2.286c-3.649-3.749-7.701-18.338,7.277-33.099
					c13.729-13.528,35.011-9.095,45.021-0.656c0.025-0.571,0.075-1.142,0.147-1.712c0.443-3.515-0.959-7.099-4.048-8.834
					c-13.491-7.581-34.206-6.381-46.738,5.813C1805.003,1007.084,1802.904,1025.973,1812.918,1036.258z"/>
				<path fill="#FED150" d="M1725.689,1044.528c1.064-3.215-0.691-6.721-3.921-7.831s-6.711,0.596-7.775,3.81
					c-1.064,3.215,0.691,6.721,3.921,7.831C1721.145,1049.448,1724.626,1047.742,1725.689,1044.528z"/>
				<path fill="#FED150" d="M1722.88,1064.473c1.657-5.006-1.076-10.466-6.106-12.194c-5.029-1.729-10.451,0.927-12.108,5.933
					s1.077,10.465,6.106,12.194C1715.802,1072.135,1721.223,1069.479,1722.88,1064.473z"/>
				<path fill="#FED150" d="M1715.358,1087.189c1.657-5.006-1.077-10.465-6.106-12.194c-5.03-1.729-10.451,0.928-12.108,5.934
					c-1.657,5.005,1.076,10.465,6.106,12.194C1708.279,1094.852,1713.701,1092.195,1715.358,1087.189z"/>
			</g>
			<g>
				<path fill="#32C4AA" d="M1768.074,880.519c55.47,0.01,100.428,45.631,100.418,101.897
					c-0.009,56.268-44.983,101.873-100.453,101.863c-46.922-0.008-160.026-72.93-193.769-95.402
					c-4.655-3.101-4.654-9.924,0.002-13.022C1608.022,953.393,1721.152,880.511,1768.074,880.519z"/>
				<path fill="#2FAF96" d="M1801.208,914.412c37.019,0.006,67.023,30.453,67.017,68.004c-0.007,37.552-30.021,67.988-67.04,67.981
					c-37.02-0.007-135.765-68.017-135.765-68.017S1764.189,914.405,1801.208,914.412z"/>
				<path fill="#FED150" d="M1801.592,977.598c-0.191,14.354,11.817,16.397,13.802,16.425c1.983,0.026,12.186-1.31,12.318-11.236
					s-8.335-9.73-8.335-9.73c-3.615-0.05-6.584,2.714-6.63,6.171c-0.046,3.458,2.847,6.301,6.462,6.351c0,0-0.941,1.239-4.643,1.054
					c-3.701-0.185-5.771-3.701-5.701-8.934c0.07-5.231,7.521-18.413,28.55-18.258c19.273,0.142,31.187,18.324,32.298,31.37
					c0.423-0.386,0.861-0.755,1.314-1.106c2.8-2.172,4.342-5.698,3.385-9.109c-4.179-14.899-19.675-28.698-37.158-28.938
					C1816.624,951.372,1801.783,963.244,1801.592,977.598z"/>
				<path fill="#FED150" d="M1734.043,1044.578c3.025,1.521,4.262,5.242,2.762,8.311s-5.168,4.322-8.193,2.801
					c-3.024-1.521-4.261-5.242-2.762-8.311C1727.35,1044.311,1731.018,1043.057,1734.043,1044.578z"/>
				<path fill="#FED150" d="M1677.775,1016.278c3.025,1.521,4.262,5.242,2.762,8.311s-5.168,4.322-8.193,2.801
					c-3.024-1.521-4.261-5.242-2.761-8.311C1671.082,1016.011,1674.751,1014.757,1677.775,1016.278z"/>
				<path fill="#FED150" d="M1717.957,1032.456c4.711,2.369,6.637,8.163,4.301,12.942c-2.336,4.778-8.048,6.731-12.759,4.362
					c-4.71-2.369-6.636-8.164-4.3-12.942C1707.534,1032.04,1713.247,1030.087,1717.957,1032.456z"/>
				<path fill="#FED150" d="M1696.579,1021.704c4.71,2.369,6.636,8.163,4.3,12.941c-2.335,4.778-8.048,6.731-12.758,4.362
					c-4.711-2.369-6.637-8.163-4.301-12.941C1686.156,1021.287,1691.868,1019.334,1696.579,1021.704z"/>
				<path fill="#FED150" d="M1734.064,921.766c3.025-1.521,4.263-5.241,2.764-8.31c-1.498-3.069-5.166-4.325-8.191-2.805
					s-4.264,5.241-2.765,8.31C1727.371,922.03,1731.039,923.286,1734.064,921.766z"/>
				<path fill="#FED150" d="M1677.787,950.045c3.025-1.52,4.263-5.24,2.765-8.31c-1.499-3.068-5.167-4.324-8.192-2.804
					s-4.263,5.24-2.764,8.31C1671.094,950.311,1674.762,951.565,1677.787,950.045z"/>
				<path fill="#FED150" d="M1717.975,933.881c4.711-2.367,6.639-8.161,4.305-12.94s-8.046-6.734-12.757-4.366
					c-4.712,2.367-6.64,8.161-4.305,12.94C1707.552,934.294,1713.263,936.249,1717.975,933.881z"/>
				<path fill="#FED150" d="M1696.592,944.626c4.712-2.367,6.64-8.161,4.306-12.94s-8.046-6.734-12.758-4.366
					c-4.711,2.367-6.639,8.161-4.305,12.94S1691.881,946.994,1696.592,944.626z"/>
			</g>
			<g>
				<path fill="#612273" d="M1868.247,841.943c39.216,39.229,38.747,103.278-1.047,143.059s-103.843,40.227-143.059,0.997
					c-33.174-33.185-61.587-164.726-69.557-204.476c-1.099-5.484,3.727-10.309,9.21-9.207
					C1703.543,780.299,1835.073,808.759,1868.247,841.943z"/>
				<path fill="#541F66" d="M1867.709,889.338c26.172,26.181,25.859,68.926-0.698,95.475c-26.558,26.548-69.303,26.846-95.475,0.665
					s-47.905-144.095-47.905-144.095S1841.537,863.157,1867.709,889.338z"/>
				<path fill="#FED150" d="M1823.302,934.288c-10.285,10.015-3.238,19.951-1.854,21.373c1.383,1.422,9.542,7.692,16.655,0.767
					s0.986-12.774,0.986-12.774c-2.521-2.592-6.573-2.737-9.051-0.325s-2.442,6.469,0.079,9.061c0,0-1.543,0.21-4.029-2.538
					s-1.463-6.698,2.286-10.349c3.749-3.649,18.338-7.701,33.099,7.277c13.528,13.729,9.095,35.011,0.656,45.021
					c0.57,0.026,1.142,0.075,1.712,0.147c3.515,0.443,7.099-0.959,8.834-4.048c7.581-13.491,6.381-34.206-5.812-46.738
					C1852.476,926.373,1833.587,924.274,1823.302,934.288z"/>
				<path fill="#FED150" d="M1728.176,933.887c1.063,3.215-0.694,6.72-3.924,7.829c-3.23,1.108-6.711-0.598-7.774-3.813
					s0.693-6.72,3.924-7.829S1727.112,930.672,1728.176,933.887z"/>
				<path fill="#FED150" d="M1708.399,874.089c1.063,3.215-0.694,6.72-3.925,7.829c-3.229,1.109-6.71-0.598-7.773-3.813
					s0.693-6.72,3.924-7.829S1707.336,870.874,1708.399,874.089z"/>
				<path fill="#FED150" d="M1725.372,913.94c1.656,5.007-1.08,10.466-6.11,12.192c-5.03,1.728-10.45-0.931-12.106-5.937
					c-1.655-5.007,1.08-10.465,6.11-12.192C1718.297,906.276,1723.717,908.935,1725.372,913.94z"/>
				<path fill="#FED150" d="M1717.858,891.221c1.655,5.007-1.08,10.465-6.11,12.192s-10.451-0.931-12.106-5.937
					c-1.655-5.007,1.08-10.465,6.11-12.192C1710.783,883.557,1716.203,886.215,1717.858,891.221z"/>
				<path fill="#FED150" d="M1815.031,847.06c3.215,1.064,6.721-0.69,7.831-3.921c1.11-3.229-0.596-6.711-3.81-7.775
					c-3.215-1.064-6.721,0.691-7.831,3.922C1810.111,842.515,1811.817,845.996,1815.031,847.06z"/>
				<path fill="#FED150" d="M1755.24,827.263c3.215,1.064,6.721-0.69,7.831-3.921c1.11-3.229-0.595-6.711-3.81-7.775
					s-6.721,0.691-7.831,3.922C1750.32,822.718,1752.026,826.199,1755.24,827.263z"/>
				<path fill="#FED150" d="M1795.087,844.25c5.006,1.657,10.466-1.076,12.194-6.106c1.729-5.029-0.927-10.45-5.933-12.108
					c-5.006-1.657-10.465,1.077-12.194,6.106C1787.426,837.172,1790.081,842.593,1795.087,844.25z"/>
				<path fill="#FED150" d="M1772.37,836.729c5.006,1.657,10.465-1.076,12.194-6.106c1.729-5.03-0.928-10.451-5.934-12.108
					c-5.005-1.657-10.465,1.076-12.193,6.106C1764.708,829.65,1767.364,835.071,1772.37,836.729z"/>
			</g>
			<g>
				<path fill="#EB3D72" d="M1974.815,884.995c-0.01,55.469-45.631,100.428-101.898,100.418
					c-56.267-0.01-101.872-44.984-101.862-100.453c0.008-46.922,72.93-160.027,95.402-193.77c3.1-4.655,9.924-4.654,13.022,0.002
					C1901.94,724.942,1974.823,838.073,1974.815,884.995z"/>
				<path fill="#D32A62" d="M1940.922,918.128c-0.007,37.02-30.453,67.023-68.005,67.017c-37.551-0.006-67.987-30.021-67.981-67.04
					c0.007-37.019,68.017-135.764,68.017-135.764S1940.928,881.109,1940.922,918.128z"/>
				<path fill="#FED150" d="M1877.736,918.512c-14.354-0.191-16.397,11.818-16.425,13.802s1.309,12.187,11.235,12.319
					c9.927,0.132,9.73-8.336,9.73-8.336c0.05-3.615-2.713-6.583-6.171-6.629c-3.457-0.047-6.3,2.847-6.35,6.462
					c0,0-1.239-0.942-1.055-4.644c0.186-3.701,3.702-5.771,8.934-5.7c5.232,0.069,18.413,7.521,18.259,28.549
					c-0.143,19.274-18.325,31.188-31.37,32.299c0.385,0.422,0.754,0.86,1.106,1.314c2.171,2.8,5.697,4.342,9.108,3.385
					c14.9-4.179,28.699-19.676,28.939-37.158C1903.962,933.544,1892.09,918.704,1877.736,918.512z"/>
				<path fill="#FED150" d="M1810.756,850.963c-1.521,3.025-5.242,4.262-8.311,2.762s-4.322-5.168-2.801-8.192
					c1.521-3.025,5.241-4.262,8.311-2.762C1811.023,844.271,1812.277,847.938,1810.756,850.963z"/>
				<path fill="#FED150" d="M1839.056,794.696c-1.521,3.024-5.242,4.261-8.312,2.761c-3.068-1.499-4.322-5.168-2.801-8.192
					c1.521-3.025,5.242-4.262,8.311-2.762S1840.576,791.671,1839.056,794.696z"/>
				<path fill="#FED150" d="M1822.877,834.878c-2.369,4.711-8.163,6.636-12.941,4.3c-4.778-2.335-6.731-8.047-4.362-12.758
					s8.163-6.637,12.941-4.301C1823.294,824.455,1825.247,830.167,1822.877,834.878z"/>
				<path fill="#FED150" d="M1833.63,813.499c-2.369,4.711-8.164,6.636-12.942,4.301c-4.778-2.336-6.731-8.048-4.362-12.759
					s8.164-6.636,12.942-4.301C1834.046,803.076,1835.999,808.788,1833.63,813.499z"/>
				<path fill="#FED150" d="M1905.288,794.707c1.521,3.025,5.24,4.264,8.31,2.765s4.324-5.166,2.804-8.191
					c-1.52-3.025-5.24-4.264-8.31-2.765C1905.023,788.015,1903.768,791.682,1905.288,794.707z"/>
				<path fill="#FED150" d="M1910.707,813.513c2.367,4.711,8.161,6.639,12.94,4.305s6.734-8.046,4.367-12.757
					c-2.368-4.712-8.161-6.639-12.94-4.305S1908.34,808.801,1910.707,813.513z"/>
			</g>
		</g>
		<g>
			<path fill="#FED150" d="M206.457-30.797c0.274-19.508-16.046-22.297-18.742-22.336c-2.696-0.039-16.564,1.767-16.754,15.259
				c-0.19,13.492,11.319,13.233,11.319,13.233c4.914,0.071,8.95-3.681,9.016-8.38c0.066-4.699-3.863-8.566-8.777-8.637
				c0,0,1.282-1.684,6.312-1.429c5.03,0.255,7.839,5.037,7.739,12.148c-0.1,7.11-10.239,25.018-38.82,24.787
				c-26.195-0.211-42.369-24.936-43.867-42.667c-0.574,0.524-1.171,1.025-1.788,1.502c-3.807,2.949-5.906,7.74-4.609,12.377
				c5.666,20.254,26.714,39.024,50.475,39.367C186.001,4.832,206.183-11.289,206.457-30.797z"/>
			<path fill="#FED150" d="M67.093,192.064c13.977-13.613,4.396-27.117,2.516-29.049c-1.881-1.932-12.971-10.452-22.637-1.037
				s-1.338,17.362-1.338,17.362c3.427,3.521,8.935,3.718,12.302,0.439c3.367-3.279,3.317-8.792-0.11-12.313
				c0,0,2.097-0.286,5.477,3.448c3.379,3.734,1.989,9.103-3.105,14.065s-24.921,10.472-44.986-9.883
				c-18.39-18.656-12.369-47.581-0.902-61.188c-0.776-0.035-1.553-0.102-2.327-0.2c-4.778-0.603-9.648,1.305-12.006,5.503
				c-10.3,18.337-8.664,46.491,7.911,63.521C27.444,202.829,53.117,205.678,67.093,192.064z"/>
			<path fill="#FED150" d="M169.334,87.84c0.257-19.509-16.066-22.283-18.762-22.32s-16.563,1.781-16.74,15.273
				s11.331,13.223,11.331,13.223c4.914,0.066,8.947-3.689,9.009-8.389s-3.871-8.563-8.785-8.629c0,0,1.281-1.685,6.311-1.434
				c5.03,0.25,7.844,5.03,7.75,12.141c-0.094,7.111-10.217,25.027-38.798,24.822C94.455,112.34,78.259,87.629,76.746,69.9
				c-0.574,0.524-1.17,1.025-1.787,1.504c-3.805,2.952-5.899,7.745-4.598,12.381c5.683,20.25,26.748,39,50.509,39.323
				C148.91,123.488,169.077,107.349,169.334,87.84z"/>
			<g>
				<polygon fill="#FED150" points="124.842,51.656 175.647,0.852 124.842,-49.954 124.842,-121.803 52.993,-121.803 
					2.188,-172.608 -48.617,-121.803 -120.466,-121.803 -120.466,-49.954 -171.271,0.852 -120.466,51.656 -120.466,123.505 
					-48.617,123.505 2.188,174.311 52.993,123.505 124.842,123.505 				"/>
				
					<rect x="-100.532" y="-97.168" transform="matrix(0.7071 0.7071 -0.7071 0.7071 1.8083 1.2219)" fill="#EB3D72" width="199.923" height="199.923"/>
				<polygon opacity="0.8" fill="#EB3D72" points="47.493,96.096 -48.635,96.096 -37.542,107.189 36.4,107.189 				"/>
				<rect x="-100.532" y="-97.168" fill="#612273" width="199.923" height="199.923"/>
				<circle opacity="0.5" fill="#612273" cx="2.7" cy="7.672" r="43.513"/>
				<circle opacity="0.2" fill="#612273" cx="-2.745" cy="-0.911" r="43.513"/>
				<rect x="-100.532" y="94.131" opacity="0.2" fill="#612273" width="199.923" height="8.624"/>
				<g>
					<circle fill="#FED150" cx="-0.022" cy="2.923" r="43.513"/>
					<path fill="#612273" d="M13.181,16.518c2.443-1.026,14.233-8.088,9.169-20.142c-5.064-12.054-15.33-7.294-15.33-7.294
						C2.568-9.047,0.388-4.127,2.152,0.071C3.916,4.27,8.955,6.156,13.408,4.286c0,0-0.501,1.999-5.13,3.752
						C3.648,9.791-0.737,6.651-3.406,0.298s-0.486-26.243,25.345-37.287c0.882-0.377,1.764-0.648,2.646-0.955
						c-2.101-4.472-6.804-6.859-11.476-6.254C-9.159-32.899-19.237-12.294-12.365,4.062C-5.043,21.491,10.738,17.544,13.181,16.518z
						"/>
				</g>
			</g>
			<circle fill="#EB3D72" cx="4.175" cy="259.824" r="29.888"/>
			<circle fill="#FED150" cx="4.175" cy="348.176" r="17.824"/>
			<circle fill="#EB3D72" cx="259.57" cy="4.429" r="29.888"/>
			<circle fill="#FED150" cx="347.922" cy="4.429" r="17.824"/>
			<g>
				<path fill="#FED150" d="M221.918,138.438c0.102-3.063-3.566-4.84-5.941-2.847l-15.927,13.397c-1,0.847-2.381,1.069-3.648,0.575
					l-18.026-7.322c-2.948-1.236-5.903,1.769-4.621,4.697l7.66,17.862c0.56,1.213,0.317,2.642-0.515,3.657l-13.13,16.144
					c-1.954,2.408-0.076,6.004,3.028,5.809l20.725-1.514c1.344-0.093,2.564,0.526,3.29,1.654l10.422,16.83
					c1.66,2.632,5.727,2.051,6.5-1.02l4.588-18.288c0.832-7.707-3.459-11.709-5.58-12.277c-2.391-0.64-4.247-0.086-4.768,1.614
					c-0.521,1.7-0.064,2.282-0.064,2.282c0.449-1.676,2.093-2.691,3.673-2.268c1.58,0.423,2.497,2.125,2.048,3.8
					c0,0-0.908,3.961-5.444,2.747c-4.536-1.214-3.946-6.115-3.7-7.035s2.598-6.268,9.157-4.511
					c4.642,1.243,7.845,5.756,8.416,11.676l18.438-4.952c3.06-0.825,3.612-4.859,0.912-6.516l-16.958-10.186
					c-1.141-0.705-1.778-1.916-1.708-3.261L221.918,138.438z"/>
				<g>
					<path opacity="0.5" fill="#FED150" d="M192.462,188.953l-1.135-1.833c-0.725-1.127-1.945-1.747-3.29-1.653l-20.724,1.514
						c-0.113,0.007-0.221-0.001-0.331-0.004c0.089,1.862,1.653,3.569,3.816,3.433l20.725-1.514
						C191.846,188.873,192.159,188.896,192.462,188.953z"/>
					<path opacity="0.5" fill="#FED150" d="M218.422,134.751c0.003,0.086,0.014,0.17,0.011,0.258l-1.172,20.747
						c-0.07,1.345,0.567,2.557,1.708,3.261l1.852,1.112c-0.063-0.304-0.091-0.62-0.074-0.945l1.172-20.748
						C221.988,136.33,220.272,134.831,218.422,134.751z"/>
				</g>
				<g>
					<path opacity="0.5" fill="#FED150" d="M215.501,180.984c-1.172,0.384-2.066,1.308-2.376,2.515l-4.876,19.432
						c-0.505,2.008-2.417,2.942-4.146,2.619l1.132,1.829c1.66,2.632,5.727,2.051,6.5-1.02l4.589-18.288
						C216.633,185.2,216.239,182.84,215.501,180.984z"/>
					<path opacity="0.5" fill="#FED150" d="M239.412,172.632l-1.832-1.1c0.36,1.726-0.559,3.646-2.566,4.187l-15.848,4.256
						c0.449,1.269,0.753,2.652,0.895,4.124l18.438-4.952C241.56,178.323,242.113,174.289,239.412,172.632z"/>
				</g>
			</g>
			<g>
				
					<line fill="none" stroke="#612273" stroke-width="2" stroke-linecap="round" stroke-miterlimit="10" x1="208.249" y1="82.806" x2="220.715" y2="70.34"/>
				
					<line fill="none" stroke="#612273" stroke-width="2" stroke-linecap="round" stroke-miterlimit="10" x1="220.715" y1="82.806" x2="208.249" y2="70.34"/>
			</g>
			<g>
				
					<line fill="none" stroke="#EB3D72" stroke-width="2" stroke-linecap="round" stroke-miterlimit="10" x1="128.193" y1="216.006" x2="126.853" y2="191.272"/>
				
					<line fill="none" stroke="#EB3D72" stroke-width="2" stroke-linecap="round" stroke-miterlimit="10" x1="139.89" y1="202.969" x2="115.156" y2="204.31"/>
			</g>
			<g>
				
					<line fill="none" stroke="#32C4AA" stroke-width="2" stroke-linecap="round" stroke-miterlimit="10" x1="310.737" y1="56.571" x2="324.646" y2="49.907"/>
				
					<line fill="none" stroke="#32C4AA" stroke-width="2" stroke-linecap="round" stroke-miterlimit="10" x1="321.024" y1="60.194" x2="314.36" y2="46.284"/>
			</g>
			<path fill="none" stroke="#32C4AA" stroke-width="2" stroke-linecap="round" stroke-miterlimit="10" d="M125.14,170.42
				c-1.942,1.942-4.624,3.143-7.587,3.143c-5.926,0-10.73-4.804-10.73-10.729c0-5.926,4.804-10.73,10.73-10.73
				c5.926,0,10.729,4.804,10.729,10.73C128.283,165.796,127.082,168.479,125.14,170.42"/>
			<path fill="none" stroke="#612273" stroke-width="2" stroke-linecap="round" stroke-miterlimit="10" d="M206.865,32.69
				c-1.307,1.307-3.111,2.115-5.105,2.115c-3.987,0-7.22-3.232-7.22-7.22s3.233-7.22,7.22-7.22c3.988,0,7.22,3.232,7.22,7.22
				C208.979,29.578,208.171,31.383,206.865,32.69"/>
		</g>
		<g>
			<path fill="#FED150" d="M195.226,850.132c3.134,8.555,10.717,7.049,11.899,6.616s6.929-3.533,4.762-9.448
				c-2.167-5.916-7.144-3.884-7.144-3.884c-2.155,0.788-3.29,3.098-2.535,5.158s3.113,3.092,5.268,2.304
				c0,0-0.278,0.947-2.515,1.675s-4.259-0.889-5.401-4.007c-1.143-3.118,0.293-12.618,12.796-17.284
				c11.46-4.276,22.637,3.81,26.247,11.293c0.163-0.324,0.34-0.643,0.529-0.954c1.168-1.921,1.285-4.36-0.054-6.166
				c-5.849-7.89-18.158-12.564-28.578-8.752C198.206,831.182,192.092,841.578,195.226,850.132z"/>
			<path fill="#FED150" d="M378.098,885.021c3.84-8.261-2.583-12.563-3.724-13.095c-1.142-0.531-7.396-2.408-10.052,3.305
				s2.298,7.8,2.298,7.8c2.08,0.968,4.517,0.139,5.441-1.851c0.925-1.99-0.012-4.388-2.092-5.356c0,0,0.868-0.473,2.962,0.597
				c2.095,1.068,2.379,3.643,0.979,6.653c-1.399,3.011-9.138,8.707-21.273,3.154c-11.123-5.09-13.296-18.712-10.551-26.554
				c-0.345,0.113-0.694,0.213-1.048,0.299c-2.185,0.53-3.994,2.171-4.327,4.395c-1.451,9.713,3.937,21.729,13.997,26.409
				C362.581,896.301,374.258,893.282,378.098,885.021z"/>
			<path fill="#FED150" d="M212.371,918.475c8.264,3.832,12.562-2.594,13.092-3.736c0.53-1.142,2.402-7.397-3.314-10.048
				c-5.716-2.651-7.797,2.305-7.797,2.305c-0.966,2.081-0.135,4.517,1.855,5.44c1.991,0.923,4.388-0.016,5.354-2.097
				c0,0,0.474,0.867-0.593,2.963s-3.641,2.382-6.653,0.985c-3.012-1.397-8.715-9.13-3.173-21.271
				c5.079-11.127,18.7-13.313,26.544-10.574c-0.114-0.345-0.214-0.694-0.3-1.048c-0.532-2.186-2.174-3.992-4.398-4.323
				c-9.714-1.442-21.724,3.956-26.396,14.021C201.077,902.968,204.106,914.642,212.371,918.475z"/>
			<path fill="#FED150" d="M366.351,813.835c-3.126-8.557-10.71-7.058-11.893-6.626c-1.183,0.432-6.933,3.526-4.771,9.444
				c2.162,5.917,7.14,3.89,7.14,3.89c2.156-0.786,3.292-3.096,2.54-5.156c-0.753-2.062-3.111-3.095-5.266-2.308
				c0,0,0.279-0.948,2.516-1.674c2.237-0.726,4.258,0.894,5.397,4.013c1.139,3.118-0.305,12.618-12.812,17.272
				c-11.464,4.267-22.634-3.829-26.237-11.316c-0.164,0.324-0.34,0.643-0.53,0.953c-1.17,1.92-1.289,4.359,0.048,6.167
				c5.842,7.894,18.147,12.58,28.571,8.777C363.354,832.783,369.477,822.392,366.351,813.835z"/>
			<path fill="#FED150" d="M276.178,953.396c8.554-3.134,7.048-10.717,6.616-11.899c-0.433-1.182-3.533-6.929-9.449-4.762
				c-5.916,2.167-3.884,7.144-3.884,7.144c0.789,2.154,3.098,3.29,5.159,2.535c2.06-0.755,3.091-3.114,2.303-5.269
				c0,0,0.948,0.278,1.676,2.515s-0.89,4.259-4.007,5.401c-3.118,1.142-12.619-0.294-17.284-12.797
				c-4.276-11.46,3.81-22.637,11.292-26.247c-0.324-0.163-0.642-0.34-0.953-0.529c-1.921-1.169-4.36-1.285-6.167,0.054
				c-7.889,5.849-12.564,18.159-8.751,28.579C257.228,950.416,267.624,956.529,276.178,953.396z"/>
			<path fill="#FED150" d="M311.188,773.363c-8.261-3.84-12.564,2.583-13.095,3.725c-0.531,1.142-2.409,7.396,3.305,10.051
				c5.713,2.656,7.799-2.298,7.799-2.298c0.968-2.08,0.14-4.517-1.851-5.441c-1.99-0.925-4.388,0.012-5.355,2.092
				c0,0-0.473-0.867,0.596-2.962c1.068-2.096,3.643-2.38,6.653-0.98c3.011,1.4,8.707,9.139,3.154,21.273
				c-5.089,11.123-18.712,13.297-26.554,10.551c0.113,0.345,0.213,0.694,0.299,1.049c0.53,2.185,2.171,3.994,4.395,4.326
				c9.712,1.451,21.728-3.937,26.409-13.996C322.467,788.881,319.449,777.204,311.188,773.363z"/>
			<path fill="#FED150" d="M339.637,928.493c3.833-8.265-2.594-12.562-3.736-13.092c-1.142-0.53-7.398-2.401-10.048,3.313
				c-2.651,5.716,2.305,7.798,2.305,7.798c2.081,0.966,4.517,0.135,5.44-1.855c0.923-1.991-0.016-4.388-2.097-5.354
				c0,0,0.867-0.474,2.963,0.593c2.096,1.067,2.382,3.641,0.985,6.653c-1.397,3.012-9.13,8.715-21.271,3.173
				c-11.127-5.079-13.313-18.7-10.574-26.545c-0.344,0.114-0.694,0.214-1.048,0.301c-2.185,0.531-3.992,2.174-4.322,4.398
				c-1.442,9.714,3.956,21.725,14.02,26.396C324.13,939.786,335.805,936.758,339.637,928.493z"/>
			<path fill="#FED150" d="M239.119,777.751c-8.557,3.126-7.058,10.711-6.626,11.894s3.526,6.932,9.444,4.771
				c5.917-2.162,3.89-7.141,3.89-7.141c-0.786-2.155-3.095-3.292-5.156-2.539s-3.094,3.11-2.308,5.267c0,0-0.948-0.279-1.673-2.517
				s0.893-4.258,4.012-5.397c3.119-1.14,12.618,0.305,17.273,12.813c4.266,11.463-3.83,22.633-11.316,26.236
				c0.324,0.164,0.642,0.341,0.953,0.53c1.92,1.17,4.359,1.289,6.167-0.049c7.894-5.841,12.581-18.147,8.777-28.57
				C258.066,780.748,247.676,774.625,239.119,777.751z"/>
			<g>
				<polygon fill="#FED150" points="327.583,904.583 358.928,892.629 346.974,861.282 360.686,830.665 330.068,816.953 
					318.114,785.607 286.768,797.562 256.15,783.85 242.438,814.468 211.093,826.422 223.047,857.768 209.335,888.385 
					239.953,902.097 251.907,933.443 283.253,921.488 313.871,935.2 				"/>
				
					<rect x="236.79" y="813.152" transform="matrix(0.3563 0.9344 -0.9344 0.3563 985.8421 288.5832)" fill="#EB3D72" width="93.348" height="93.349"/>
				<polygon opacity="0.8" fill="#EB3D72" points="321.746,829.255 280.781,810.909 287.625,808.299 319.135,822.41 				"/>
				<polygon opacity="0.8" fill="#EB3D72" points="286.14,908.759 245.176,890.414 247.787,897.258 279.296,911.369 				"/>
				
					<rect x="236.79" y="813.153" transform="matrix(0.9127 0.4087 -0.4087 0.9127 376.1965 -40.7591)" fill="#612273" width="93.348" height="93.348"/>
				<circle opacity="0.5" fill="#612273" cx="283.927" cy="862.529" r="20.317"/>
				<circle opacity="0.2" fill="#612273" cx="283.245" cy="857.833" r="20.317"/>
				
					<rect x="263.197" y="853.912" transform="matrix(0.4087 -0.9127 0.9127 0.4087 -665.1211 774.5864)" opacity="0.2" fill="#612273" width="4.026" height="93.348"/>
				<g>
					<circle fill="#FED150" cx="283.673" cy="859.986" r="20.317"/>
					<path fill="#612273" d="M286.706,868.299c1.237,0.029,7.609-0.73,7.751-6.833c0.143-6.103-5.14-6.034-5.14-6.034
						c-2.255-0.053-4.123,1.629-4.172,3.754c-0.05,2.126,1.738,3.892,3.993,3.944c0,0-0.595,0.756-2.903,0.62
						c-2.307-0.137-3.577-2.312-3.501-5.528c0.075-3.217,4.801-11.275,17.917-11.052c0.448,0.007,0.875,0.061,1.31,0.098
						c-0.042-2.307-1.59-4.222-3.697-4.855c-11.646,0.565-19.872,7.423-20.065,15.704
						C277.99,866.94,285.468,868.271,286.706,868.299z"/>
				</g>
			</g>
			
				<rect x="299.695" y="772.415" transform="matrix(0.4087 -0.9127 0.9127 0.4087 -569.1581 759.7062)" opacity="0.2" fill="#612273" width="4.026" height="93.348"/>
			<circle fill="#EB3D72" cx="236.434" cy="970.263" r="13.956"/>
			<circle fill="#FED150" cx="219.573" cy="1007.913" r="8.322"/>
			<circle fill="#EB3D72" cx="333.915" cy="752.595" r="13.956"/>
			<circle fill="#FED150" cx="350.776" cy="714.944" r="8.322"/>
			<circle fill="#EB3D72" cx="176.34" cy="812.688" r="13.956"/>
			<circle fill="#FED150" cx="138.69" cy="795.827" r="8.323"/>
			<circle fill="#EB3D72" cx="394.009" cy="910.169" r="13.955"/>
			<circle fill="#FED150" cx="431.659" cy="927.03" r="8.323"/>
			<g>
				<path fill="#FED150" d="M190.562,916.931c1.43-0.048,2.145-1.812,1.143-2.856l-6.734-7.006
					c-0.425-0.439-0.572-1.076-0.381-1.682l2.854-8.625c0.485-1.411-1.007-2.695-2.332-2.007l-8.084,4.12
					c-0.548,0.298-1.221,0.229-1.72-0.127l-7.927-5.618c-1.182-0.836-2.8,0.15-2.613,1.59l1.346,9.608
					c0.085,0.624-0.166,1.211-0.669,1.584l-7.519,5.376c-1.175,0.854-0.779,2.731,0.676,2.997l8.662,1.572
					c3.616,0.149,5.349-1.974,5.547-2.979c0.225-1.133-0.091-1.98-0.899-2.171c-0.808-0.19-1.065,0.041-1.065,0.041
					c0.794,0.157,1.318,0.892,1.17,1.641c-0.148,0.749-0.913,1.229-1.708,1.072c0,0-1.874-0.301-1.448-2.451
					c0.426-2.151,2.727-2.028,3.163-1.941c0.436,0.086,3,1.017,2.385,4.127c-0.436,2.2-2.439,3.832-5.18,4.281l2.876,8.438
					c0.479,1.399,2.375,1.533,3.064,0.224l4.222-8.216c0.293-0.554,0.837-0.888,1.467-0.896L190.562,916.931z"/>
				<g>
					<path opacity="0.5" fill="#FED150" d="M166.116,904.768l0.819-0.585c0.503-0.373,0.753-0.96,0.668-1.584l-1.346-9.608
						c-0.007-0.053-0.006-0.104-0.008-0.154c-0.865,0.099-1.612,0.88-1.481,1.884l1.346,9.608
						C166.134,904.479,166.133,904.625,166.116,904.768z"/>
					<path opacity="0.5" fill="#FED150" d="M192.171,915.188c-0.04,0.004-0.079,0.012-0.12,0.013l-9.702,0.096
						c-0.629,0.009-1.174,0.343-1.466,0.896l-0.461,0.896c0.14-0.038,0.286-0.062,0.438-0.063l9.702-0.095
						C191.546,916.897,192.191,916.052,192.171,915.188z"/>
				</g>
				<g>
					<path opacity="0.5" fill="#FED150" d="M170.541,915.256c-0.215-0.534-0.673-0.923-1.245-1.03l-9.204-1.671
						c-0.951-0.173-1.446-1.035-1.349-1.851l-0.817,0.584c-1.175,0.854-0.779,2.731,0.676,2.997l8.663,1.572
						C168.612,915.913,169.699,915.656,170.541,915.256z"/>
					<path opacity="0.5" fill="#FED150" d="M175.171,926.138l0.456-0.888c-0.793,0.222-1.716-0.147-2.03-1.066l-2.473-7.252
						c-0.577,0.249-1.212,0.434-1.894,0.545l2.876,8.438C172.586,927.313,174.482,927.447,175.171,926.138z"/>
				</g>
			</g>
			<g>
				<path fill="#FED150" d="M352.389,960.09c0.628-1.285-0.596-2.743-1.988-2.347l-9.344,2.67c-0.587,0.17-1.219,0.001-1.665-0.451
					l-6.284-6.561c-1.02-1.089-2.853-0.373-2.865,1.12l-0.145,9.073c0.007,0.624-0.369,1.187-0.917,1.46l-8.676,4.374
					c-1.292,0.652-1.178,2.544,0.182,3.053l9.12,3.31c0.591,0.217,0.993,0.714,1.086,1.333l1.229,9.161
					c0.205,1.438,2.049,1.967,2.964,0.806l5.446-6.918c1.825-3.125,0.76-5.649-0.035-6.296c-0.897-0.729-1.793-0.848-2.34-0.223
					s-0.463,0.961-0.463,0.961c0.511-0.629,1.406-0.748,1.998-0.266c0.593,0.481,0.659,1.382,0.148,2.01
					c0,0-1.143,1.515-2.844,0.132s-0.515-3.359-0.234-3.704s2.303-2.175,4.763-0.175c1.741,1.416,2.245,3.95,1.358,6.582
					l8.802,1.408c1.461,0.232,2.467-1.381,1.632-2.603l-5.282-7.576c-0.352-0.519-0.393-1.156-0.106-1.716L352.389,960.09z"/>
				<g>
					<path opacity="0.5" fill="#FED150" d="M330.196,975.995l-0.134-0.998c-0.094-0.618-0.496-1.115-1.086-1.332l-9.121-3.31
						c-0.049-0.019-0.094-0.043-0.14-0.065c-0.317,0.811,0.023,1.837,0.972,2.191l9.12,3.31
						C329.949,975.844,330.078,975.913,330.196,975.995z"/>
					<path opacity="0.5" fill="#FED150" d="M351.603,957.852c-0.015,0.037-0.026,0.075-0.044,0.112l-4.459,8.617
						c-0.287,0.561-0.247,1.198,0.105,1.716l0.577,0.827c0.031-0.142,0.08-0.281,0.148-0.416l4.459-8.618
						C352.821,959.205,352.376,958.239,351.603,957.852z"/>
				</g>
				<g>
					<path opacity="0.5" fill="#FED150" d="M341.535,976.996c-0.573-0.06-1.13,0.163-1.493,0.618l-5.787,7.351
						c-0.598,0.759-1.592,0.792-2.267,0.324l0.134,0.996c0.205,1.438,2.049,1.967,2.964,0.806l5.446-6.918
						C341.213,979.009,341.495,977.928,341.535,976.996z"/>
					<path opacity="0.5" fill="#FED150" d="M353.318,978l-0.57-0.818c-0.176,0.805-0.934,1.447-1.893,1.295l-7.565-1.211
						c-0.051,0.627-0.185,1.274-0.406,1.929l8.802,1.408C353.147,980.835,354.153,979.222,353.318,978z"/>
				</g>
			</g>
			<g>
				<path fill="#FED150" d="M391.079,817.085c-0.83,1.165,0.138,2.804,1.577,2.641l9.655-1.103c0.607-0.071,1.203,0.198,1.568,0.718
					l5.125,7.501c0.828,1.242,2.753,0.836,3.01-0.635l1.629-8.927c0.095-0.617,0.558-1.11,1.144-1.29l9.276-2.894
					c1.382-0.433,1.579-2.316,0.321-3.042l-8.455-4.759c-0.547-0.312-0.862-0.867-0.853-1.492l0.288-9.239
					c0.033-1.452-1.699-2.276-2.792-1.28l-6.505,5.932c-2.313,2.784-1.676,5.449-0.998,6.217c0.765,0.866,1.63,1.13,2.272,0.603
					c0.641-0.526,0.614-0.871,0.614-0.871c-0.607,0.536-1.509,0.507-2.015-0.065c-0.506-0.572-0.423-1.472,0.184-2.008
					c0,0,1.375-1.307,2.827,0.336c1.452,1.644-0.042,3.398-0.376,3.692c-0.333,0.295-2.628,1.769-4.727-0.607
					c-1.485-1.682-1.567-4.265-0.261-6.715l-8.453-2.832c-1.403-0.469-2.66,0.958-2.036,2.3l3.969,8.34
					c0.262,0.568,0.198,1.204-0.177,1.71L391.079,817.085z"/>
				<g>
					<path opacity="0.5" fill="#FED150" d="M415.578,805.03l-0.032,1.007c-0.009,0.626,0.306,1.182,0.854,1.492l8.455,4.76
						c0.046,0.026,0.086,0.058,0.128,0.087c0.446-0.748,0.278-1.815-0.599-2.321l-8.455-4.759
						C415.797,805.221,415.681,805.131,415.578,805.03z"/>
					<path opacity="0.5" fill="#FED150" d="M391.488,819.422c0.021-0.034,0.039-0.07,0.063-0.104l5.811-7.771
						c0.375-0.505,0.439-1.142,0.177-1.71l-0.434-0.91c-0.054,0.135-0.125,0.265-0.215,0.387l-5.811,7.771
						C390.507,817.887,390.789,818.913,391.488,819.422z"/>
				</g>
				<g>
					<path opacity="0.5" fill="#FED150" d="M404.557,802.186c0.555,0.153,1.142,0.024,1.573-0.365l6.913-6.303
						c0.715-0.651,1.7-0.521,2.289,0.051l0.032-1.004c0.033-1.452-1.699-2.276-2.792-1.28l-6.505,5.932
						C405.204,800.253,404.748,801.273,404.557,802.186z"/>
					<path opacity="0.5" fill="#FED150" d="M393.097,799.265l0.429,0.9c0.305-0.765,1.158-1.274,2.079-0.967l7.265,2.434
						c0.153-0.609,0.392-1.227,0.716-1.835l-8.453-2.832C393.73,796.496,392.474,797.923,393.097,799.265z"/>
				</g>
			</g>
			<g>
				<path fill="#FED150" d="M239.149,763.688c1.174,0.817,2.802-0.168,2.624-1.605l-1.207-9.643
					c-0.078-0.606,0.185-1.204,0.701-1.575l7.445-5.205c1.233-0.842,0.805-2.763-0.668-3.003l-8.944-1.533
					c-0.618-0.089-1.116-0.546-1.303-1.13l-2.993-9.244c-0.447-1.377-2.333-1.554-3.045-0.287l-4.667,8.506
					c-0.305,0.55-0.857,0.871-1.483,0.869l-9.241-0.188c-1.453-0.018-2.258,1.724-1.25,2.806l6.002,6.441
					c2.809,2.282,5.467,1.616,6.228,0.93c0.858-0.774,1.112-1.643,0.578-2.278c-0.534-0.636-0.878-0.604-0.878-0.604
					c0.542,0.602,0.523,1.504-0.044,2.016s-1.466,0.439-2.009-0.162c0,0-1.322-1.361,0.306-2.83c1.627-1.47,3.398,0.006,3.696,0.335
					c0.298,0.33,1.796,2.609-0.557,4.734c-1.666,1.503-4.247,1.613-6.712,0.333l-2.741,8.483c-0.453,1.408,0.987,2.649,2.322,2.011
					l8.296-4.059c0.566-0.269,1.202-0.211,1.712,0.158L239.149,763.688z"/>
				<g>
					<path opacity="0.5" fill="#FED150" d="M226.83,739.321l1.006,0.021c0.626,0.002,1.178-0.318,1.483-0.869l4.667-8.506
						c0.026-0.046,0.057-0.086,0.085-0.129c-0.752-0.438-1.818-0.258-2.314,0.625l-4.667,8.506
						C227.018,739.101,226.929,739.218,226.83,739.321z"/>
					<path opacity="0.5" fill="#FED150" d="M241.481,763.254c-0.035-0.021-0.07-0.037-0.104-0.061l-7.833-5.727
						c-0.509-0.369-1.146-0.427-1.711-0.158l-0.906,0.443c0.135,0.053,0.266,0.121,0.389,0.211l7.833,5.726
						C239.957,764.251,240.98,763.959,241.481,763.254z"/>
				</g>
				<g>
					<path opacity="0.5" fill="#FED150" d="M224.104,750.373c0.147-0.557,0.012-1.142-0.382-1.569l-6.377-6.844
						c-0.659-0.708-0.54-1.694,0.026-2.29l-1.004-0.021c-1.453-0.018-2.258,1.724-1.25,2.806l6.002,6.441
						C222.165,749.747,223.19,750.191,224.104,750.373z"/>
					<path opacity="0.5" fill="#FED150" d="M221.308,761.863l0.896-0.438c-0.768-0.297-1.287-1.145-0.99-2.068l2.355-7.291
						c-0.611-0.146-1.231-0.378-1.843-0.696l-2.741,8.483C218.532,761.261,219.973,762.502,221.308,761.863z"/>
				</g>
			</g>
			<g>
				
					<line fill="none" stroke="#612273" stroke-width="2" stroke-linecap="round" stroke-miterlimit="10" x1="408.511" y1="875.068" x2="419.317" y2="870.946"/>
				
					<line fill="none" stroke="#612273" stroke-width="2" stroke-linecap="round" stroke-miterlimit="10" x1="415.975" y1="878.41" x2="411.854" y2="867.604"/>
			</g>
			<g>
				
					<line fill="none" stroke="#612273" stroke-width="2" stroke-linecap="round" stroke-miterlimit="10" x1="142.988" y1="834.743" x2="150.68" y2="831.81"/>
				
					<line fill="none" stroke="#612273" stroke-width="2" stroke-linecap="round" stroke-miterlimit="10" x1="148.301" y1="837.122" x2="145.368" y2="829.431"/>
			</g>
			<g>
				
					<line fill="none" stroke="#612273" stroke-width="2" stroke-linecap="round" stroke-miterlimit="10" x1="357.181" y1="933.774" x2="364.873" y2="930.841"/>
				
					<line fill="none" stroke="#612273" stroke-width="2" stroke-linecap="round" stroke-miterlimit="10" x1="362.493" y1="936.153" x2="359.56" y2="928.462"/>
			</g>
			<g>
				
					<line fill="none" stroke="#612273" stroke-width="2" stroke-linecap="round" stroke-miterlimit="10" x1="274.959" y1="769.879" x2="285.766" y2="765.758"/>
				
					<line fill="none" stroke="#612273" stroke-width="2" stroke-linecap="round" stroke-miterlimit="10" x1="282.423" y1="773.222" x2="278.302" y2="762.415"/>
			</g>
			<g>
				
					<line fill="none" stroke="#32C4AA" stroke-width="2" stroke-linecap="round" stroke-miterlimit="10" x1="206.026" y1="799.862" x2="216.833" y2="795.741"/>
				
					<line fill="none" stroke="#32C4AA" stroke-width="2" stroke-linecap="round" stroke-miterlimit="10" x1="213.49" y1="803.205" x2="209.369" y2="792.398"/>
			</g>
			<g>
				
					<line fill="none" stroke="#EB3D72" stroke-width="2" stroke-linecap="round" stroke-miterlimit="10" x1="297.646" y1="975.258" x2="301.795" y2="964.463"/>
				
					<line fill="none" stroke="#EB3D72" stroke-width="2" stroke-linecap="round" stroke-miterlimit="10" x1="305.118" y1="971.936" x2="294.322" y2="967.786"/>
			</g>
			<g>
				
					<line fill="none" stroke="#32C4AA" stroke-width="2" stroke-linecap="round" stroke-miterlimit="10" x1="169.939" y1="862.379" x2="174.088" y2="851.584"/>
				
					<line fill="none" stroke="#32C4AA" stroke-width="2" stroke-linecap="round" stroke-miterlimit="10" x1="177.412" y1="859.056" x2="166.616" y2="854.907"/>
			</g>
			<g>
				
					<line fill="none" stroke="#32C4AA" stroke-width="2" stroke-linecap="round" stroke-miterlimit="10" x1="405.862" y1="942.153" x2="413.062" y2="941.969"/>
				
					<line fill="none" stroke="#32C4AA" stroke-width="2" stroke-linecap="round" stroke-miterlimit="10" x1="409.554" y1="945.661" x2="409.369" y2="938.462"/>
			</g>
			<g>
				
					<line fill="none" stroke="#612273" stroke-width="2" stroke-linecap="round" stroke-miterlimit="10" x1="206.165" y1="936.435" x2="211.358" y2="929.686"/>
				
					<line fill="none" stroke="#612273" stroke-width="2" stroke-linecap="round" stroke-miterlimit="10" x1="212.137" y1="935.656" x2="205.387" y2="930.463"/>
			</g>
			<g>
				
					<line fill="none" stroke="#32C4AA" stroke-width="2" stroke-linecap="round" stroke-miterlimit="10" x1="377.706" y1="837.307" x2="382.899" y2="830.558"/>
				
					<line fill="none" stroke="#32C4AA" stroke-width="2" stroke-linecap="round" stroke-miterlimit="10" x1="383.677" y1="836.528" x2="376.928" y2="831.335"/>
			</g>
			<path fill="none" stroke="#EB3D72" stroke-width="2" stroke-linecap="round" stroke-miterlimit="10" d="M214.686,958.717
				c-1.198,0.457-2.57,0.457-3.833-0.108c-2.525-1.131-3.656-4.095-2.525-6.62s4.095-3.655,6.62-2.524s3.656,4.095,2.525,6.62
				C216.908,957.347,215.884,958.26,214.686,958.717"/>
			<path fill="none" stroke="#612273" stroke-width="2" stroke-linecap="round" stroke-miterlimit="10" d="M220.097,780.181
				c-1.198,0.457-2.57,0.457-3.833-0.108c-2.525-1.132-3.656-4.096-2.524-6.621c1.131-2.524,4.095-3.655,6.62-2.524
				c2.525,1.131,3.656,4.095,2.525,6.62C222.318,778.81,221.294,779.724,220.097,780.181"/>
			<path fill="none" stroke="#EB3D72" stroke-width="2" stroke-linecap="round" stroke-miterlimit="10" d="M385.856,865.245
				c-1.198,0.457-2.57,0.456-3.833-0.109c-2.525-1.131-3.655-4.095-2.524-6.62c1.131-2.524,4.095-3.655,6.62-2.524
				s3.656,4.095,2.524,6.62C388.078,863.874,387.055,864.788,385.856,865.245"/>
			<path fill="none" stroke="#EB3D72" stroke-width="2" stroke-linecap="round" stroke-miterlimit="10" d="M336.75,792.651
				c-1.198,0.457-2.57,0.457-3.833-0.108c-2.525-1.132-3.656-4.096-2.525-6.621c1.131-2.524,4.095-3.655,6.62-2.524
				s3.656,4.095,2.525,6.62C338.973,791.28,337.949,792.194,336.75,792.651"/>
			<path fill="none" stroke="#32C4AA" stroke-width="2" stroke-linecap="round" stroke-miterlimit="10" d="M305.044,955.25
				c-1.198,0.457-2.57,0.456-3.833-0.109c-2.525-1.131-3.656-4.095-2.524-6.62c1.131-2.524,4.095-3.655,6.62-2.524
				c2.525,1.131,3.656,4.095,2.525,6.62C307.266,953.879,306.243,954.793,305.044,955.25"/>
			<path fill="none" stroke="#EB3D72" stroke-width="2" stroke-linecap="round" stroke-miterlimit="10" d="M224.869,938.88
				c-0.806,0.308-1.729,0.308-2.579-0.073c-1.699-0.761-2.46-2.755-1.699-4.454c0.761-1.699,2.755-2.46,4.455-1.699
				s2.46,2.756,1.699,4.455C226.364,937.958,225.675,938.572,224.869,938.88"/>
			<path fill="none" stroke="#612273" stroke-width="2" stroke-linecap="round" stroke-miterlimit="10" d="M366.155,912.154
				c-0.806,0.307-1.729,0.307-2.579-0.073c-1.699-0.762-2.46-2.756-1.699-4.455c0.761-1.699,2.755-2.46,4.455-1.699
				c1.699,0.762,2.46,2.756,1.699,4.455C367.65,911.231,366.961,911.847,366.155,912.154"/>
			<path fill="none" stroke="#612273" stroke-width="2" stroke-linecap="round" stroke-miterlimit="10" d="M336.99,805.827
				c-0.806,0.308-1.729,0.308-2.579-0.073c-1.699-0.761-2.46-2.755-1.699-4.454s2.755-2.46,4.455-1.699s2.46,2.756,1.699,4.455
				C338.485,804.905,337.796,805.52,336.99,805.827"/>
			<path fill="none" stroke="#EB3D72" stroke-width="2" stroke-linecap="round" stroke-miterlimit="10" d="M275.453,785.777
				c-0.806,0.308-1.729,0.307-2.579-0.073c-1.699-0.761-2.46-2.756-1.699-4.455c0.761-1.699,2.755-2.46,4.455-1.698
				c1.699,0.761,2.46,2.755,1.699,4.454C276.948,784.854,276.259,785.47,275.453,785.777"/>
			<path fill="none" stroke="#EB3D72" stroke-width="2" stroke-linecap="round" stroke-miterlimit="10" d="M185.443,840.914
				c-0.806,0.308-1.729,0.308-2.579-0.073c-1.699-0.761-2.46-2.756-1.699-4.455c0.761-1.699,2.755-2.46,4.455-1.698
				c1.699,0.761,2.46,2.755,1.699,4.454C186.938,839.991,186.25,840.606,185.443,840.914"/>
		</g>
		<g>
			<g>
				
					<line fill="none" stroke="#EB3D72" stroke-width="2" stroke-linecap="round" stroke-miterlimit="10" x1="341.581" y1="595.308" x2="323.963" y2="596.262"/>
				
					<line fill="none" stroke="#EB3D72" stroke-width="2" stroke-linecap="round" stroke-miterlimit="10" x1="332.294" y1="586.976" x2="333.249" y2="604.594"/>
			</g>
			<path fill="none" stroke="#612273" stroke-width="2" stroke-linecap="round" stroke-miterlimit="10" d="M339.626,559.18
				c0.767-1.8,2.22-3.306,4.179-4.094c3.916-1.575,8.368,0.323,9.943,4.239c1.575,3.916-0.323,8.367-4.239,9.942
				s-8.368-0.322-9.943-4.238C338.778,563.07,338.859,560.979,339.626,559.18"/>
			<path fill="none" stroke="#EB3D72" stroke-width="2" stroke-linecap="round" stroke-miterlimit="10" d="M370.131,522.574
				c0.931,0.931,1.506,2.216,1.506,3.637c0,2.84-2.303,5.143-5.143,5.143s-5.143-2.302-5.143-5.143c0-2.841,2.303-5.143,5.143-5.143
				C367.914,521.068,369.2,521.644,370.131,522.574"/>
			<path fill="none" stroke="#32C4AA" stroke-width="2" stroke-linecap="round" stroke-miterlimit="10" d="M355.637,621.993
				c1.383,1.383,2.238,3.294,2.238,5.404c0,4.221-3.422,7.643-7.643,7.643c-4.221,0-7.643-3.422-7.643-7.643
				s3.422-7.643,7.643-7.643C352.343,619.755,354.253,620.61,355.637,621.993"/>
			<path fill="none" stroke="#EB3D72" stroke-width="2" stroke-linecap="round" stroke-miterlimit="10" d="M294.525,608.944
				c2.015,2.015,3.261,4.798,3.261,7.872c0,6.148-4.985,11.133-11.133,11.133c-6.149,0-11.133-4.984-11.133-11.133
				s4.984-11.133,11.133-11.133C289.728,605.684,292.511,606.93,294.525,608.944"/>
			<g>
				
					<line fill="none" stroke="#612273" stroke-width="2" stroke-linecap="round" stroke-miterlimit="10" x1="312.828" y1="668.815" x2="303.948" y2="659.936"/>
				
					<line fill="none" stroke="#612273" stroke-width="2" stroke-linecap="round" stroke-miterlimit="10" x1="312.828" y1="659.936" x2="303.948" y2="668.815"/>
			</g>
			<g>
				
					<line fill="none" stroke="#32C4AA" stroke-width="2" stroke-linecap="round" stroke-miterlimit="10" x1="312.877" y1="563.172" x2="296.202" y2="557.408"/>
				
					<line fill="none" stroke="#32C4AA" stroke-width="2" stroke-linecap="round" stroke-miterlimit="10" x1="307.422" y1="551.952" x2="301.658" y2="568.628"/>
			</g>
		</g>
		<g>
			<g>
				
					<line fill="none" stroke="#EB3D72" stroke-width="4" stroke-linecap="round" stroke-miterlimit="10" x1="1651.961" y1="178.922" x2="1684.299" y2="209.361"/>
				
					<line fill="none" stroke="#EB3D72" stroke-width="4" stroke-linecap="round" stroke-miterlimit="10" x1="1652.91" y1="210.311" x2="1683.35" y2="177.973"/>
			</g>
			<path fill="none" stroke="#612273" stroke-width="4" stroke-linecap="round" stroke-miterlimit="10" d="M1589.535,245.231
				c-4.61,1.728-9.88,1.696-14.716-0.503c-9.671-4.399-13.944-15.806-9.546-25.477c4.399-9.671,15.806-13.945,25.477-9.546
				c9.672,4.399,13.945,15.805,9.547,25.477C1598.097,240.018,1594.146,243.504,1589.535,245.231"/>
			<path fill="none" stroke="#EB3D72" stroke-width="4" stroke-linecap="round" stroke-miterlimit="10" d="M1469.864,253.234
				c0.079-3.312,1.422-6.594,4.009-9.061c5.175-4.933,13.369-4.737,18.303,0.438c4.933,5.174,4.737,13.369-0.438,18.302
				c-5.175,4.934-13.369,4.738-18.303-0.437C1470.97,259.889,1469.785,256.546,1469.864,253.234"/>
			<path fill="none" stroke="#32C4AA" stroke-width="4" stroke-linecap="round" stroke-miterlimit="10" d="M1676.166,106.966
				c0.117-4.922,2.112-9.799,5.957-13.465c7.69-7.332,19.868-7.041,27.199,0.649c7.331,7.69,7.041,19.868-0.649,27.199
				c-7.69,7.331-19.868,7.04-27.199-0.65C1677.809,116.854,1676.048,111.888,1676.166,106.966"/>
			<path fill="none" stroke="#EB3D72" stroke-width="4" stroke-linecap="round" stroke-miterlimit="10" d="M1758.531,240.965
				c0.172-7.17,3.078-14.274,8.68-19.614c11.202-10.679,28.94-10.255,39.62,0.947c10.679,11.202,10.255,28.94-0.947,39.62
				c-11.202,10.679-28.94,10.255-39.62-0.947C1760.924,255.37,1758.36,248.135,1758.531,240.965"/>
			<g>
				
					<line fill="none" stroke="#612273" stroke-width="4" stroke-linecap="round" stroke-miterlimit="10" x1="1835.82" y1="103.634" x2="1835.065" y2="135.235"/>
				
					<line fill="none" stroke="#612273" stroke-width="4" stroke-linecap="round" stroke-miterlimit="10" x1="1819.643" y1="119.057" x2="1851.243" y2="119.812"/>
			</g>
			<g>
				
					<line fill="none" stroke="#32C4AA" stroke-width="4" stroke-linecap="round" stroke-miterlimit="10" x1="1643.268" y1="287.029" x2="1661.729" y2="327.421"/>
				
					<line fill="none" stroke="#32C4AA" stroke-width="4" stroke-linecap="round" stroke-miterlimit="10" x1="1632.303" y1="316.456" x2="1672.694" y2="297.994"/>
			</g>
		</g>
		<g>
			<g>
				
					<line fill="none" stroke="#EB3D72" stroke-width="4" stroke-linecap="round" stroke-miterlimit="10" x1="497.961" y1="999.922" x2="530.299" y2="1030.361"/>
				
					<line fill="none" stroke="#EB3D72" stroke-width="4" stroke-linecap="round" stroke-miterlimit="10" x1="498.91" y1="1031.311" x2="529.35" y2="998.973"/>
			</g>
			<path fill="none" stroke="#612273" stroke-width="4" stroke-linecap="round" stroke-miterlimit="10" d="M435.535,1066.231
				c-4.61,1.728-9.88,1.696-14.715-0.504c-9.671-4.398-13.945-15.806-9.546-25.477c4.399-9.671,15.806-13.945,25.477-9.546
				s13.945,15.806,9.546,25.477C444.097,1061.018,440.146,1064.504,435.535,1066.231"/>
			<path fill="none" stroke="#EB3D72" stroke-width="4" stroke-linecap="round" stroke-miterlimit="10" d="M315.864,1074.234
				c0.079-3.313,1.421-6.594,4.009-9.061c5.175-4.934,13.369-4.737,18.302,0.438c4.934,5.175,4.738,13.369-0.437,18.302
				c-5.175,4.934-13.369,4.737-18.302-0.437C316.969,1080.889,315.785,1077.547,315.864,1074.234"/>
			<path fill="none" stroke="#32C4AA" stroke-width="4" stroke-linecap="round" stroke-miterlimit="10" d="M522.166,927.966
				c0.118-4.922,2.113-9.8,5.958-13.465c7.69-7.331,19.868-7.041,27.199,0.649c7.332,7.69,7.041,19.867-0.649,27.199
				c-7.69,7.331-19.868,7.04-27.199-0.65C523.808,937.854,522.048,932.888,522.166,927.966"/>
			<path fill="none" stroke="#EB3D72" stroke-width="4" stroke-linecap="round" stroke-miterlimit="10" d="M604.532,1061.965
				c0.171-7.169,3.078-14.273,8.679-19.613c11.202-10.68,28.941-10.256,39.62,0.946c10.68,11.202,10.256,28.94-0.946,39.62
				s-28.941,10.256-39.62-0.946C606.924,1076.37,604.36,1069.135,604.532,1061.965"/>
			<g>
				
					<line fill="none" stroke="#612273" stroke-width="4" stroke-linecap="round" stroke-miterlimit="10" x1="681.82" y1="924.635" x2="681.065" y2="956.234"/>
				
					<line fill="none" stroke="#612273" stroke-width="4" stroke-linecap="round" stroke-miterlimit="10" x1="665.643" y1="940.057" x2="697.243" y2="940.813"/>
			</g>
		</g>
		<g>
			<g>
				
					<line fill="none" stroke="#EB3D72" stroke-width="4" stroke-linecap="round" stroke-miterlimit="10" x1="102.063" y1="1050.074" x2="115.197" y2="1062.437"/>
				
					<line fill="none" stroke="#EB3D72" stroke-width="4" stroke-linecap="round" stroke-miterlimit="10" x1="102.448" y1="1062.822" x2="114.811" y2="1049.688"/>
			</g>
			<path fill="none" stroke="#612273" stroke-width="4" stroke-linecap="round" stroke-miterlimit="10" d="M76.708,1077.005
				c-1.872,0.702-4.013,0.688-5.977-0.204c-3.928-1.787-5.664-6.42-3.877-10.348s6.419-5.664,10.347-3.877
				c3.928,1.786,5.664,6.419,3.877,10.348C80.186,1074.888,78.581,1076.304,76.708,1077.005"/>
			<path fill="none" stroke="#EB3D72" stroke-width="4" stroke-linecap="round" stroke-miterlimit="10" d="M28.105,1080.255
				c0.032-1.345,0.577-2.678,1.628-3.68c2.102-2.003,5.43-1.924,7.434,0.178s1.924,5.43-0.178,7.434
				c-2.102,2.003-5.43,1.924-7.433-0.178C28.554,1082.958,28.073,1081.601,28.105,1080.255"/>
			<path fill="none" stroke="#32C4AA" stroke-width="4" stroke-linecap="round" stroke-miterlimit="10" d="M111.893,1020.849
				c0.048-1.999,0.858-3.979,2.42-5.469c3.124-2.978,8.069-2.859,11.047,0.265c2.978,3.123,2.859,8.068-0.264,11.047
				c-3.124,2.977-8.069,2.859-11.046-0.265C112.56,1024.865,111.845,1022.848,111.893,1020.849"/>
			<path fill="none" stroke="#EB3D72" stroke-width="4" stroke-linecap="round" stroke-miterlimit="10" d="M145.346,1075.272
				c0.07-2.912,1.25-5.798,3.525-7.966c4.55-4.338,11.754-4.166,16.092,0.384s4.165,11.754-0.385,16.092
				c-4.55,4.337-11.754,4.165-16.091-0.385C146.317,1081.123,145.276,1078.185,145.346,1075.272"/>
			<g>
				
					<line fill="none" stroke="#612273" stroke-width="4" stroke-linecap="round" stroke-miterlimit="10" x1="176.736" y1="1019.496" x2="176.43" y2="1032.33"/>
				
					<line fill="none" stroke="#612273" stroke-width="4" stroke-linecap="round" stroke-miterlimit="10" x1="170.166" y1="1025.76" x2="183" y2="1026.066"/>
			</g>
		</g>
		<g>
			<g>
				
					<line fill="none" stroke="#EB3D72" stroke-width="4" stroke-linecap="round" stroke-miterlimit="10" x1="1248.961" y1="1062.922" x2="1281.299" y2="1093.361"/>
				
					<line fill="none" stroke="#EB3D72" stroke-width="4" stroke-linecap="round" stroke-miterlimit="10" x1="1249.91" y1="1094.311" x2="1280.35" y2="1061.973"/>
			</g>
			<path fill="none" stroke="#32C4AA" stroke-width="4" stroke-linecap="round" stroke-miterlimit="10" d="M1273.166,990.966
				c0.117-4.922,2.112-9.8,5.957-13.465c7.69-7.331,19.868-7.041,27.199,0.649s7.041,19.867-0.649,27.199
				c-7.69,7.331-19.868,7.04-27.199-0.65C1274.809,1000.854,1273.048,995.888,1273.166,990.966"/>
			<g>
				
					<line fill="none" stroke="#612273" stroke-width="4" stroke-linecap="round" stroke-miterlimit="10" x1="1432.82" y1="987.635" x2="1432.065" y2="1019.234"/>
				
					<line fill="none" stroke="#612273" stroke-width="4" stroke-linecap="round" stroke-miterlimit="10" x1="1416.643" y1="1003.057" x2="1448.243" y2="1003.813"/>
			</g>
		</g>
		<g>
			<g>
				
					<line fill="none" stroke="#EB3D72" stroke-width="4" stroke-linecap="round" stroke-miterlimit="10" x1="930.542" y1="1008.026" x2="903.901" y2="985.628"/>
				
					<line fill="none" stroke="#EB3D72" stroke-width="4" stroke-linecap="round" stroke-miterlimit="10" x1="928.421" y1="983.507" x2="906.022" y2="1010.147"/>
			</g>
			<path fill="none" stroke="#612273" stroke-width="4" stroke-linecap="round" stroke-miterlimit="10" d="M976.479,953.4
				c3.531-1.554,7.656-1.761,11.537-0.252c7.761,3.018,11.605,11.756,8.588,19.517c-3.019,7.761-11.756,11.605-19.517,8.588
				s-11.605-11.756-8.588-19.517C970.008,957.856,972.946,954.955,976.479,953.4"/>
			<path fill="none" stroke="#EB3D72" stroke-width="4" stroke-linecap="round" stroke-miterlimit="10" d="M1069.769,941.886
				c0.083,2.595-0.823,5.222-2.739,7.266c-3.833,4.087-10.253,4.294-14.341,0.461c-4.087-3.832-4.294-10.253-0.461-14.34
				c3.833-4.088,10.253-4.294,14.341-0.462C1068.611,936.728,1069.686,939.29,1069.769,941.886"/>
			<path fill="none" stroke="#32C4AA" stroke-width="4" stroke-linecap="round" stroke-miterlimit="10" d="M914.76,1065.395
				c0.124,3.856-1.223,7.76-4.071,10.797c-5.696,6.074-15.237,6.381-21.312,0.686s-6.381-15.237-0.685-21.312
				c5.695-6.074,15.237-6.381,21.311-0.685C913.041,1057.729,914.636,1061.537,914.76,1065.395"/>
			<path fill="none" stroke="#EB3D72" stroke-width="4" stroke-linecap="round" stroke-miterlimit="10" d="M844.428,964.156
				c0.181,5.617-1.782,11.305-5.93,15.729c-8.297,8.849-22.195,9.295-31.044,0.998c-8.848-8.297-9.295-22.195-0.998-31.044
				c8.297-8.848,22.195-9.295,31.043-0.998C841.923,952.989,844.247,958.538,844.428,964.156"/>
			<g>
				
					<line fill="none" stroke="#612273" stroke-width="4" stroke-linecap="round" stroke-miterlimit="10" x1="789.978" y1="1075.008" x2="789.182" y2="1050.248"/>
				
					<line fill="none" stroke="#612273" stroke-width="4" stroke-linecap="round" stroke-miterlimit="10" x1="801.96" y1="1062.23" x2="777.2" y2="1063.026"/>
			</g>
			<g>
				
					<line fill="none" stroke="#32C4AA" stroke-width="4" stroke-linecap="round" stroke-miterlimit="10" x1="932.599" y1="923.053" x2="916.38" y2="892.257"/>
				
					<line fill="none" stroke="#32C4AA" stroke-width="4" stroke-linecap="round" stroke-miterlimit="10" x1="939.887" y1="899.545" x2="909.092" y2="915.764"/>
			</g>
		</g>
	</g>
</g>
<g>
	<path fill="#FED150" d="M704.944,548.098h-15.538l-2.795-11.838c-0.11-0.438-0.288-1.192-0.534-2.261s-0.535-1.863-0.863-2.384
		c-0.329-0.52-0.795-0.863-1.397-1.027c-1.535,0.055-3.782,0.082-6.741,0.082v17.428h-14.798v-46.449
		c6.631-0.493,12.825-0.74,18.58-0.74c5.206,0,9.426,0.425,12.66,1.274c3.233,0.85,5.659,2.302,7.276,4.357
		c1.616,2.055,2.425,4.865,2.425,8.427c0,3.344-0.769,5.96-2.302,7.851c-1.535,1.891-4.001,3.029-7.399,3.412v0.493
		c1.918,0.165,3.521,0.781,4.81,1.85c1.287,1.068,2.15,2.425,2.589,4.069L704.944,548.098z M679.952,521.462
		c4.22,0,6.687-0.356,7.399-1.069c0.658-0.658,0.986-2.191,0.986-4.604c0-2.247-0.59-3.781-1.768-4.604
		c-1.179-0.822-3.111-1.233-5.796-1.233c-0.604,0-1.837,0.055-3.699,0.165v11.263C677.568,521.435,678.526,521.462,679.952,521.462z
		"/>
	<path fill="#FED150" d="M731.744,548.098l-1.315-5.179c-2.521,4.11-6.03,6.165-10.523,6.165c-3.672,0-6.673-1.027-9.002-3.082
		c-2.331-2.056-3.494-4.946-3.494-8.673c0-2.302,0.67-4.316,2.014-6.042c1.342-1.727,3.192-2.946,5.549-3.659
		c3.069-0.876,7.81-1.369,14.222-1.479c0-3.617-0.164-5.535-0.493-5.755c-0.275-0.218-1.151-0.329-2.631-0.329
		c-0.932,0-2.219,0.055-3.864,0.164c-2.631,0.111-6.194,0.411-10.688,0.904c-0.439-2.959-0.768-6.137-0.986-9.536
		c2.904-0.603,5.946-1.11,9.125-1.521c3.178-0.411,6.028-0.617,8.55-0.617c4.384,0,7.673,0.727,9.865,2.179
		c2.191,1.453,3.617,3.358,4.275,5.713c0.658,2.357,0.958,5.344,0.904,8.961l-0.082,12.085l0.247,9.7H731.744z M729.195,539.055
		v-6.084h-0.657c-4.057,0-6.304,0.22-6.742,0.658c-0.275,0.275-0.48,0.686-0.616,1.233c-0.138,0.548-0.206,1.069-0.206,1.562
		c0,1.315,0.3,2.22,0.904,2.713c0.603,0.493,1.534,0.74,2.795,0.74C726.099,539.877,727.605,539.604,729.195,539.055z"/>
	<path fill="#FED150" d="M810.008,528.203v19.895h-14.058v-18.497v-4.439c0-2.027-0.193-3.233-0.576-3.617
		c-0.439-0.438-1.371-0.658-2.795-0.658l-0.986,0.083c-1.699,0.11-3.317,0.493-4.851,1.151c0.054,1.151,0.083,3.179,0.083,6.083
		v19.895h-14.058v-18.497v-4.933c0-1.698-0.193-2.74-0.576-3.124c-0.439-0.438-1.371-0.658-2.795-0.658l-0.987,0.083
		c-1.535,0.055-3.124,0.411-4.768,1.068v26.061h-14.058v-37.816h11.427l1.48,6.166c1.809-2.411,3.891-4.178,6.248-5.302
		c2.356-1.123,4.74-1.686,7.152-1.686c2.027,0,3.959,0.302,5.796,0.904c1.835,0.604,3.11,1.453,3.823,2.549
		c0.329,0.493,0.603,1.397,0.822,2.713c1.753-2.138,3.753-3.7,6.001-4.686c2.247-0.987,4.494-1.48,6.742-1.48
		c2.027,0,3.958,0.302,5.795,0.904c1.836,0.604,3.11,1.453,3.823,2.549C809.569,514.227,810.008,519.324,810.008,528.203z"/>
	<path fill="#FED150" d="M839.029,548.098l-1.315-5.179c-2.521,4.11-6.029,6.165-10.523,6.165c-3.672,0-6.673-1.027-9.002-3.082
		c-2.33-2.056-3.494-4.946-3.494-8.673c0-2.302,0.671-4.316,2.015-6.042c1.343-1.727,3.192-2.946,5.549-3.659
		c3.069-0.876,7.811-1.369,14.223-1.479c0-3.617-0.164-5.535-0.493-5.755c-0.274-0.218-1.15-0.329-2.631-0.329
		c-0.933,0-2.22,0.055-3.863,0.164c-2.631,0.111-6.194,0.411-10.688,0.904c-0.439-2.959-0.769-6.137-0.987-9.536
		c2.905-0.603,5.946-1.11,9.126-1.521c3.178-0.411,6.028-0.617,8.55-0.617c4.384,0,7.673,0.727,9.865,2.179
		c2.191,1.453,3.617,3.358,4.275,5.713c0.657,2.357,0.958,5.344,0.904,8.961l-0.083,12.085l0.247,9.7H839.029z M836.48,539.055
		v-6.084h-0.657c-4.057,0-6.304,0.22-6.741,0.658c-0.275,0.275-0.48,0.686-0.617,1.233c-0.137,0.548-0.205,1.069-0.205,1.562
		c0,1.315,0.301,2.22,0.904,2.713c0.603,0.493,1.533,0.74,2.795,0.74C833.383,539.877,834.89,539.604,836.48,539.055z"/>
	<path fill="#FED150" d="M894.521,498.196v49.901h-11.592l-1.151-6.33c-1.097,2.138-2.713,3.837-4.851,5.097
		c-2.137,1.261-4.55,1.892-7.234,1.892c-4.274,0-7.687-1.534-10.235-4.604c-2.548-3.068-3.822-7.672-3.822-13.811
		c0-4.658,0.547-8.495,1.644-11.51c1.096-3.014,2.385-5.179,3.864-6.495c0.932-0.822,2.836-1.507,5.714-2.055
		c2.877-0.547,5.438-0.822,7.687-0.822c1.973,0,4,0.193,6.084,0.576c-0.165-2.631-0.247-4.083-0.247-4.357v-6.906L894.521,498.196z
		 M880.462,537V519.16c-1.59-0.219-3.344-0.329-5.261-0.329c-1.645,0-2.687,0.138-3.124,0.411c-0.604,0.439-1.083,1.685-1.439,3.741
		c-0.356,2.055-0.534,4.207-0.534,6.454c0,3.343,0.506,5.563,1.521,6.659c1.013,1.097,2.425,1.645,4.233,1.645
		C877.338,537.74,878.873,537.493,880.462,537z"/>
	<path fill="#FED150" d="M923.788,548.098l-1.315-5.179c-2.521,4.11-6.029,6.165-10.523,6.165c-3.672,0-6.673-1.027-9.002-3.082
		c-2.33-2.056-3.494-4.946-3.494-8.673c0-2.302,0.671-4.316,2.015-6.042c1.343-1.727,3.192-2.946,5.549-3.659
		c3.069-0.876,7.811-1.369,14.223-1.479c0-3.617-0.164-5.535-0.493-5.755c-0.274-0.218-1.15-0.329-2.631-0.329
		c-0.933,0-2.22,0.055-3.863,0.164c-2.631,0.111-6.194,0.411-10.688,0.904c-0.439-2.959-0.769-6.137-0.987-9.536
		c2.905-0.603,5.946-1.11,9.126-1.521c3.178-0.411,6.028-0.617,8.55-0.617c4.384,0,7.673,0.727,9.865,2.179
		c2.191,1.453,3.617,3.358,4.275,5.713c0.657,2.357,0.958,5.344,0.904,8.961l-0.083,12.085l0.247,9.7H923.788z M921.239,539.055
		v-6.084h-0.657c-4.057,0-6.304,0.22-6.741,0.658c-0.275,0.275-0.48,0.686-0.617,1.233c-0.137,0.548-0.205,1.069-0.205,1.562
		c0,1.315,0.301,2.22,0.904,2.713c0.603,0.493,1.533,0.74,2.795,0.74C918.142,539.877,919.649,539.604,921.239,539.055z"/>
	<path fill="#FED150" d="M979.32,517.187c0.246,2.412,0.371,6.083,0.371,11.016v19.895h-14.059v-19.73v-3.371
		c0-1.753-0.139-2.849-0.412-3.289c-0.439-0.547-1.451-0.822-3.041-0.822c-0.768,0-1.343,0.028-1.726,0.083
		c-1.535,0.055-3.124,0.411-4.769,1.068v26.061h-14.058v-37.816h11.427l1.563,6.33c3.945-4.768,8.659-7.152,14.139-7.152
		c1.975,0,3.824,0.275,5.551,0.822c1.727,0.548,3.027,1.344,3.904,2.384C978.703,513.269,979.074,514.776,979.32,517.187z"/>
	<path fill="#EB3D72" d="M1042.992,548.098h-16.195l-9.127-17.51c-0.164-0.274-0.588-1.041-1.273-2.302
		c-0.686-1.26-1.439-2.466-2.262-3.617v23.43h-14.797v-46.86h14.797v21.293c0.932-1.041,1.74-2.179,2.426-3.412
		c0.686-1.233,1.082-1.959,1.193-2.178l8.795-15.703h15.621l-9.373,15.703c-0.164,0.219-0.521,0.795-1.068,1.726
		c-0.549,0.933-1.139,1.796-1.768,2.59c-0.631,0.795-1.303,1.521-2.014,2.179c0.986,0.933,1.795,1.85,2.426,2.754
		c0.629,0.904,1.355,2.096,2.178,3.576L1042.992,548.098z"/>
	<path fill="#EB3D72" d="M1068.395,548.098l-1.316-5.179c-2.521,4.11-6.029,6.165-10.523,6.165c-3.672,0-6.672-1.027-9.002-3.082
		c-2.33-2.056-3.494-4.946-3.494-8.673c0-2.302,0.672-4.316,2.016-6.042c1.342-1.727,3.191-2.946,5.549-3.659
		c3.068-0.876,7.811-1.369,14.223-1.479c0-3.617-0.164-5.535-0.494-5.755c-0.273-0.218-1.15-0.329-2.631-0.329
		c-0.932,0-2.219,0.055-3.863,0.164c-2.631,0.111-6.193,0.411-10.688,0.904c-0.439-2.959-0.768-6.137-0.986-9.536
		c2.904-0.603,5.945-1.11,9.125-1.521c3.178-0.411,6.029-0.617,8.551-0.617c4.383,0,7.672,0.727,9.865,2.179
		c2.191,1.453,3.617,3.358,4.275,5.713c0.656,2.357,0.957,5.344,0.904,8.961l-0.084,12.085l0.248,9.7H1068.395z M1065.846,539.055
		v-6.084h-0.658c-4.057,0-6.303,0.22-6.74,0.658c-0.275,0.275-0.48,0.686-0.617,1.233c-0.137,0.548-0.205,1.069-0.205,1.562
		c0,1.315,0.301,2.22,0.904,2.713c0.602,0.493,1.533,0.74,2.795,0.74C1062.748,539.877,1064.256,539.604,1065.846,539.055z"/>
	<path fill="#EB3D72" d="M1111.924,509.706c0.795,0.165,1.385,0.357,1.768,0.576c0,1.206-0.137,3.193-0.41,5.96
		c-0.275,2.769-0.521,4.728-0.74,5.878c-0.549-0.054-1.563-0.083-3.041-0.083c-3.453,0-6.523,0.193-9.209,0.576v25.485h-14.057
		v-37.816h11.756l1.645,6.083h0.082c1.588-2.082,3.287-3.753,5.096-5.015c1.809-1.26,3.426-1.891,4.852-1.891
		C1110.375,509.459,1111.129,509.541,1111.924,509.706z"/>
	<path fill="#EB3D72" d="M1147.973,537.822c0.494,0,1.398-0.054,2.713-0.165l1.234,8.468c-4.223,1.973-9.701,2.959-16.443,2.959
		c-6.303,0-11.139-1.589-14.51-4.768c-3.371-3.178-5.057-7.975-5.057-14.387c0-3.289,0.424-6.466,1.275-9.537
		c0.85-3.069,1.82-5.206,2.918-6.413c1.15-1.205,3.289-2.247,6.412-3.124c3.125-0.876,6.221-1.315,9.291-1.315
		c4.932,0,8.631,0.877,11.098,2.631c2.467,1.755,4.082,4.18,4.85,7.276c0.768,3.097,1.152,7.249,1.152,12.455
		c-3.729,0.219-7.373,0.329-10.934,0.329h-11.676c0,1.755,0.371,3.07,1.111,3.946c0.74,0.877,1.793,1.438,3.164,1.685
		c1.369,0.247,3.289,0.37,5.756,0.37C1141.697,538.233,1144.246,538.097,1147.973,537.822z M1130.381,521.462
		c-0.166,1.261-0.275,2.686-0.33,4.275h4.275c2.576,0,4.439-0.027,5.59-0.082c0-2.631-0.369-4.494-1.109-5.59
		c-0.74-1.096-2.014-1.645-3.822-1.645c-1.48,0-2.77,0.302-3.865,0.904C1130.791,519.489,1130.545,520.202,1130.381,521.462z"/>
	<path fill="#EB3D72" d="M1188.42,537.822c0.494,0,1.398-0.054,2.713-0.165l1.234,8.468c-4.223,1.973-9.701,2.959-16.443,2.959
		c-6.303,0-11.139-1.589-14.51-4.768c-3.371-3.178-5.057-7.975-5.057-14.387c0-3.289,0.424-6.466,1.275-9.537
		c0.85-3.069,1.82-5.206,2.918-6.413c1.15-1.205,3.289-2.247,6.412-3.124c3.125-0.876,6.221-1.315,9.291-1.315
		c4.932,0,8.631,0.877,11.098,2.631c2.467,1.755,4.082,4.18,4.85,7.276c0.768,3.097,1.152,7.249,1.152,12.455
		c-3.729,0.219-7.373,0.329-10.934,0.329h-11.676c0,1.755,0.371,3.07,1.111,3.946c0.74,0.877,1.793,1.438,3.164,1.685
		c1.369,0.247,3.289,0.37,5.756,0.37C1182.145,538.233,1184.693,538.097,1188.42,537.822z M1170.828,521.462
		c-0.166,1.261-0.275,2.686-0.33,4.275h4.275c2.576,0,4.439-0.027,5.59-0.082c0-2.631-0.369-4.494-1.109-5.59
		c-0.74-1.096-2.014-1.645-3.822-1.645c-1.48,0-2.77,0.302-3.865,0.904C1171.238,519.489,1170.992,520.202,1170.828,521.462z"/>
	<path fill="#EB3D72" d="M1258.711,528.203v19.895h-14.059v-18.497v-4.439c0-2.027-0.193-3.233-0.576-3.617
		c-0.439-0.438-1.371-0.658-2.795-0.658l-0.986,0.083c-1.699,0.11-3.316,0.493-4.85,1.151c0.053,1.151,0.082,3.179,0.082,6.083
		v19.895h-14.059v-18.497v-4.933c0-1.698-0.193-2.74-0.576-3.124c-0.439-0.438-1.369-0.658-2.795-0.658l-0.986,0.083
		c-1.535,0.055-3.123,0.411-4.768,1.068v26.061h-14.059v-37.816h11.428l1.479,6.166c1.809-2.411,3.893-4.178,6.248-5.302
		c2.357-1.123,4.74-1.686,7.152-1.686c2.027,0,3.959,0.302,5.797,0.904c1.836,0.604,3.109,1.453,3.822,2.549
		c0.33,0.493,0.604,1.397,0.822,2.713c1.754-2.138,3.754-3.7,6.002-4.686c2.246-0.987,4.492-1.48,6.74-1.48
		c2.027,0,3.959,0.302,5.797,0.904c1.836,0.604,3.109,1.453,3.822,2.549C1258.271,514.227,1258.711,519.324,1258.711,528.203z"/>
</g>
</svg>
