<?xml version="1.0" encoding="utf-8"?>
<!-- Generator: Adobe Illustrator 16.0.0, SVG Export Plug-In . SVG Version: 6.00 Build 0)  -->
<!DOCTYPE svg PUBLIC "-//W3C//DTD SVG 1.1//EN" "http://www.w3.org/Graphics/SVG/1.1/DTD/svg11.dtd">
<svg version="1.1" id="Layer_1" xmlns="http://www.w3.org/2000/svg" xmlns:xlink="http://www.w3.org/1999/xlink" x="0px" y="0px"
	 width="1920px" height="1080px" viewBox="0 0 1920 1080" enable-background="new 0 0 1920 1080" xml:space="preserve">
<rect y="843" fill="#DBD0BA" width="1922" height="237"/>
<rect y="-2" opacity="0.6" fill="#EDE6D6" width="1922" height="845"/>
<g>
	<g>
		<g>
			<line fill="#F89B1B" x1="993.737" y1="555.554" x2="993.737" y2="513.355"/>
			<path fill="#F89B1B" d="M993.736,561.947c-3.532,0-6.394-2.864-6.394-6.394v-42.197c0-3.53,2.861-6.393,6.394-6.393
				c3.531,0,6.393,2.863,6.393,6.393v42.197C1000.129,559.083,997.268,561.947,993.736,561.947z"/>
		</g>
		<g>
			<path fill="#F89B1B" d="M1004.197,498.36c-10.389,0-18.81-8.421-18.81-18.81c0-4.804,1.816-9.174,4.78-12.498
				c-11.627,2.827-20.271,13.279-20.271,25.775c0,14.666,11.89,26.555,26.556,26.555c14.665,0,26.555-11.889,26.555-26.555
				c0-2.503-0.371-4.917-1.019-7.213C1019.463,493.023,1012.46,498.36,1004.197,498.36z"/>
		</g>
	</g>
	<g>
		<line fill="#F89B1B" x1="1107.998" y1="442.921" x2="1107.998" y2="400.723"/>
		<path fill="#F89B1B" d="M1107.997,449.315c-3.532,0-6.394-2.863-6.394-6.393v-42.201c0-3.53,2.861-6.394,6.394-6.394
			s6.394,2.864,6.394,6.394v42.201C1114.391,446.452,1111.529,449.315,1107.997,449.315z"/>
	</g>
	<path fill="#F89B1B" d="M1118.458,385.728c-10.389,0-18.81-8.421-18.81-18.81c0-4.804,1.816-9.174,4.779-12.498
		c-11.627,2.827-20.271,13.279-20.271,25.775c0,14.666,11.89,26.555,26.556,26.555c14.665,0,26.555-11.889,26.555-26.555
		c0-2.503-0.371-4.917-1.019-7.213C1133.724,380.391,1126.721,385.728,1118.458,385.728z"/>
	<path fill="#612273" d="M1108.161,421.808L1108.161,421.808c-16.738,0-30.308,13.569-30.308,30.307v202.048h60.615V452.115
		C1138.469,435.376,1124.899,421.808,1108.161,421.808z"/>
	<path fill="#612273" d="M995.511,534.915L995.511,534.915c-40.207,0-72.801,32.594-72.801,72.801v72.801h145.603v-72.801
		C1068.313,567.509,1035.718,534.915,995.511,534.915z"/>
	<g>
		<path fill="#FED150" d="M1005.27,355.626l-24.989-2.364c-1.573-0.143-2.934-1.143-3.58-2.65l-8.949-21.692
			c-1.431-3.58-6.514-3.58-7.947,0l-8.88,21.692c-0.57,1.507-2.003,2.507-3.58,2.65l-24.986,2.364
			c-3.723,0.356-5.227,5.013-2.434,7.516l18.829,16.539c1.217,1.078,1.717,2.65,1.36,4.227l-5.656,23.196
			c-0.86,3.653,3.08,6.66,6.374,4.727l20.832-12.242c1.363-0.791,3.01-0.791,4.37,0l20.832,12.242
			c3.297,1.933,7.233-1.003,6.373-4.727l-5.583-23.196c-0.359-1.577,0.144-3.149,1.359-4.227l18.83-16.539
			C1010.566,360.639,1008.992,355.982,1005.27,355.626L1005.27,355.626z M1005.27,355.626"/>
		<g>
			<path opacity="0.5" fill="#FED150" d="M939.105,380.084l1.01-4.14c0.356-1.577-0.143-3.149-1.36-4.227l-17.841-15.672
				c-2.605,1.249-3.379,4.953-0.988,7.096l18.829,16.539C938.892,379.802,938.986,379.951,939.105,380.084z"/>
			<path opacity="0.5" fill="#FED150" d="M1006.802,356.096l-17.786,15.622c-1.216,1.078-1.719,2.65-1.359,4.227l1,4.151
				c0.121-0.138,0.219-0.29,0.359-0.415l18.83-16.539C1010.149,361.022,1009.354,357.385,1006.802,356.096z"/>
			<path opacity="0.5" fill="#FED150" d="M992.251,402.997c-1.271,1.427-3.429,2.016-5.385,0.87l-20.832-12.242
				c-1.36-0.791-3.007-0.791-4.37,0l-20.832,12.242c-1.946,1.142-4.095,0.537-5.369-0.884l-1.005,4.121
				c-0.86,3.653,3.08,6.66,6.374,4.727l20.832-12.243c1.363-0.79,3.01-0.79,4.37,0l20.832,12.243
				c3.297,1.933,7.233-1.003,6.373-4.727L992.251,402.997z"/>
		</g>
	</g>
	<g>
		<path fill="#FED150" d="M920.657,471.511l-14.307-1.353c-0.901-0.082-1.68-0.654-2.05-1.517l-5.124-12.419
			c-0.819-2.05-3.729-2.05-4.55,0l-5.084,12.419c-0.326,0.863-1.146,1.435-2.049,1.517l-14.305,1.353
			c-2.131,0.204-2.992,2.87-1.393,4.303l10.78,9.469c0.697,0.617,0.982,1.518,0.779,2.42l-3.238,13.28
			c-0.493,2.092,1.763,3.813,3.648,2.706l11.927-7.009c0.78-0.453,1.723-0.453,2.502,0l11.927,7.009
			c1.888,1.107,4.141-0.575,3.648-2.706l-3.196-13.28c-0.206-0.903,0.082-1.803,0.778-2.42l10.781-9.469
			C923.689,474.381,922.789,471.715,920.657,471.511L920.657,471.511z M920.657,471.511"/>
		<g>
			<path opacity="0.5" fill="#FED150" d="M882.777,485.514l0.578-2.37c0.204-0.903-0.082-1.803-0.779-2.42l-10.215-8.973
				c-1.492,0.715-1.935,2.835-0.565,4.063l10.78,9.469C882.655,485.353,882.708,485.438,882.777,485.514z"/>
			<path opacity="0.5" fill="#FED150" d="M921.534,471.78l-10.183,8.944c-0.696,0.617-0.984,1.517-0.778,2.42l0.572,2.377
				c0.07-0.079,0.125-0.166,0.206-0.238l10.781-9.469C923.451,474.601,922.995,472.518,921.534,471.78z"/>
			<path opacity="0.5" fill="#FED150" d="M913.204,498.631c-0.728,0.817-1.963,1.155-3.083,0.498l-11.927-7.009
				c-0.779-0.453-1.722-0.453-2.502,0l-11.927,7.009c-1.114,0.654-2.344,0.308-3.073-0.506l-0.576,2.359
				c-0.492,2.091,1.764,3.813,3.649,2.706l11.927-7.009c0.78-0.452,1.723-0.452,2.502,0l11.927,7.009
				c1.888,1.107,4.141-0.574,3.649-2.706L913.204,498.631z"/>
		</g>
	</g>
	<path fill="#FED150" d="M1022.785,663.318c-111.429-2.793-202.276-93.356-205.398-204.777
		c-2.378-84.907,45.463-158.848,115.98-194.408c4.978-2.51,2.682-10.104-2.853-9.433C801.817,270.297,701.96,379.446,701,512.126
		c-1.036,143.086,114.868,261.412,257.946,263.194c128.911,1.606,236.686-90.156,259.959-211.915
		c1.053-5.511-6.393-8.221-9.257-3.397C1172.043,623.342,1102.237,665.309,1022.785,663.318z"/>
	<path opacity="0.4" fill="#FED150" d="M725.527,403.518c11.444,82.501,65.885,151.246,140.011,182.807
		c-28.906-35.027-46.797-79.435-48.151-127.784c-2.378-84.908,45.463-158.849,115.98-194.409c4.978-2.51,2.682-10.103-2.853-9.432
		C839.462,265.735,762.898,323.626,725.527,403.518z"/>
	<g>
		<path opacity="0.5" fill="#FED150" d="M1211.266,558.356c-33.886,106.55-134.205,183.484-252.319,182.013
			c-136.64-1.702-248.413-109.715-257.302-244.055c-0.352,5.235-0.605,10.497-0.644,15.812
			c-1.036,143.086,114.867,261.411,257.946,263.194c128.911,1.606,236.686-90.156,259.959-211.916
			C1219.797,558.742,1214.62,556.14,1211.266,558.356z"/>
		<path opacity="0.5" fill="#FED150" d="M817.387,423.59c0.106,3.792,0.334,7.554,0.641,11.296
			c6.187-74.828,51.458-138.54,115.339-170.753c4.978-2.51,2.682-10.103-2.853-9.432c-16.567,2.007-32.645,5.591-48.107,10.55
			C840.957,304.914,815.642,361.289,817.387,423.59z"/>
	</g>
	<path fill="#EB3D72" d="M1150.954,486.912h-85.586c-1.163,0-2.106-0.943-2.106-2.107v-13.746c0-1.164,0.943-2.107,2.106-2.107
		h85.586c1.163,0,2.106,0.943,2.106,2.107v13.746C1153.061,485.969,1152.117,486.912,1150.954,486.912z"/>
	<path fill="#EB3D72" d="M803.972,417.143c2.244-3.489,11.206-23.049-6.01-34.12c-17.215-11.071-26.248,4.166-26.248,4.166
		c-4.09,6.36-2.545,14.642,3.451,18.498c5.996,3.856,14.173,1.827,18.263-4.533c0,0,1.125,3.024-3.298,9.389
		c-4.422,6.364-12.864,6.196-21.938,0.362c-9.073-5.835-23.876-33.441-0.32-70.582c0.804-1.268,1.703-2.399,2.569-3.577
		c-4.005-2.346-7.997-2.581-11.737-1.331c-4.292,1.435-7.533,4.953-9.512,9.023c-15.911,32.725-11.516,64.928,10.771,79.262
		C784.856,439.708,801.728,420.633,803.972,417.143z"/>
	<path fill="#EB3D72" d="M1073.026,728.333c3.295-1.385,19.197-10.908,12.366-27.166c-6.83-16.257-20.675-9.838-20.675-9.838
		c-6.006,2.523-8.946,9.159-6.567,14.821c2.379,5.663,9.176,8.208,15.182,5.685c0,0-0.676,2.696-6.92,5.061
		c-6.243,2.364-12.158-1.87-15.758-10.438s-0.655-35.395,34.185-50.29c1.189-0.508,2.379-0.874,3.568-1.288
		c-0.283-0.604-0.602-1.178-0.952-1.724c-4.171-6.503-13.125-7.781-19.765-3.83c-26.347,15.679-37.83,41.475-29.12,62.208
		C1048.447,735.041,1069.731,729.718,1073.026,728.333z"/>
	<path fill="#EB3D72" d="M841.934,662.906c-3.037-1.885-20.009-9.335-29.309,5.647c-9.3,14.982,3.951,22.553,3.951,22.553
		c5.535,3.436,12.647,1.99,15.887-3.228c3.239-5.219,1.378-12.233-4.157-15.669c0,0,2.59-1.011,8.133,2.711
		c5.543,3.722,5.515,10.996,0.614,18.893c-4.901,7.896-28.478,21.028-60.795,1.249c-1.103-0.676-2.09-1.434-3.117-2.164
		c-0.327,0.58-0.612,1.173-0.854,1.774c-2.886,7.166,1.257,15.207,8.322,18.332c28.039,12.402,55.72,6.828,67.581-12.28
		C861.636,679.062,844.971,664.791,841.934,662.906z"/>
	<g>
		<line fill="#EB3D72" x1="918.816" y1="607.716" x2="1072.574" y2="607.716"/>
		<path fill="#EB3D72" d="M1072.574,618.371H918.815c-5.885,0-10.655-4.771-10.655-10.655c0-5.886,4.77-10.656,10.655-10.656
			h153.759c5.885,0,10.655,4.771,10.655,10.656C1083.229,613.601,1078.459,618.371,1072.574,618.371z"/>
	</g>
	<circle opacity="0.4" fill="#FED150" cx="829.707" cy="601.979" r="15.327"/>
	<circle opacity="0.4" fill="#FED150" cx="880.797" cy="682.263" r="15.327"/>
	<circle opacity="0.4" fill="#FED150" cx="727.529" cy="494.692" r="15.327"/>
	<circle opacity="0.5" fill="#FED150" cx="985.166" cy="699.05" r="15.327"/>
	<circle opacity="0.5" fill="#FED150" cx="926.048" cy="674.234" r="10.104"/>
	<circle opacity="0.5" fill="#FED150" cx="775.616" cy="605.39" r="10.104"/>
	<circle opacity="0.4" fill="#FED150" cx="766.869" cy="576.666" r="9.639"/>
	<circle opacity="0.4" fill="#FED150" cx="941.375" cy="715.836" r="9.639"/>
</g>
<path fill="#DBD0BA" d="M666.017,863H0.146v-24.32h26.826V665.226h5.961v10.095c0,0,29.438,7.277,44.113,38.087
	c6.557,13.767,5.961,125.272,5.961,125.272h67.362v-48.641h22.056v43.135h13.115V813.9h5.961v-15.416h10.73v-34.371h8.346v-12.161
	l11.922-9.177v67.454h7.75v11.472h10.134v-94.986h22.653V806.1l11.028,8.489v-41.987l20.715-15.945h5.812v61.374h7.75v-77.55h5.365
	v-51.853h14.903v85.81l3.726,2.868v43.02l9.166,7.055h17.511v-63.267h11.922v-23.174h11.922v68.373h9.538v20.189h14.903V757h22.056
	v47.723h9.539v22.944h13.71v-89.939h5.961v17.438h8.942v21.107h9.538v49.559h20.864v-22.943h36.96v22.943l8.345-6.424v-28.45h11.327
	v26.155h16.691v-61.488l18.182-13.996v-29.139h8.047v74.797h7.154v49.1h11.922V727.174h5.961v-6.884l19.672,15.144v82.138h6.557
	v-13.307h7.154v25.237h10.134V863z"/>
<path fill="#DBD0BA" d="M1910.358,834.374v-25.495l-5.014-5.013h-17.331v8.737h-5.156v-17.188h-11.458v18.334h-5.443v-21.771h-7.448
	v22.917h-12.031l-15.756-11.172v-81.929h-5.442v81.643h-10.6v-48.413h-27.787v62.736h-8.594v-69.897h-21.484v24.35h-6.589v-35.809
	h-18.621v63.882h-4.869v-65.027h-22.058v65.027h-27.787v-45.548h-8.595v-5.156h-5.156v4.869h-6.016v45.835h-7.734v-37.527h-6.875
	v45.835h-7.162v-6.016h-7.161v6.588h-5.792V691.333h3.438v-7.64h-3.438v-10.408h3.438v-5.156h-2.578v-5.776h-2.387l-6.779-17.045
	V637h-4.393v8.308l-6.78,17.045h-2.387v5.776h-2.578v5.156h3.438v10.408h-3.438v7.64h3.438v52.948h-26.197v-52.948h3.438v-7.64
	h-3.438v-10.408h3.438v-5.156h-2.578v-5.776h-2.387l-6.78-17.045V637h-4.393v8.308l-6.779,17.045h-2.387v5.776h-2.578v5.156h3.438
	v10.408h-3.438v7.64h3.438v117.832h-15.661v-95.393h-18.62l-12.604,26.068v24.923h-9.453v4.297h-10.026v-16.042h-41.251v21.431
	h-9.739v-42.916h-6.303v-7.448h-5.443v7.162h-6.588v85.939h-20.626v-31.225h-7.734v8.88l-12.318-12.317h-7.734v19.766h-17.761
	v-5.442h-40.965v5.156h-18.333v13.75h-7.734v7.162h-11.459V855h641.682v-20.626H1910.358z M1601.392,767.437l-3.472-7.399h3.472
	V767.437z M1601.392,749.151v6.302h-5.622l-2.958-6.302H1601.392z M1588.801,749.151c0.088,0,1.324,2.646,2.988,6.302h-6.835
	c1.664-3.655,2.899-6.302,2.987-6.302H1588.801z M1583.932,749.151l-2.958,6.302h-5.779v-6.302H1583.932z M1575.194,760.037h3.629
	l-3.629,7.734V760.037z M1575.194,777.225c0,0,4.126-9.293,7.685-17.188h10.985c3.156,7,6.751,15.085,7.527,16.833v32.295h-26.197
	V777.225z"/>
<circle fill="#32C4AA" cx="406.945" cy="277.695" r="13.055"/>
<circle fill="#FED150" cx="406.945" cy="360.789" r="16.763"/>
<circle fill="#EB3D72" cx="1676.393" cy="458.053" r="28.11"/>
<circle fill="#FED150" cx="1626.469" cy="391.629" r="16.763"/>
<circle fill="#EB3D72" cx="1386.319" cy="467.069" r="19.681"/>
<circle fill="#FED150" cx="1289.654" cy="474.498" r="16.763"/>
<circle fill="#EB3D72" cx="579.143" cy="263.498" r="28.11"/>
<circle fill="#FED150" cx="662.237" cy="263.498" r="16.763"/>
<g>
	<path fill="#FED150" d="M278.71,217.419c2.59-1.265,2.453-5.095-0.25-6.191l-18.147-7.335c-1.144-0.458-1.938-1.508-2.085-2.778
		l-1.853-18.205c-0.271-2.994-4.07-4.127-5.938-1.771l-11.47,14.231c-0.762,0.999-2.055,1.427-3.266,1.183l-19.198-3.802
		c-2.862-0.563-5.023,2.581-3.494,5.074l10.385,16.556c0.669,1.076,0.692,2.363,0.074,3.462l-9.396,16.073
		c-1.457,2.539,0.817,5.663,3.709,4.952l17.218-4.24c6.771-2.703,8.207-8.031,7.745-10.043c-0.521-2.269-1.799-3.567-3.44-3.251
		c-1.642,0.315-1.925,0.952-1.925,0.952c1.59-0.365,3.158,0.554,3.502,2.054c0.344,1.499-0.666,3.01-2.256,3.375
		c0,0-3.691,0.99-4.68-3.314c-0.988-4.304,3.344-5.973,4.217-6.173s6.353-0.601,7.781,5.623c1.011,4.405-1.328,9.054-5.997,12.135
		l12.235,13.143c2.033,2.179,5.628,0.862,5.815-2.112l0.998-18.578c0.083-1.259,0.809-2.322,1.958-2.856L278.71,217.419z"/>
	<g>
		<path opacity="0.5" fill="#FED150" d="M223.759,215.186l1.023-1.75c0.618-1.099,0.595-2.385-0.075-3.462l-10.384-16.556
			c-0.056-0.091-0.097-0.184-0.143-0.276c-1.508,0.894-2.238,2.945-1.172,4.683l10.385,16.556
			C223.554,214.638,223.673,214.909,223.759,215.186z"/>
		<path opacity="0.5" fill="#FED150" d="M280.234,212.889c-0.07,0.041-0.135,0.086-0.209,0.123l-17.757,8.163
			c-1.149,0.534-1.875,1.597-1.958,2.855l-0.109,2.029c0.225-0.186,0.475-0.349,0.753-0.478l17.757-8.162
			C280.493,216.548,280.983,214.462,280.234,212.889z"/>
	</g>
	<g>
		<path opacity="0.5" fill="#FED150" d="M240.527,230.823c-0.835-0.805-1.997-1.141-3.136-0.868l-18.296,4.505
			c-1.891,0.465-3.51-0.713-4.002-2.292l-1.021,1.747c-1.457,2.539,0.817,5.663,3.709,4.952l17.219-4.24
			C237.522,233.619,239.31,232.252,240.527,230.823z"/>
		<path opacity="0.5" fill="#FED150" d="M257.997,247.015l0.108-2.006c-1.275,1.06-3.276,1.141-4.609-0.289l-10.516-11.295
			c-0.857,0.932-1.873,1.794-3.033,2.56l12.235,13.143C254.214,251.306,257.81,249.989,257.997,247.015z"/>
	</g>
</g>
<g>
	<path fill="#FED150" d="M543.731,389.532c0.096-2.881-3.354-4.553-5.587-2.678l-14.979,12.6c-0.94,0.796-2.24,1.006-3.431,0.541
		l-16.953-6.886c-2.772-1.163-5.552,1.664-4.346,4.418l7.204,16.798c0.526,1.141,0.298,2.484-0.484,3.439l-12.349,15.184
		c-1.838,2.264-0.071,5.646,2.848,5.462l19.491-1.424c1.265-0.087,2.412,0.495,3.094,1.555l9.802,15.829
		c1.561,2.476,5.386,1.929,6.113-0.958l4.315-17.2c0.782-7.248-3.254-11.013-5.248-11.546c-2.248-0.602-3.994-0.081-4.484,1.518
		c-0.49,1.599-0.06,2.146-0.06,2.146c0.422-1.576,1.969-2.531,3.455-2.133s2.348,1.999,1.926,3.574c0,0-0.854,3.726-5.12,2.583
		c-4.266-1.142-3.711-5.751-3.48-6.616s2.443-5.895,8.612-4.243c4.366,1.169,7.378,5.413,7.915,10.981l17.342-4.657
		c2.877-0.775,3.397-4.569,0.857-6.127l-15.948-9.58c-1.074-0.663-1.673-1.802-1.607-3.067L543.731,389.532z"/>
	<g>
		<path opacity="0.5" fill="#FED150" d="M516.028,437.042l-1.067-1.724c-0.682-1.06-1.829-1.643-3.094-1.555l-19.491,1.424
			c-0.106,0.007-0.208-0.001-0.311-0.003c0.084,1.751,1.554,3.356,3.589,3.228l19.491-1.424
			C515.448,436.966,515.744,436.988,516.028,437.042z"/>
		<path opacity="0.5" fill="#FED150" d="M540.443,386.065c0.003,0.081,0.013,0.16,0.01,0.243l-1.102,19.513
			c-0.066,1.265,0.533,2.405,1.607,3.067l1.741,1.046c-0.059-0.286-0.086-0.583-0.07-0.889l1.102-19.512
			C543.797,387.549,542.184,386.14,540.443,386.065z"/>
	</g>
	<g>
		<path opacity="0.5" fill="#FED150" d="M537.697,429.547c-1.102,0.361-1.943,1.23-2.235,2.365l-4.585,18.276
			c-0.475,1.888-2.274,2.768-3.899,2.463l1.065,1.72c1.561,2.476,5.386,1.929,6.113-0.958l4.315-17.2
			C538.761,433.511,538.39,431.292,537.697,429.547z"/>
		<path opacity="0.5" fill="#FED150" d="M560.184,421.692l-1.723-1.035c0.339,1.623-0.525,3.429-2.413,3.938l-14.905,4.002
			c0.422,1.193,0.709,2.495,0.842,3.879l17.342-4.657C562.205,427.044,562.725,423.25,560.184,421.692z"/>
	</g>
</g>
<g>
	<path fill="#FED150" d="M55.745,191.141c0.309-2.866-3.006-4.789-5.373-3.085l-15.874,11.452c-0.997,0.724-2.308,0.837-3.461,0.285
		l-16.395-8.127c-2.678-1.365-5.66,1.246-4.662,4.083l5.936,17.288c0.44,1.177,0.113,2.5-0.739,3.394L1.733,230.652
		c-2.001,2.122-0.491,5.625,2.434,5.659l19.543,0.028c1.268,0.007,2.369,0.673,2.97,1.781l8.599,16.514
		c1.372,2.585,5.228,2.324,6.167-0.502l5.582-16.831c1.318-7.17-2.426-11.224-4.375-11.904c-2.197-0.768-3.977-0.378-4.584,1.18
		c-0.607,1.558-0.219,2.136-0.219,2.136c0.538-1.54,2.151-2.378,3.604-1.871s2.193,2.167,1.655,3.708c0,0-1.128,3.652-5.298,2.196
		c-4.169-1.457-3.273-6.012-2.979-6.857c0.295-0.845,2.875-5.697,8.904-3.591c4.267,1.49,6.956,5.947,7.077,11.539l17.639-3.355
		c2.927-0.56,3.728-4.305,1.311-6.047l-15.192-10.739c-1.021-0.74-1.534-1.921-1.374-3.178L55.745,191.141z"/>
	<g>
		<path opacity="0.5" fill="#FED150" d="M24.587,236.46l-0.937-1.798c-0.601-1.108-1.702-1.774-2.97-1.781l-19.543-0.029
			c-0.107-0.001-0.208-0.017-0.31-0.027c-0.046,1.753,1.301,3.463,3.339,3.486l19.543,0.028
			C24.014,236.342,24.307,236.386,24.587,236.46z"/>
		<path opacity="0.5" fill="#FED150" d="M52.723,187.439c-0.003,0.081,0.001,0.16-0.008,0.243l-2.549,19.376
			c-0.16,1.257,0.353,2.438,1.374,3.178l1.659,1.172c-0.038-0.29-0.042-0.588-0.003-0.892l2.549-19.376
			C55.958,189.169,54.453,187.643,52.723,187.439z"/>
	</g>
	<g>
		<path opacity="0.5" fill="#FED150" d="M46.752,230.597c-1.126,0.278-2.029,1.083-2.405,2.192l-5.931,17.885
			c-0.614,1.848-2.473,2.591-4.072,2.167l0.935,1.794c1.372,2.585,5.228,2.324,6.167-0.502l5.583-16.832
			C47.519,234.629,47.314,232.389,46.752,230.597z"/>
		<path opacity="0.5" fill="#FED150" d="M69.761,224.435l-1.641-1.16c0.218,1.644-0.779,3.38-2.699,3.748l-15.161,2.884
			c0.333,1.221,0.521,2.541,0.551,3.93l17.639-3.355C71.378,229.922,72.179,226.177,69.761,224.435z"/>
	</g>
</g>
<g>
	<path fill="#FED150" d="M1845.791,420.166c1.246,2.6,5.077,2.49,6.192-0.205l7.47-18.093c0.466-1.141,1.521-1.926,2.793-2.064
		l18.218-1.72c2.996-0.249,4.156-4.039,1.814-5.925l-14.146-11.575c-0.993-0.769-1.411-2.065-1.158-3.274l3.943-19.169
		c0.585-2.857-2.544-5.042-5.048-3.531l-16.632,10.262c-1.081,0.662-2.368,0.675-3.462,0.049l-16.004-9.514
		c-2.527-1.476-5.669,0.775-4.979,3.672l4.113,17.249c2.653,6.79,7.972,8.266,9.986,7.819c2.272-0.504,3.58-1.772,3.276-3.417
		c-0.303-1.645-0.938-1.932-0.938-1.932c0.354,1.593-0.577,3.154-2.079,3.487s-3.006-0.688-3.359-2.281c0,0-0.963-3.699,3.349-4.655
		s5.948,3.388,6.142,4.262c0.194,0.874,0.555,6.357-5.68,7.74c-4.412,0.979-9.044-1.395-12.091-6.086l-13.232,12.138
		c-2.193,2.017-0.903,5.622,2.069,5.831l18.569,1.134c1.259,0.092,2.316,0.826,2.842,1.979L1845.791,420.166z"/>
	<g>
		<path opacity="0.5" fill="#FED150" d="M1848.429,365.232l1.743,1.037c1.094,0.625,2.381,0.612,3.462-0.049l16.632-10.262
			c0.091-0.055,0.185-0.095,0.277-0.141c-0.883-1.515-2.929-2.26-4.674-1.206l-16.632,10.262
			C1848.979,365.032,1848.706,365.148,1848.429,365.232z"/>
		<path opacity="0.5" fill="#FED150" d="M1850.31,421.723c-0.04-0.07-0.086-0.135-0.121-0.21l-8.032-17.817
			c-0.525-1.153-1.583-1.887-2.841-1.979l-2.028-0.124c0.185,0.227,0.346,0.478,0.473,0.756l8.031,17.817
			C1846.648,421.955,1848.731,422.46,1850.31,421.723z"/>
	</g>
	<g>
		<path opacity="0.5" fill="#FED150" d="M1832.669,381.885c0.811-0.829,1.155-1.989,0.891-3.13l-4.371-18.328
			c-0.45-1.895,0.739-3.505,2.321-3.985l-1.738-1.034c-2.527-1.476-5.669,0.775-4.979,3.672l4.114,17.25
			C1829.895,378.86,1831.248,380.658,1832.669,381.885z"/>
		<path opacity="0.5" fill="#FED150" d="M1816.349,399.236l2.006,0.123c-1.051-1.283-1.117-3.284,0.322-4.607l11.372-10.433
			c-0.925-0.863-1.779-1.885-2.537-3.052l-13.232,12.138C1812.086,395.421,1813.376,399.027,1816.349,399.236z"/>
	</g>
</g>
<g>
	<path fill="#FED150" d="M1469.869,333.713c2.832,0.536,5.013-2.617,3.502-5.111l-10.157-16.732
		c-0.644-1.051-0.651-2.367-0.01-3.473l9.402-15.699c1.573-2.562-0.794-5.741-3.7-4.971l-17.704,4.546
		c-1.208,0.345-2.501-0.085-3.324-1.005l-13.113-14.528c-1.956-2.163-5.569-0.935-5.834,1.978l-1.578,19.479
		c-0.107,1.263-0.858,2.308-2.011,2.819l-17.143,7.263c-2.686,1.163-2.732,5.027,0.011,6.187l16.336,6.899
		c7.043,1.883,11.381-1.529,12.214-3.417c0.939-2.13,0.691-3.935-0.813-4.664s-2.111-0.388-2.111-0.388
		c1.492,0.659,2.199,2.333,1.579,3.741c-0.621,1.407-2.335,2.015-3.827,1.356c0,0-3.551-1.414-1.769-5.455
		c1.782-4.041,6.252-2.787,7.07-2.425c0.819,0.361,5.451,3.317,2.874,9.16c-1.823,4.135-6.479,6.462-12.063,6.14l1.946,17.85
		c0.325,2.962,3.995,4.057,5.924,1.785l11.91-14.292c0.818-0.959,2.036-1.377,3.276-1.118L1469.869,333.713z"/>
	<g>
		<path opacity="0.5" fill="#FED150" d="M1427.163,299.061l1.867-0.791c1.152-0.511,1.903-1.556,2.011-2.819l1.578-19.479
			c0.01-0.106,0.033-0.205,0.051-0.307c-1.743-0.185-3.555,1.022-3.739,3.053l-1.578,19.479
			C1427.327,298.499,1427.26,298.787,1427.163,299.061z"/>
		<path opacity="0.5" fill="#FED150" d="M1473.8,330.994c-0.081-0.009-0.16-0.011-0.242-0.027l-19.113-4.078
			c-1.24-0.259-2.458,0.159-3.276,1.118l-1.301,1.561c0.292-0.015,0.589,0.004,0.889,0.067l19.113,4.077
			C1471.818,334.082,1473.459,332.703,1473.8,330.994z"/>
	</g>
	<g>
		<path opacity="0.5" fill="#FED150" d="M1431.251,321.621c-0.188-1.145-0.918-2.109-1.994-2.571l-17.358-7.331
			c-1.793-0.758-2.387-2.671-1.837-4.23l-1.862,0.789c-2.686,1.163-2.732,5.027,0.011,6.187l16.336,6.899
			C1427.17,322.065,1429.42,322.039,1431.251,321.621z"/>
		<path opacity="0.5" fill="#FED150" d="M1435.569,345.046l1.286-1.543c-1.656,0.086-3.308-1.045-3.521-2.988l-1.673-15.342
			c-1.244,0.234-2.574,0.318-3.962,0.238l1.946,17.85C1429.971,346.223,1433.641,347.318,1435.569,345.046z"/>
	</g>
</g>
<g>
	
		<line fill="none" stroke="#612273" stroke-width="2" stroke-linecap="round" stroke-miterlimit="10" x1="1831.986" y1="293.966" x2="1835.258" y2="270.901"/>
	
		<line fill="none" stroke="#612273" stroke-width="2" stroke-linecap="round" stroke-miterlimit="10" x1="1845.154" y1="284.069" x2="1822.09" y2="280.798"/>
</g>
<g>
	
		<line fill="none" stroke="#612273" stroke-width="2" stroke-linecap="round" stroke-miterlimit="10" x1="1351.594" y1="543.499" x2="1363.318" y2="531.774"/>
	
		<line fill="none" stroke="#612273" stroke-width="2" stroke-linecap="round" stroke-miterlimit="10" x1="1363.318" y1="543.499" x2="1351.594" y2="531.774"/>
</g>
<g>
	
		<line fill="none" stroke="#612273" stroke-width="2" stroke-linecap="round" stroke-miterlimit="10" x1="530.875" y1="337.211" x2="542.6" y2="325.486"/>
	
		<line fill="none" stroke="#612273" stroke-width="2" stroke-linecap="round" stroke-miterlimit="10" x1="542.6" y1="337.211" x2="530.875" y2="325.486"/>
</g>
<g>
	
		<line fill="none" stroke="#612273" stroke-width="2" stroke-linecap="round" stroke-miterlimit="10" x1="1540.796" y1="315.611" x2="1557.269" y2="299.138"/>
	
		<line fill="none" stroke="#612273" stroke-width="2" stroke-linecap="round" stroke-miterlimit="10" x1="1557.269" y1="315.611" x2="1540.796" y2="299.138"/>
</g>
<g>
	
		<line fill="none" stroke="#32C4AA" stroke-width="2" stroke-linecap="round" stroke-miterlimit="10" x1="1438.76" y1="427.479" x2="1455.232" y2="411.007"/>
	
		<line fill="none" stroke="#32C4AA" stroke-width="2" stroke-linecap="round" stroke-miterlimit="10" x1="1455.232" y1="427.479" x2="1438.76" y2="411.007"/>
</g>
<g>
	
		<line fill="none" stroke="#EB3D72" stroke-width="2" stroke-linecap="round" stroke-miterlimit="10" x1="455.584" y1="462.484" x2="454.324" y2="439.223"/>
	
		<line fill="none" stroke="#EB3D72" stroke-width="2" stroke-linecap="round" stroke-miterlimit="10" x1="466.584" y1="450.224" x2="443.323" y2="451.484"/>
</g>
<g>
	
		<line fill="none" stroke="#32C4AA" stroke-width="2" stroke-linecap="round" stroke-miterlimit="10" x1="1423.89" y1="572.115" x2="1422.629" y2="548.854"/>
	
		<line fill="none" stroke="#32C4AA" stroke-width="2" stroke-linecap="round" stroke-miterlimit="10" x1="1434.891" y1="559.854" x2="1411.629" y2="561.114"/>
</g>
<g>
	
		<line fill="none" stroke="#32C4AA" stroke-width="2" stroke-linecap="round" stroke-miterlimit="10" x1="627.265" y1="312.537" x2="640.347" y2="306.27"/>
	
		<line fill="none" stroke="#32C4AA" stroke-width="2" stroke-linecap="round" stroke-miterlimit="10" x1="636.939" y1="315.944" x2="630.672" y2="302.862"/>
</g>
<g>
	
		<line fill="none" stroke="#612273" stroke-width="2" stroke-linecap="round" stroke-miterlimit="10" x1="323.452" y1="240.428" x2="327.442" y2="223.745"/>
	
		<line fill="none" stroke="#612273" stroke-width="2" stroke-linecap="round" stroke-miterlimit="10" x1="333.789" y1="234.081" x2="317.105" y2="230.091"/>
</g>
<g>
	
		<line fill="none" stroke="#32C4AA" stroke-width="2" stroke-linecap="round" stroke-miterlimit="10" x1="1868.397" y1="463.451" x2="1861.563" y2="447.718"/>
	
		<line fill="none" stroke="#32C4AA" stroke-width="2" stroke-linecap="round" stroke-miterlimit="10" x1="1872.847" y1="452.167" x2="1857.113" y2="459.001"/>
</g>
<path fill="none" stroke="#EB3D72" stroke-width="2" stroke-linecap="round" stroke-miterlimit="10" d="M357.46,274.375
	c-1.826,1.826-4.349,2.956-7.135,2.956c-5.574,0-10.092-4.518-10.092-10.091s4.518-10.091,10.092-10.091
	c5.573,0,10.091,4.518,10.091,10.091C360.416,270.026,359.286,272.549,357.46,274.375"/>
<path fill="none" stroke="#612273" stroke-width="2" stroke-linecap="round" stroke-miterlimit="10" d="M1448.423,379.715
	c-1.826,1.826-4.349,2.956-7.136,2.956c-5.573,0-10.091-4.518-10.091-10.091s4.518-10.091,10.091-10.091s10.092,4.518,10.092,10.091
	C1451.379,375.366,1450.249,377.889,1448.423,379.715"/>
<path fill="none" stroke="#EB3D72" stroke-width="2" stroke-linecap="round" stroke-miterlimit="10" d="M1792.588,324.321
	c-0.363,2.557-1.701,4.976-3.929,6.65c-4.455,3.349-10.781,2.452-14.13-2.003c-3.349-4.456-2.451-10.782,2.004-14.13
	c4.455-3.348,10.781-2.451,14.13,2.004C1792.337,319.068,1792.95,321.764,1792.588,324.321"/>
<path fill="none" stroke="#EB3D72" stroke-width="2" stroke-linecap="round" stroke-miterlimit="10" d="M1749.762,492.105
	c-0.362,2.557-1.701,4.976-3.929,6.65c-4.455,3.349-10.781,2.451-14.13-2.004s-2.451-10.781,2.004-14.13s10.781-2.451,14.13,2.004
	C1749.512,486.853,1750.124,489.548,1749.762,492.105"/>
<path fill="none" stroke="#32C4AA" stroke-width="2" stroke-linecap="round" stroke-miterlimit="10" d="M452.712,419.611
	c-1.826,1.826-4.349,2.956-7.136,2.956c-5.573,0-10.091-4.518-10.091-10.091c0-5.574,4.518-10.092,10.091-10.092
	c5.574,0,10.091,4.518,10.091,10.092C455.668,415.263,454.539,417.785,452.712,419.611"/>
<circle fill="#612273" cx="157.945" cy="275.695" r="28.11"/>
<circle fill="#FED150" cx="226.945" cy="297.789" r="16.763"/>
<path fill="none" stroke="#EB3D72" stroke-width="2" stroke-linecap="round" stroke-miterlimit="10" d="M108.46,272.375
	c-1.826,1.826-4.349,2.956-7.135,2.956c-5.574,0-10.092-4.518-10.092-10.091s4.518-10.091,10.092-10.091
	c5.573,0,10.091,4.518,10.091,10.091C111.416,268.026,110.286,270.549,108.46,272.375"/>
<path fill="none" stroke="#32C4AA" stroke-width="2" stroke-linecap="round" stroke-miterlimit="10" d="M203.712,417.611
	c-1.826,1.826-4.349,2.956-7.136,2.956c-5.573,0-10.091-4.518-10.091-10.091c0-5.574,4.518-10.092,10.091-10.092
	c5.574,0,10.091,4.518,10.091,10.092C206.668,413.263,205.539,415.785,203.712,417.611"/>
<path fill="none" stroke="#EB3D72" stroke-width="2" stroke-linecap="round" stroke-miterlimit="10" d="M359.849,229.525
	c-1.229,1.229-2.927,1.989-4.802,1.989c-3.75,0-6.791-3.04-6.791-6.791c0-3.75,3.04-6.791,6.791-6.791
	c3.75,0,6.791,3.041,6.791,6.791C361.837,226.599,361.077,228.296,359.849,229.525"/>
<path fill="none" stroke="#612273" stroke-width="2" stroke-linecap="round" stroke-miterlimit="10" d="M529.574,290.077
	c-1.229,1.229-2.926,1.989-4.801,1.989c-3.75,0-6.791-3.04-6.791-6.791c0-3.75,3.04-6.79,6.791-6.79c3.75,0,6.791,3.04,6.791,6.79
	C531.563,287.151,530.803,288.849,529.574,290.077"/>
<path fill="none" stroke="#612273" stroke-width="2" stroke-linecap="round" stroke-miterlimit="10" d="M1773.22,504.527
	c-0.244,1.721-1.145,3.348-2.644,4.475c-2.998,2.253-7.255,1.65-9.508-1.348c-2.254-2.998-1.65-7.255,1.348-9.508
	c2.998-2.253,7.255-1.65,9.509,1.348C1773.051,500.993,1773.464,502.807,1773.22,504.527"/>
<path fill="none" stroke="#EB3D72" stroke-width="2" stroke-linecap="round" stroke-miterlimit="10" d="M1554.793,344.43
	c-1.229,1.229-2.926,1.989-4.801,1.989c-3.751,0-6.791-3.04-6.791-6.791c0-3.75,3.04-6.791,6.791-6.791
	c3.75,0,6.79,3.041,6.79,6.791C1556.782,341.503,1556.022,343.201,1554.793,344.43"/>
<path fill="none" stroke="#EB3D72" stroke-width="2" stroke-linecap="round" stroke-miterlimit="10" d="M1434.72,519.891
	c-1.229,1.229-2.927,1.989-4.802,1.989c-3.75,0-6.79-3.04-6.79-6.791s3.04-6.791,6.79-6.791s6.791,3.04,6.791,6.791
	C1436.709,516.964,1435.948,518.662,1434.72,519.891"/>
<ellipse opacity="0.3" fill="#DBD0BA" cx="960" cy="880" rx="195.5" ry="7"/>
</svg>
