<svg xmlns="http://www.w3.org/2000/svg" viewBox="0 0 32 32"><defs><style>.cls-1{fill:#f5c12e;}.cls-2{fill:#1e4f18;}.cls-3{fill:#b58100;}.cls-4{fill:#007042;}</style></defs><title>Ramadhan Flat Icon</title><g id="Line"><rect class="cls-1" x="10" y="10" width="12" height="15"/><path class="cls-2" d="M14.91,7.68a1,1,0,0,1-.54-.16,3,3,0,1,1,3.31,0,1,1,0,0,1-1.12-1.66A1,1,0,0,0,17,5a1,1,0,1,0-1.54.84,1,1,0,0,1,.29,1.38A1,1,0,0,1,14.91,7.68Z"/><path class="cls-3" d="M22.38,10.08a1,1,0,0,0-1.09.21l-2.12,2.12a4.7,4.7,0,0,0-.45.55L16.8,10.4a1,1,0,0,0-1.6,0L13.28,13a4.7,4.7,0,0,0-.45-.55l-2.12-2.12a1,1,0,0,0-1.09-.21A1,1,0,0,0,9,11V24a1,1,0,0,0,.68.95A1.19,1.19,0,0,0,10,25a1,1,0,0,0,.8-.4L13,21.67l2.2,2.93a1,1,0,0,0,1.6,0L19,21.67l2.2,2.93a1,1,0,0,0,.8.4,1.19,1.19,0,0,0,.32-.05A1,1,0,0,0,23,24V11A1,1,0,0,0,22.38,10.08ZM11,21V13.41l.41.42A2,2,0,0,1,12,15.24V19a2,2,0,0,1-.4,1.2Zm7-1.33-2,2.66-2-2.66V15.33l2-2.66,2,2.66v4.34ZM21,21l-.6-.8A2,2,0,0,1,20,19V15.24a2,2,0,0,1,.59-1.41l.41-.42Z"/><path class="cls-4" d="M8,12H24a1,1,0,0,0,1-.72,1,1,0,0,0-.43-1.13l-8-5a1,1,0,0,0-1.06,0l-8,5A1,1,0,0,0,7,11.28,1,1,0,0,0,8,12Z"/><path class="cls-4" d="M24,23H8a1,1,0,0,0-1,.72,1,1,0,0,0,.43,1.13l8,5a1,1,0,0,0,1.06,0l8-5A1,1,0,0,0,25,23.72,1,1,0,0,0,24,23Z"/></g></svg>