<svg xmlns="http://www.w3.org/2000/svg" viewBox="0 0 32 32"><defs><style>.cls-1{fill:#009649;}.cls-2{fill:#ace12e;}</style></defs><title>Ramadhan Flat Icon</title><g id="Line"><path class="cls-1" d="M29.71,15.29,26,11.59V7a1,1,0,0,0-1-1H20.41l-3.7-3.71a1,1,0,0,0-1.42,0L11.59,6H7A1,1,0,0,0,6,7v4.59l-3.71,3.7a1,1,0,0,0,0,1.42L6,20.41V25a1,1,0,0,0,1,1h4.59l3.7,3.71a1,1,0,0,0,1.42,0L20.41,26H25a1,1,0,0,0,1-1V20.41l3.71-3.7A1,1,0,0,0,29.71,15.29Z"/><path class="cls-2" d="M12.88,10C11.26,10,10,11.54,10,13.5S11.26,17,12.88,17l.28,0-.65,3.87A1,1,0,0,0,13.34,22h.16a1,1,0,0,0,1-.84l1.06-6.37a4.15,4.15,0,0,0,.2-1.29C15.75,11.54,14.49,10,12.88,10Zm0,5c-.42,0-.88-.64-.88-1.5s.46-1.5.88-1.5.84.61.87,1.44l-.14.85C13.44,14.72,13.15,15,12.88,15Z"/><path class="cls-2" d="M22,13.5c0-2-1.26-3.5-2.87-3.5s-2.88,1.54-2.88,3.5S17.51,17,19.13,17l.28,0-.65,3.87A1,1,0,0,0,19.59,22h.16a1,1,0,0,0,1-.84l1.06-6.37A4.15,4.15,0,0,0,22,13.5ZM19.13,15c-.42,0-.88-.64-.88-1.5s.46-1.5.88-1.5.84.61.87,1.44l-.14.85C19.69,14.72,19.4,15,19.13,15Z"/></g></svg>