<svg xmlns="http://www.w3.org/2000/svg" viewBox="0 0 32 32"><defs><style>.cls-1{fill:#f0ab00;}.cls-2{fill:#f5c12e;}</style></defs><title>Ramadhan Flat Icon</title><g id="Line"><path class="cls-1" d="M16,15a1,1,0,0,1-1-1V11a1,1,0,0,1,2,0v3A1,1,0,0,1,16,15Z"/><path class="cls-2" d="M16,13A12,12,0,0,0,4,25v1a1,1,0,0,0,1,1H27a1,1,0,0,0,1-1V25A12,12,0,0,0,16,13Z"/><path class="cls-1" d="M27.5,25H4.5a2.5,2.5,0,0,0,0,5h23a2.5,2.5,0,0,0,0-5Z"/><path class="cls-2" d="M16,12a5,5,0,0,0,4.34-2.56,1,1,0,0,0-.05-1.06,1,1,0,0,0-1-.42A1.75,1.75,0,0,1,19,8a2,2,0,0,1-.92-3.76,1,1,0,0,0,.54-.92A1,1,0,0,0,18,2.44,5,5,0,0,0,16,2a5,5,0,0,0,0,10Z"/></g></svg>