<svg xmlns="http://www.w3.org/2000/svg" viewBox="0 0 32 32"><defs><style>.cls-1{fill:#8b0000;}.cls-2{fill:#fbeabc;}.cls-3{fill:#c00;}.cls-4{fill:#ec7a08;}</style></defs><title>Ramadhan Flat Icon</title><g id="Line"><path class="cls-1" d="M15.73,5.31A1,1,0,0,0,15,5H3a1,1,0,0,0-.73.31A1,1,0,0,0,2,6.06l.89,15.12a3,3,0,0,0,3,2.82h6.22a3,3,0,0,0,2-.71,1,1,0,0,0,.34-.65l1.29-11.42L16,6.06A1,1,0,0,0,15.73,5.31Z"/><path class="cls-2" d="M20,8c-5.72,0-8.37,5.09-9,7.78a1,1,0,0,0,.2.85A1,1,0,0,0,12,17H28a1,1,0,0,0,.78-.37,1,1,0,0,0,.2-.85C28.37,13.09,25.72,8,20,8Z"/><path class="cls-3" d="M29.75,16a13.11,13.11,0,0,1-.2,2,15,15,0,0,1-.5,2A9.38,9.38,0,0,1,26,24.51V26a1,1,0,0,1-1,1H15a1,1,0,0,1-1-1V24.51A9.38,9.38,0,0,1,11,20a15,15,0,0,1-.5-2,13.11,13.11,0,0,1-.2-2,1,1,0,0,1,1-1h17.5A1,1,0,0,1,29.75,16Z"/><path class="cls-4" d="M29.55,18a15,15,0,0,1-.5,2H11a15,15,0,0,1-.5-2Z"/></g></svg>