<svg xmlns="http://www.w3.org/2000/svg" viewBox="0 0 32 32"><defs><style>.cls-1{fill:#f0ab00;}</style></defs><title>Ramadhan Flat Icon</title><g id="Line"><path class="cls-1" d="M30,9.69A1,1,0,0,0,29,9H26.82l-.88-2.35a1,1,0,0,0-1.88,0L23.18,9H21a1,1,0,0,0-.58,1.81L22.06,12l-1,2.66A1,1,0,0,0,22,16a1,1,0,0,0,.58-.19L25,14.09l2.42,1.72A1,1,0,0,0,28,16a1,1,0,0,0,.94-1.35l-1-2.66,1.64-1.18A1,1,0,0,0,30,9.69Z"/><path class="cls-1" d="M29,18.75a1,1,0,0,0-1.23.21A9,9,0,1,1,18.92,4.25a1,1,0,0,0,.76-1,1,1,0,0,0-.79-1A14.18,14.18,0,0,0,16,2,14,14,0,1,0,29.44,19.9,1,1,0,0,0,29,18.75Z"/></g></svg>