<svg xmlns="http://www.w3.org/2000/svg" viewBox="0 0 32 32"><defs><style>.cls-1{fill:#009649;}.cls-2{fill:#ace12e;}</style></defs><title>Ramadhan Flat Icon</title><g id="Line"><path class="cls-1" d="M29.71,15.29,26,11.59V7a1,1,0,0,0-1-1H20.41l-3.7-3.71a1,1,0,0,0-1.42,0L11.59,6H7A1,1,0,0,0,6,7v4.59l-3.71,3.7a1,1,0,0,0,0,1.42L6,20.41V25a1,1,0,0,0,1,1h4.59l3.7,3.71a1,1,0,0,0,1.42,0L20.41,26H25a1,1,0,0,0,1-1V20.41l3.71-3.7A1,1,0,0,0,29.71,15.29Z"/><path class="cls-2" d="M23.93,15.29,22,13.36V11a1,1,0,0,0-1-1H18.64L16.71,8.07a1,1,0,0,0-1.42,0L13.36,10H11a1,1,0,0,0-1,1v2.36L8.07,15.29a1,1,0,0,0,0,1.42L10,18.64V21a1,1,0,0,0,1,1h2.36l1.93,1.93a1,1,0,0,0,1.42,0L18.64,22H21a1,1,0,0,0,1-1V18.64l1.93-1.93A1,1,0,0,0,23.93,15.29Z"/></g></svg>