<svg xmlns="http://www.w3.org/2000/svg" viewBox="0 0 32 32"><defs><style>.cls-1{fill:#f0ab00;}.cls-2{fill:#f5c12e;}.cls-3{fill:#0088ce;}.cls-4{fill:#292e34;}.cls-5{fill:#39a5dc;}</style></defs><title>Ramadhan Flat Icon</title><g id="Line"><path class="cls-1" d="M19,20H13a1,1,0,0,0-1,1v3a1,1,0,0,0,.17.55l2,3A1,1,0,0,0,15,28h3a1,1,0,0,0,.95-.68l1-3A1.19,1.19,0,0,0,20,24V21A1,1,0,0,0,19,20Z"/><path class="cls-2" d="M23.5,11.13l-7-4a1,1,0,0,0-1,0l-7,4A1,1,0,0,0,8,12c0,6.07,3.59,11,8,11s8-4.93,8-11A1,1,0,0,0,23.5,11.13Z"/><path class="cls-3" d="M23.55,25.17l-3-2a1,1,0,0,0-.92-.1L16,24.53a2.38,2.38,0,0,0-.6.34,1,1,0,0,0-.39.8v2.48a1,1,0,0,0,.4.8,2.6,2.6,0,0,0,1.53.51,2.5,2.5,0,0,0,1-.21l5.44-2.33a1,1,0,0,0,.61-.83A1,1,0,0,0,23.55,25.17Z"/><path class="cls-4" d="M23,4.86a1,1,0,0,0-.67-.81l-6-2a1,1,0,0,0-.64,0l-6,2A1,1,0,0,0,9,4.86l-1,7A1,1,0,0,0,9.14,13L16,12l6.86,1H23a1,1,0,0,0,.71-.29,1,1,0,0,0,.28-.85Z"/><path class="cls-5" d="M16,24.53l-3.64-1.46a1,1,0,0,0-.92.1l-3,2a1,1,0,0,0-.45.92,1,1,0,0,0,.61.83l5.44,2.33a2.56,2.56,0,0,0,3.43-1.54A2.56,2.56,0,0,0,16,24.53Z"/></g></svg>