<svg xmlns="http://www.w3.org/2000/svg" viewBox="0 0 32 32"><defs><style>.cls-1{fill:#009649;}.cls-2{fill:#e4f5bc;}.cls-3{fill:#007042;}.cls-4{fill:#9ecf99;}.cls-5{fill:#ace12e;}</style></defs><title>Ramadhan Flat Icon</title><g id="Line"><path class="cls-1" d="M27,3V22a.93.93,0,0,1-.15.52.83.83,0,0,1-.11.15l-.13.12a.76.76,0,0,1-.23.13.85.85,0,0,1-.17.06h0l-.09,0-20,2H6a1,1,0,0,1-.67-.26A1,1,0,0,1,5,24V6A4,4,0,0,1,9,2H26A1,1,0,0,1,27,3Z"/><path class="cls-2" d="M25,21H9a4,4,0,0,0,0,8H25a1,1,0,0,0,1-1V22A1,1,0,0,0,25,21Z"/><path class="cls-3" d="M26,29H9a4,4,0,0,1,0-8H26a1,1,0,0,1,0,2H9a2,2,0,0,0,0,4H26a1,1,0,0,1,0,2Z"/><path class="cls-3" d="M27,3V22a.93.93,0,0,1-.15.52.83.83,0,0,1-.11.15l-.13.12a.76.76,0,0,1-.23.13.85.85,0,0,1-.17.06h0L26,23H10a1,1,0,0,1-1-1V2H26A1,1,0,0,1,27,3Z"/><path class="cls-4" d="M21,25a1.09,1.09,0,0,1-1.15,1H8V24H19.85A1.09,1.09,0,0,1,21,25Z"/><polygon class="cls-1" points="20 3 26 8 26 3 20 3"/><polygon class="cls-1" points="26 22 26 17 20 22 26 22"/><polygon class="cls-1" points="10 22 16 22 10 17 10 22"/><polygon class="cls-1" points="10 8 16 3 10 3 10 8"/><path class="cls-5" d="M21,7a1.43,1.43,0,0,1-1-.41l-1.29-1.3a1,1,0,0,0-1.42,0L16,6.59A1.43,1.43,0,0,1,15,7a3,3,0,0,0-3,3v5a3,3,0,0,0,3,3,1.43,1.43,0,0,1,1,.41l1.29,1.3a1,1,0,0,0,1.42,0L20,18.41A1.43,1.43,0,0,1,21,18a3,3,0,0,0,3-3V10A3,3,0,0,0,21,7Z"/><path class="cls-5" d="M13,24v4.67c0,.73-.45,1.33-1,1.33H9c-.55,0-1-.6-1-1.33V24Z"/></g></svg>