<svg xmlns="http://www.w3.org/2000/svg" viewBox="0 0 32 32"><defs><style>.cls-1{fill:#d1d1d1;}.cls-2{fill:#c00;}.cls-3{fill:#8b0000;}.cls-4{fill:#292e34;}</style></defs><title>Ramadhan Flat Icon</title><g id="Line"><path class="cls-1" d="M4,12V29a1,1,0,0,0,1,1H27a1,1,0,0,0,1-1V12Z"/><path class="cls-2" d="M27,4H5A1,1,0,0,0,4,5v7H28V5A1,1,0,0,0,27,4Z"/><path class="cls-3" d="M8,8A1,1,0,0,1,7,7V3A1,1,0,0,1,9,3V7A1,1,0,0,1,8,8Z"/><path class="cls-3" d="M12,8a1,1,0,0,1-1-1V3a1,1,0,0,1,2,0V7A1,1,0,0,1,12,8Z"/><path class="cls-3" d="M20,8a1,1,0,0,1-1-1V3a1,1,0,0,1,2,0V7A1,1,0,0,1,20,8Z"/><path class="cls-3" d="M24,8a1,1,0,0,1-1-1V3a1,1,0,0,1,2,0V7A1,1,0,0,1,24,8Z"/><path class="cls-3" d="M16,8a1,1,0,0,1-1-1V3a1,1,0,0,1,2,0V7A1,1,0,0,1,16,8Z"/><circle class="cls-4" cx="8.5" cy="16.5" r="1.5"/><circle class="cls-4" cx="13.5" cy="16.5" r="1.5"/><circle class="cls-4" cx="18.5" cy="16.5" r="1.5"/><circle class="cls-4" cx="23.5" cy="16.5" r="1.5"/><circle class="cls-4" cx="8.5" cy="20.5" r="1.5"/><circle class="cls-4" cx="13.5" cy="20.5" r="1.5"/><circle class="cls-4" cx="18.5" cy="20.5" r="1.5"/><circle class="cls-4" cx="23.5" cy="20.5" r="1.5"/><circle class="cls-4" cx="8.5" cy="24.5" r="1.5"/><circle class="cls-2" cx="13.5" cy="24.5" r="1.5"/><circle class="cls-2" cx="18.5" cy="24.5" r="1.5"/><circle class="cls-2" cx="23.5" cy="24.5" r="1.5"/></g></svg>