<svg xmlns="http://www.w3.org/2000/svg" viewBox="0 0 32 32"><defs><style>.cls-1{fill:#bbb;}.cls-2{fill:#8b8d8f;}.cls-3{fill:#f0ab00;}.cls-4{fill:#f5c12e;}.cls-5{fill:#292e34;}.cls-6{fill:#007042;}.cls-7{fill:#b58100;}</style></defs><title>Ramadhan Flat Icon</title><g id="Line"><path class="cls-1" d="M24.63,21v2.12a1,1,0,0,1-.29.71,1,1,0,0,1-.71.28h0L8.86,24a1,1,0,0,1-1-.78l-.47-2.05a1,1,0,0,1,0-.57l2.59-6.91a1,1,0,0,1,.57-.58l5-2a1,1,0,0,1,.74,0l5,2a1,1,0,0,1,.57.58l2.63,7A1,1,0,0,1,24.63,21Z"/><path class="cls-2" d="M19.47,19.84l-1-3a.5.5,0,1,0-.94.32l.9,2.7L16,22.29l-2.43-2.43.9-2.7a.5.5,0,0,0-.94-.32l-1,3a.48.48,0,0,0,.12.51l3,3a.48.48,0,0,0,.7,0l3-3A.48.48,0,0,0,19.47,19.84Z"/><path class="cls-3" d="M19.82,12.45,16,15l-3.82-2.55,3.45-1.38a1,1,0,0,1,.74,0Z"/><path class="cls-4" d="M20,6H12a1,1,0,0,0-1,1c0,3,2.52,6,5,6s5-3,5-6A1,1,0,0,0,20,6Z"/><path class="cls-5" d="M16,2a5,5,0,0,0-5,5,1,1,0,0,0,1,1h8a1,1,0,0,0,1-1A5,5,0,0,0,16,2Z"/><path class="cls-6" d="M27.63,20.47a3.69,3.69,0,0,0-3.13-.72L16,22,7.47,19.75A3.67,3.67,0,0,0,3,23.33V24a5,5,0,0,0,5,5H24a5,5,0,0,0,5-5v-.67A3.65,3.65,0,0,0,27.63,20.47Z"/><path class="cls-7" d="M21.91,24.59a1,1,0,0,0-1.32-.5l-4.59,2-4.59-2a1,1,0,1,0-.82,1.82l2.95,1.31-1.95.87A1,1,0,0,0,12,30a1,1,0,0,0,.41-.09L16,28.32l3.59,1.59A1,1,0,0,0,20,30a1,1,0,0,0,.41-1.91l-1.95-.87,2.95-1.31A1,1,0,0,0,21.91,24.59Z"/></g></svg>