<svg xmlns="http://www.w3.org/2000/svg" viewBox="0 0 32 32"><defs><style>.cls-1{fill:#773d00;}.cls-2{fill:#3b1f00;}.cls-3{fill:#f39d3c;}.cls-4{fill:#fbeabc;}.cls-5{fill:#f9d67a;}</style></defs><title>Ramadhan Flat Icon</title><g id="Line"><path class="cls-1" d="M29.85,13.63l-5-8a1,1,0,0,0-.74-.46,1,1,0,0,0-.82.28L16,12.75,8.71,5.45a1,1,0,0,0-.82-.28,1,1,0,0,0-.74.46l-5,8A1,1,0,0,0,2.49,15l7.3,4.32L6.11,26.71a1,1,0,0,0,.21,1.18,1,1,0,0,0,.68.27A1.06,1.06,0,0,0,7.51,28L16,23l8.49,5a1.06,1.06,0,0,0,.51.14,1,1,0,0,0,.68-.27,1,1,0,0,0,.21-1.18l-3.68-7.37L29.51,15a1,1,0,0,0,.34-1.39Z"/><path class="cls-2" d="M16,23,7.51,28a1.06,1.06,0,0,1-.51.14,1,1,0,0,1-.68-.27,1,1,0,0,1-.21-1.18L9.8,19.34Z"/><path class="cls-2" d="M25.68,27.89a1,1,0,0,1-.68.27,1.06,1.06,0,0,1-.51-.14L16,23l6.2-3.66,3.69,7.37A1,1,0,0,1,25.68,27.89Z"/><path class="cls-3" d="M26.87,11.66l0,0-.85.54-10,6-10-6-.85-.54,0,0A1,1,0,0,0,5.49,13l10,6a1,1,0,0,0,1,0l10-6A1,1,0,0,0,26.87,11.66Z"/><path class="cls-4" d="M26.83,11.59l-4-6.93a1,1,0,0,0-.67-.48C22,4.14,18,3.39,16,5.35c-2-2-6-1.21-6.2-1.17a1,1,0,0,0-.67.48l-4,6.93,0,0,.85.54,10,6,10-6,.85-.54Z"/><path class="cls-5" d="M26.88,11.6l0,0-.85.54-10,6s0-8,9-7l1,.24.83.19Z"/><path class="cls-5" d="M16,18.16l-10-6-.85-.54,0,0h0L6,11.4l1-.24C16,10.16,16,18.16,16,18.16Z"/></g></svg>