<svg xmlns="http://www.w3.org/2000/svg" viewBox="0 0 32 32"><defs><style>.cls-1{fill:#a30000;}.cls-2{fill:#c00;}.cls-3{fill:#ec7a08;}</style></defs><title>Ramadhan Flat Icon</title><g id="Line"><path class="cls-1" d="M19,26a1,1,0,0,0-1,1v2a1,1,0,0,0,2,0V27A1,1,0,0,0,19,26Z"/><path class="cls-1" d="M22,26a1,1,0,0,0-1,1v2a1,1,0,0,0,2,0V27A1,1,0,0,0,22,26Z"/><path class="cls-1" d="M16,26a1,1,0,0,0-1,1v2a1,1,0,0,0,2,0V27A1,1,0,0,0,16,26Z"/><path class="cls-1" d="M13,26a1,1,0,0,0-1,1v2a1,1,0,0,0,2,0V27A1,1,0,0,0,13,26Z"/><path class="cls-1" d="M10,26a1,1,0,0,0-1,1v2a1,1,0,0,0,2,0V27A1,1,0,0,0,10,26Z"/><path class="cls-1" d="M19,2a1,1,0,0,0-1,1V5a1,1,0,0,0,2,0V3A1,1,0,0,0,19,2Z"/><path class="cls-1" d="M22,2a1,1,0,0,0-1,1V5a1,1,0,0,0,2,0V3A1,1,0,0,0,22,2Z"/><path class="cls-1" d="M16,2a1,1,0,0,0-1,1V5a1,1,0,0,0,2,0V3A1,1,0,0,0,16,2Z"/><path class="cls-1" d="M13,2a1,1,0,0,0-1,1V5a1,1,0,0,0,2,0V3A1,1,0,0,0,13,2Z"/><path class="cls-1" d="M10,2A1,1,0,0,0,9,3V5a1,1,0,0,0,2,0V3A1,1,0,0,0,10,2Z"/><rect class="cls-2" x="8" y="4" width="16" height="24" rx="1"/><path class="cls-3" d="M20,12h0a5,5,0,0,0-1.42-2.88L16.71,7.29a1,1,0,0,0-1.42,0L13.46,9.12A5,5,0,0,0,12,12h0a1,1,0,0,0-1,1V24a1,1,0,0,0,1,1h8a1,1,0,0,0,1-1V13A1,1,0,0,0,20,12Z"/></g></svg>