<svg xmlns="http://www.w3.org/2000/svg" viewBox="0 0 32 32"><defs><style>.cls-1{fill:#fbeabc;}.cls-2{fill:#bbb;}.cls-3{fill:#c00;}</style></defs><title>Ramadhan Flat Icon</title><g id="Line"><circle class="cls-1" cx="16" cy="16" r="13"/><path class="cls-2" d="M18,6.5a.5.5,0,0,0-.5.5V23.17a2.34,2.34,0,1,0,4.64-.39l-.55-3.28H23a.5.5,0,0,0,.5-.54C23.39,17.68,22.33,6.5,18,6.5Z"/><path class="cls-2" d="M14.5,11.5c0-2.8-1.54-5-3.5-5s-3.5,2.2-3.5,5a5.63,5.63,0,0,0,1.71,4.29L8.65,23a2.36,2.36,0,1,0,4.7,0l-.56-7.2A5.63,5.63,0,0,0,14.5,11.5Z"/><path class="cls-3" d="M16,2A14,14,0,1,0,30,16,14,14,0,0,0,16,2Zm0,2a11.89,11.89,0,0,1,7.74,2.85L6.85,23.74A12,12,0,0,1,16,4Zm0,24a11.89,11.89,0,0,1-7.74-2.85L25.15,8.26A12,12,0,0,1,16,28Z"/></g></svg>