<svg xmlns="http://www.w3.org/2000/svg" viewBox="0 0 32 32"><defs><style>.cls-1{fill:#292e34;}.cls-2{fill:#8b8d8f;}.cls-3{fill:#f5c12e;}.cls-4{fill:#f0ab00;}.cls-5{fill:#bbb;}.cls-6{fill:#393f44;}.cls-7{fill:#72767b;}</style></defs><title>Ramadhan Flat Icon</title><g id="Line"><path class="cls-1" d="M7,30a1,1,0,0,1-1-1V22a1,1,0,0,1,2,0v7A1,1,0,0,1,7,30Z"/><path class="cls-2" d="M25.68,17.25a1,1,0,0,0-1.24.08L12.33,28.26A1,1,0,0,0,13,30H28a1,1,0,0,0,1-1V23.61A7.75,7.75,0,0,0,25.68,17.25Z"/><path class="cls-3" d="M28.18,12l-11-2a1,1,0,0,0-1.15.74,8,8,0,0,0,2,7.92,1,1,0,0,0,.59.25l5.82.44h.08a1,1,0,0,0,.41-.09A6.77,6.77,0,0,0,29,13,1,1,0,0,0,28.18,12Z"/><path class="cls-1" d="M29.71,7.29c-3.13-3.12-8.22-5.82-12.26-3.12a1,1,0,0,0-.44.67l-1,6A1,1,0,0,0,16.82,12l11,2L28,14a1,1,0,0,0,1-.8l1-5A1,1,0,0,0,29.71,7.29Z"/><path class="cls-4" d="M25.37,16.06a2.84,2.84,0,0,0-5-2.6L18.2,16.4a.85.85,0,0,0-.15.3l-.91,2.86a1,1,0,0,0,.33,1.08l2.78,2.23a1,1,0,0,0,.63.22.91.91,0,0,0,.45-.11l2.13-1.09a.93.93,0,0,0,.37-.34l1.22-1.82a2.73,2.73,0,0,0,.07-2.91Z"/><path class="cls-5" d="M22.63,22.22l-5-4a1,1,0,0,0-.84-.2,1,1,0,0,0-.68.53l-5,10A1,1,0,0,0,12,30h7a1,1,0,0,0,.89-.55l3-6A1,1,0,0,0,22.63,22.22Z"/><path class="cls-6" d="M11.83,18.45l-2-3a1,1,0,0,0-1.47-.22l-6,5a1,1,0,0,0-.25,1.22l1,2a1,1,0,0,0,.6.51A.92.92,0,0,0,4,24a1,1,0,0,0,.5-.13l7-4a1,1,0,0,0,.47-.64A.94.94,0,0,0,11.83,18.45Z"/><circle class="cls-7" cx="11.5" cy="16.5" r="3.5"/></g></svg>