<svg xmlns="http://www.w3.org/2000/svg" viewBox="0 0 32 32"><defs><style>.cls-1{fill:#f9d67a;}.cls-2{fill:#f5c12e;}.cls-3{fill:#bbb;}</style></defs><title>Ramadhan Flat Icon</title><g id="Line"><path class="cls-1" d="M16.8,4.82a2.58,2.58,0,0,0-.65-1.95,2.6,2.6,0,0,0-4.44,1L10,9.73l0,.13-.93,6.48L5.55,18.11A1,1,0,0,0,5,19v8a1,1,0,0,0,.51.87A1,1,0,0,0,6,28a1,1,0,0,0,.51-.14l8-4.82A5,5,0,0,0,17,18.69Z"/><path class="cls-2" d="M26.45,18.11l-3.53-1.77L22,9.86l0-.13L20.29,3.89A2.58,2.58,0,0,0,16,2.73v19A5,5,0,0,0,17.46,23l8,4.82A1,1,0,0,0,26,28a1,1,0,0,0,.49-.13A1,1,0,0,0,27,27V19A1,1,0,0,0,26.45,18.11Z"/><path class="cls-3" d="M6.58,16.19a1,1,0,0,0-.9-.14l-3,1A1,1,0,0,0,2,18V30a1,1,0,0,0,1,1H6a1,1,0,0,0,1-1V17A1,1,0,0,0,6.58,16.19Z"/><path class="cls-3" d="M29.32,17.05l-3-1a1,1,0,0,0-.9.14A1,1,0,0,0,25,17V30a1,1,0,0,0,1,1h3a1,1,0,0,0,1-1V18A1,1,0,0,0,29.32,17.05Z"/></g></svg>