<svg xmlns="http://www.w3.org/2000/svg" viewBox="0 0 32 32"><defs><style>.cls-1{fill:#795600;}.cls-2{fill:#b58100;}.cls-3{fill:#f9d67a;}.cls-4{fill:#fbeabc;}</style></defs><title>Ramadhan Flat Icon</title><g id="Line"><path class="cls-1" d="M24.09,6.91h0L17.71,4.66a1,1,0,0,0-1.28.61A172.68,172.68,0,0,0,19.78,22.5l-2.74,1a1,1,0,0,0-.61,1.27,1,1,0,0,0,.95.67,1,1,0,0,0,.33-.06l6.37-2.24h0a8.5,8.5,0,0,0,0-16.18Z"/><path class="cls-2" d="M14,3a1,1,0,0,0-1,1V5a1,1,0,0,0,2,0V4A1,1,0,0,0,14,3Z"/><path class="cls-2" d="M14,24a1,1,0,0,0-1,1v1a1,1,0,0,0,2,0V25A1,1,0,0,0,14,24Z"/><path class="cls-2" d="M25,14H24a1,1,0,0,0,0,2h1a1,1,0,0,0,0-2Z"/><path class="cls-2" d="M4,14H3a1,1,0,0,0,0,2H4a1,1,0,0,0,0-2Z"/><path class="cls-2" d="M21.07,6.51l-.71.71a1,1,0,0,0,0,1.42,1,1,0,0,0,.71.29,1,1,0,0,0,.71-.29l.71-.71a1,1,0,1,0-1.42-1.42Z"/><path class="cls-2" d="M6.22,21.36l-.71.71a1,1,0,0,0,0,1.42,1,1,0,0,0,.71.29,1,1,0,0,0,.71-.29l.71-.71a1,1,0,0,0-1.42-1.42Z"/><path class="cls-2" d="M6.93,6.51A1,1,0,0,0,5.51,7.93l.71.71a1,1,0,0,0,.71.29,1,1,0,0,0,.71-.29,1,1,0,0,0,0-1.42Z"/><path class="cls-2" d="M21.78,21.36a1,1,0,0,0-1.42,1.42l.71.71a1,1,0,0,0,.71.29,1,1,0,0,0,.71-.29,1,1,0,0,0,0-1.42Z"/><circle class="cls-3" cx="14" cy="15" r="11"/><path class="cls-1" d="M8,29a1,1,0,0,1-.24,0A1,1,0,0,1,7,27.76l2-8a1,1,0,0,1,1.94.48l-2,8A1,1,0,0,1,8,29Z"/><path class="cls-1" d="M20,29a1,1,0,0,1-1-.76l-2-8A1,1,0,1,1,19,19.76l2,8A1,1,0,0,1,20.24,29,1,1,0,0,1,20,29Z"/><circle class="cls-4" cx="10.5" cy="17.5" r="3.5"/><circle class="cls-4" cx="17.5" cy="17.5" r="3.5"/></g></svg>