<svg xmlns="http://www.w3.org/2000/svg" viewBox="0 0 32 32"><defs><style>.cls-1{fill:#f0ab00;}.cls-2{fill:#ec7a08;}</style></defs><title>Ramadhan Flat Icon</title><g id="Line"><path class="cls-1" d="M26,18.68A10.5,10.5,0,0,0,16,12a10.5,10.5,0,0,0-9.95,6.68,1,1,0,0,0,.14.9A1,1,0,0,0,7,20H25a1,1,0,0,0,.81-.42A1,1,0,0,0,26,18.68Z"/><path class="cls-2" d="M29,18H3a1,1,0,0,0,0,2H29a1,1,0,0,0,0-2Z"/><path class="cls-2" d="M26,22H6a1,1,0,0,0,0,2H26a1,1,0,0,0,0-2Z"/><path class="cls-2" d="M21,26H11a1,1,0,0,0,0,2H21a1,1,0,0,0,0-2Z"/><path class="cls-2" d="M16,11a1,1,0,0,0,1-1V5a1,1,0,0,0-2,0v5A1,1,0,0,0,16,11Z"/><path class="cls-2" d="M26,16a.94.94,0,0,0,.55-.17l3-2a1,1,0,0,0-1.1-1.66l-3,2A1,1,0,0,0,26,16Z"/><path class="cls-2" d="M5.45,15.83A.94.94,0,0,0,6,16a1,1,0,0,0,.55-1.83l-3-2a1,1,0,1,0-1.1,1.66Z"/><path class="cls-2" d="M21.55,11.89A.93.93,0,0,0,22,12a1,1,0,0,0,.89-.55l1-2a1,1,0,1,0-1.78-.9l-1,2A1,1,0,0,0,21.55,11.89Z"/><path class="cls-2" d="M9.11,11.45A1,1,0,0,0,10,12a.93.93,0,0,0,.45-.11,1,1,0,0,0,.44-1.34l-1-2a1,1,0,0,0-1.78.9Z"/></g></svg>