<svg xmlns="http://www.w3.org/2000/svg" viewBox="0 0 32 32"><defs><style>.cls-1{fill:#39a5dc;}.cls-2{fill:#f5c12e;}.cls-3{fill:#0088ce;}</style></defs><title>Ramadhan Flat Icon</title><g id="Line"><path class="cls-1" d="M26.86,25.49,24.15,21A13.78,13.78,0,0,0,26,14C26,7.38,21.51,2,16,2S6,7.38,6,14a13.78,13.78,0,0,0,1.85,7L5.14,25.49a1,1,0,0,0-.09.83,1,1,0,0,0,.58.61L10.8,29a14,14,0,0,0,10.4,0l5.17-2.07a1,1,0,0,0,.58-.61A1,1,0,0,0,26.86,25.49Z"/><path class="cls-2" d="M23.3,13.62C23.3,18.79,20,23,16,23s-7.3-4.21-7.3-9.38a.75.75,0,0,1,0-.26s0-.16.1-.36C9.32,11.51,11.4,6,16,6s6.68,5.51,7.16,7c.06.2.09.32.1.36A.75.75,0,0,1,23.3,13.62Z"/><path class="cls-3" d="M23.16,13H21.4a1,1,0,0,1-.51-.14C20,12.34,17.41,11,16,11s-4,1.34-4.89,1.86a1,1,0,0,1-.51.14H8.84C9.32,11.51,11.4,6,16,6S22.68,11.51,23.16,13Z"/></g></svg>