<svg xmlns="http://www.w3.org/2000/svg" viewBox="0 0 32 32"><defs><style>.cls-1{fill:#773d00;}.cls-2{fill:#3b1f00;}.cls-3{fill:#f39d3c;}</style></defs><title>Ramadhan Flat Icon</title><g id="Line"><path class="cls-1" d="M27.05,2.23a1,1,0,0,0-1.4.13L20.11,9h-3.7a1,1,0,0,0,0,2h2L16,14H12.41a1,1,0,0,0,0,2h.88L8.83,19.19a1,1,0,0,0-.23,1.39,1,1,0,0,0,.82.42,1,1,0,0,0,.58-.19l3.41-2.44V20a1,1,0,0,0,2,0V17s0,0,0-.05L17,15.81l.08-.08.06-.05s0,0,0,0l1.23-1.48V17a1,1,0,0,0,2,0V12a1.08,1.08,0,0,0,0-.19l2-2.45V12a1,1,0,0,0,2,0V7l2.77-3.33A1,1,0,0,0,27.05,2.23Z"/><path class="cls-2" d="M23.91,11a2.51,2.51,0,0,0-2.5,2.5v2a2.5,2.5,0,0,0,5,0v-2A2.5,2.5,0,0,0,23.91,11Z"/><path class="cls-2" d="M12.91,12h2a2.5,2.5,0,0,0,0-5h-2a2.5,2.5,0,0,0,0,5Z"/><path class="cls-2" d="M19.91,16a2.51,2.51,0,0,0-2.5,2.5v2a2.5,2.5,0,0,0,5,0v-2A2.5,2.5,0,0,0,19.91,16Z"/><path class="cls-2" d="M13.41,14.5a2.5,2.5,0,0,0-2.5-2.5h-2a2.5,2.5,0,0,0,0,5h2A2.5,2.5,0,0,0,13.41,14.5Z"/><path class="cls-2" d="M14.91,19a2.51,2.51,0,0,0-2.5,2.5v2a2.5,2.5,0,0,0,5,0v-2A2.5,2.5,0,0,0,14.91,19Z"/><path class="cls-2" d="M6.15,19.32,4.73,20.73a2.51,2.51,0,0,0,0,3.54,2.51,2.51,0,0,0,3.54,0l1.41-1.42a2.5,2.5,0,0,0-3.53-3.53Z"/><path class="cls-3" d="M29,24H3a1,1,0,0,0-1,1,5,5,0,0,0,5,5H25a5,5,0,0,0,5-5A1,1,0,0,0,29,24Z"/></g></svg>