<svg xmlns="http://www.w3.org/2000/svg" viewBox="0 0 32 32"><defs><style>.cls-1{fill:#6ca100;}.cls-2{fill:#c8eb79;}.cls-3{fill:#92d400;}.cls-4{fill:#e4f5bc;}</style></defs><title>Ramadhan Flat Icon</title><g id="Line"><rect class="cls-1" x="2" y="13" width="28" height="17" rx="1"/><path class="cls-2" d="M17.2,2.6l-.65-.43a1,1,0,0,0-1.1,0l-.65.43C11.43,4.83,9,6.44,9,11.21V13a1,1,0,0,0,1,1H22a1,1,0,0,0,1-1V11.21C23,6.44,20.57,4.83,17.2,2.6Z"/><path class="cls-3" d="M26,13.22V30H6V13.22A1.5,1.5,0,0,1,6,13a1.07,1.07,0,0,1,1-1H25a1.07,1.07,0,0,1,1,1A1.5,1.5,0,0,1,26,13.22Z"/><path class="cls-4" d="M22,22v8H10V22a6,6,0,0,1,12,0Z"/></g></svg>