<svg xmlns="http://www.w3.org/2000/svg" viewBox="0 0 32 32"><defs><style>.cls-1{fill:#f5c12e;}.cls-2{fill:#ec7a08;}.cls-3{fill:#fbeabc;}.cls-4{fill:#f39d3c;}</style></defs><title>Ramadhan Flat Icon</title><g id="Line"><path class="cls-1" d="M23.46,15.18a1,1,0,0,0-1.23-.13A6,6,0,1,1,17.58,4.18a1,1,0,0,0,0-1.95A9.71,9.71,0,0,0,15.5,2a9.5,9.5,0,1,0,8.12,14.41A1,1,0,0,0,23.46,15.18Z"/><path class="cls-1" d="M23,9a1,1,0,0,0-1-1H21V7a1,1,0,0,0-2,0V8H18a1,1,0,0,0,0,2h.13l-.3.45a1,1,0,0,0,.28,1.38,1,1,0,0,0,.56.17,1,1,0,0,0,.83-.45l.5-.75.5.75a1,1,0,0,0,.83.45,1,1,0,0,0,.56-.17,1,1,0,0,0,.28-1.38l-.3-.45H22A1,1,0,0,0,23,9Z"/><path class="cls-2" d="M27.76,21.35A1,1,0,0,0,27,21H20a1,1,0,0,0-.76.35,1,1,0,0,0-.23.79l.89,6.11a2,2,0,0,0,2,1.75h3.24a2,2,0,0,0,2-1.73L28,22.14A1,1,0,0,0,27.76,21.35Z"/><path class="cls-3" d="M20.71,25.29A12.06,12.06,0,0,0,13,22a12.06,12.06,0,0,0-7.71,3.29,1,1,0,0,0-.21,1.09A1,1,0,0,0,6,27H20a1,1,0,0,0,.92-.62A1,1,0,0,0,20.71,25.29Z"/><path class="cls-4" d="M21.88,25.53A1,1,0,0,0,21,25H5a1,1,0,0,0-.88.53,1,1,0,0,0,0,1l1.4,2.11A3,3,0,0,0,8.07,30h9.86a3,3,0,0,0,2.5-1.34l1.4-2.11A1,1,0,0,0,21.88,25.53Z"/></g></svg>