<svg xmlns="http://www.w3.org/2000/svg" viewBox="0 0 32 32"><defs><style>.cls-1{fill:#a30000;}.cls-2{fill:#8b0000;}.cls-3{fill:#bee1f4;}.cls-4{fill:#f5c12e;}</style></defs><title>Ramadhan Flat Icon</title><g id="Line"><path class="cls-1" d="M29,2H25a5,5,0,0,0-5,5v3a1,1,0,0,0,1,1h4a1,1,0,0,0,1-1V8.17A.16.16,0,0,1,26.17,8H29a1,1,0,0,0,1-1V3A1,1,0,0,0,29,2Z"/><path class="cls-2" d="M25.5,9h-5a2.5,2.5,0,0,0,0,5h5a2.5,2.5,0,0,0,0-5Z"/><path class="cls-3" d="M25,16l-1.2-1.6a1,1,0,0,0-1.6,0L21,16a2.5,2.5,0,1,0,4,0Z"/><path class="cls-4" d="M12,24l6,1,9.11-2.49A1.5,1.5,0,0,1,29,24h0a1.5,1.5,0,0,1-1,1.41L18,29,8,28H3V21H7l4-2h6.29A1.72,1.72,0,0,1,19,20.71h0a1.71,1.71,0,0,1-1.24,1.64Z"/></g></svg>