<svg xmlns="http://www.w3.org/2000/svg" viewBox="0 0 32 32"><defs><style>.cls-1{fill:#4d5258;}.cls-2{fill:#72767b;}.cls-3{fill:#292e34;}.cls-4{fill:#f5c12e;}.cls-5{fill:#b58100;}</style></defs><title>Ramadhan Flat Icon</title><g id="Line"><path class="cls-1" d="M30,7V25a1,1,0,0,1-.71,1l-13,4a1.07,1.07,0,0,1-.58,0l-13-4A1,1,0,0,1,2,25V7a1,1,0,0,1,.06-.35L16,11,29.94,6.65A1,1,0,0,1,30,7Z"/><path class="cls-2" d="M29.29,6l-13-4-.12,0a.8.8,0,0,0-.46,0l-13,4a1,1,0,0,0-.65.61L16,11,29.94,6.65A1,1,0,0,0,29.29,6Z"/><path class="cls-3" d="M30,7V25a1,1,0,0,1-.71,1l-13,4A.92.92,0,0,1,16,30V11L29.94,6.65A1,1,0,0,1,30,7Z"/><polygon class="cls-4" points="16 15 2 11 2 15 16 19 30 15 30 11 16 15"/><polygon class="cls-5" points="16 15 16 19 30 15 30 11 16 15"/></g></svg>