<svg xmlns="http://www.w3.org/2000/svg" viewBox="0 0 32 32"><defs><style>.cls-1{fill:#c00;}.cls-2{fill:#ace12e;}.cls-3{fill:#007042;}.cls-4{fill:#009649;}</style></defs><title>Ramadhan Flat Icon</title><g id="Line"><path class="cls-1" d="M16,9h-.33L6,10.42a.59.59,0,0,0-.19.05C2.65,11.59,2,13,2,14v2a14,14,0,0,0,28,0V14C30,10.72,23,9,16,9Z"/><path class="cls-2" d="M28.24,15c-2.38-1.85-7.07-3-12.24-3S6.14,13.14,3.76,15a1,1,0,0,0-.39.84,1,1,0,0,0,.47.8C6.21,18.09,10.87,19,16,19s9.79-.91,12.16-2.37a1,1,0,0,0,.47-.8A1,1,0,0,0,28.24,15Z"/><path class="cls-3" d="M12,8.77c-.75-3.16-4.45-4.64-4.61-4.7a1,1,0,0,0-1.26.49C6,4.71,4.31,8.23,5,11.23c.75,3.16,4.45,4.64,4.61,4.7A.89.89,0,0,0,10,16a1,1,0,0,0,.9-.56C11,15.29,12.69,11.77,12,8.77Z"/><path class="cls-4" d="M15.78,4.37A1,1,0,0,0,14.7,4c-.19.06-4.7,1.5-4.7,5a14.43,14.43,0,0,0,1.09,5.41,1,1,0,0,0,.6.54A1.06,1.06,0,0,0,12,15a1,1,0,0,0,.49-.13C13,14.61,17,12.25,17,9A7.58,7.58,0,0,0,15.78,4.37Z"/></g></svg>