<svg xmlns="http://www.w3.org/2000/svg" viewBox="0 0 32 32"><defs><style>.cls-1{fill:#8b0000;}.cls-2{fill:#c00;}.cls-3{fill:#f9d67a;}.cls-4{fill:#f0ab00;}</style></defs><title>Ramadhan Flat Icon</title><g id="Line"><path class="cls-1" d="M8.2,24.4l-3,4a1,1,0,0,0,.2,1.4A1,1,0,0,0,6,30a1,1,0,0,0,.8-.4l3-4a1,1,0,0,0-1.6-1.2Z"/><path class="cls-1" d="M26.8,28.4l-3-4a1,1,0,0,0-1.6,1.2l3,4a1,1,0,0,0,.8.4,1,1,0,0,0,.6-.2A1,1,0,0,0,26.8,28.4Z"/><circle class="cls-2" cx="16" cy="17" r="11"/><circle class="cls-3" cx="16" cy="17" r="6.67"/><path class="cls-1" d="M16,24.67A7.67,7.67,0,1,1,23.67,17,7.68,7.68,0,0,1,16,24.67Zm0-13.34A5.67,5.67,0,1,0,21.67,17,5.68,5.68,0,0,0,16,11.33Z"/><path class="cls-1" d="M19.33,18H16a1,1,0,0,1-1-1V13.67a1,1,0,0,1,2,0V16h2.33a1,1,0,0,1,0,2Z"/><path class="cls-4" d="M25,2a5,5,0,0,0-4.48,2.82A1,1,0,0,0,20.75,6l5.74,5.1a1,1,0,0,0,1.21.09A5,5,0,0,0,25,2Z"/><path class="cls-4" d="M7,2a5,5,0,0,0-2.7,9.2,1,1,0,0,0,1.21-.09L11.25,6a1,1,0,0,0,.23-1.19A5,5,0,0,0,7,2Z"/></g></svg>