<svg xmlns="http://www.w3.org/2000/svg" viewBox="0 0 32 32"><defs><style>.cls-1{fill:#009649;}.cls-2{fill:#ace12e;}</style></defs><title>Ramadhan Flat Icon</title><g id="Line"><path class="cls-1" d="M29.71,15.29,26,11.59V7a1,1,0,0,0-1-1H20.41l-3.7-3.71a1,1,0,0,0-1.42,0L11.59,6H7A1,1,0,0,0,6,7v4.59l-3.71,3.7a1,1,0,0,0,0,1.42L6,20.41V25a1,1,0,0,0,1,1h4.59l3.7,3.71a1,1,0,0,0,1.42,0L20.41,26H25a1,1,0,0,0,1-1V20.41l3.71-3.7A1,1,0,0,0,29.71,15.29Z"/><path class="cls-2" d="M23.24,16.66A1,1,0,0,0,22,17a5,5,0,1,1-7-7,1,1,0,0,0-.82-1.77,8,8,0,1,0,9.58,9.58A1,1,0,0,0,23.24,16.66Z"/><path class="cls-2" d="M22,12a1,1,0,0,0-1-1H20V10a1,1,0,0,0-2,0v1H17a1,1,0,0,0,0,2h.13l-.3.45a1,1,0,0,0,.28,1.38,1,1,0,0,0,.56.17,1,1,0,0,0,.83-.45l.5-.75.5.75a1,1,0,0,0,.83.45,1,1,0,0,0,.56-.17,1,1,0,0,0,.28-1.38l-.3-.45H21A1,1,0,0,0,22,12Z"/></g></svg>