<svg xmlns="http://www.w3.org/2000/svg" viewBox="0 0 32 32"><defs><style>.cls-1{fill:#c00;}.cls-2{fill:#f9d67a;}.cls-3{fill:#8b0000;}</style></defs><title>Ramadhan Flat Icon</title><g id="Line"><path class="cls-1" d="M16,2A14,14,0,1,0,30,16,14,14,0,0,0,16,2Zm0,24A10,10,0,1,1,26,16,10,10,0,0,1,16,26Z"/><circle class="cls-2" cx="16" cy="16" r="10"/><path class="cls-3" d="M16,5A11,11,0,1,0,27,16,11,11,0,0,0,16,5Zm1,19.94V24a1,1,0,0,0-2,0v.94A9,9,0,0,1,7.06,17H8a1,1,0,0,0,0-2H7.06A9,9,0,0,1,15,7.06V8a1,1,0,0,0,2,0V7.06A9,9,0,0,1,24.94,15H24a1,1,0,0,0,0,2h.94A9,9,0,0,1,17,24.94Z"/><path class="cls-3" d="M19.51,10.14a1,1,0,0,0-1.37.35l-3,5A1,1,0,0,0,15,16v4a1,1,0,0,0,2,0V16.28l2.86-4.77A1,1,0,0,0,19.51,10.14Z"/></g></svg>