<svg xmlns="http://www.w3.org/2000/svg" viewBox="0 0 32 32"><defs><style>.cls-1{fill:#f0ab00;}</style></defs><title>Ramadhan Flat Icon</title><g id="Line"><path class="cls-1" d="M26.21,12.27a1.44,1.44,0,0,1-.87-.64L23.68,8.85a3.82,3.82,0,0,0-6.32-.33l-1.49,2a3,3,0,0,1-1.28,1l-2.59,1V5.12A3.12,3.12,0,0,0,8.88,2a3.09,3.09,0,0,0-2.21.91L5.46,4.13l-.88.29A3.77,3.77,0,0,0,2,8,1,1,0,0,0,3,9H6v7.08A5,5,0,0,0,7.88,20l3.5,2.8a.9.9,0,0,0,.32.17l.2,1.42a3.19,3.19,0,0,1-.06,1.15L11,28.76a1,1,0,0,0,.18.86A1,1,0,0,0,12,30h3a1,1,0,0,0,1-.88L16.88,22h2.79a5,5,0,0,0,3-1l1.58-1.19.65,4.56a3.19,3.19,0,0,1-.06,1.15L24,28.76a1,1,0,0,0,.18.86A1,1,0,0,0,25,30h3a1,1,0,0,0,1-.84l1-6A.81.81,0,0,0,30,23V17.12A5,5,0,0,0,26.21,12.27Z"/></g></svg>