<svg xmlns="http://www.w3.org/2000/svg" viewBox="0 0 32 32"><defs><style>.cls-1{fill:#007042;}.cls-2{fill:#009649;}.cls-3{fill:#ace12e;}</style></defs><title>Ramadhan Flat Icon</title><g id="Line"><path class="cls-1" d="M18,2.88A1,1,0,0,0,17,2H15a1,1,0,0,0-1,.88l-.93,7.44a1,1,0,0,0,.24.79,1,1,0,0,0,.75.34h3.86a1,1,0,0,0,.75-.34,1,1,0,0,0,.24-.79Z"/><path class="cls-1" d="M21.8,26.4,19,22.68a1,1,0,0,0-.8-.4H13.79a1,1,0,0,0-.8.4L10.2,26.4a1.06,1.06,0,0,0-.19.77,1,1,0,0,0,.44.66l3,2a1,1,0,0,0,.81.14,1,1,0,0,0,.63-.52L16,27.24l1.11,2.21a1,1,0,0,0,.63.52A1.15,1.15,0,0,0,18,30a1,1,0,0,0,.55-.17l3-2a1,1,0,0,0,.44-.66A1.06,1.06,0,0,0,21.8,26.4Z"/><path class="cls-2" d="M23.78,14.88l-1.41-1.41-2.83-2.83L18.88,10l-.76-.76a3,3,0,0,0-4.24,0l-.76.76-.65.66L9.64,13.47,8.22,14.88a3,3,0,0,0,0,4.24l1.42,1.42,2.83,2.83,1.41,1.41a3,3,0,0,0,4.24,0l1.41-1.41h0l2.83-2.83,1.41-1.42A3,3,0,0,0,23.78,14.88Z"/><polygon class="cls-3" points="11.05 19.12 9.64 20.54 12.47 23.37 12.51 23.32 13.5 22.33 13.88 21.95 16 19.83 13.17 17 11.05 19.12"/><polygon class="cls-3" points="20.95 14.88 22.37 13.47 19.54 10.64 18.12 12.05 16 14.17 18.83 17 20.95 14.88"/><polygon class="cls-3" points="13.17 11.34 12.47 10.64 9.64 13.47 10.34 14.17 11.05 14.88 13.17 17 16 14.17 13.17 11.34"/><polygon class="cls-3" points="16 19.83 18.12 21.95 18.5 22.33 18.83 22.66 19.49 23.32 19.53 23.37 19.54 23.37 22.37 20.54 18.83 17 16 19.83"/></g></svg>