<svg xmlns="http://www.w3.org/2000/svg" viewBox="0 0 32 32"><defs><style>.cls-1{fill:#39a5dc;}.cls-2{fill:#7dc3e8;}.cls-3{fill:#0088ce;}.cls-4{fill:#bedee1;}</style></defs><title>Ramadhan Flat Icon</title><g id="Line"><path class="cls-1" d="M29,10V29a1,1,0,0,1-1,1H4a1,1,0,0,1-1-1V10A1,1,0,0,1,4,9h6a1,1,0,0,1,1,.78h0A1.49,1.49,0,0,1,11,10v2H21V10a1.49,1.49,0,0,1,0-.21h0A1,1,0,0,1,22,9h6A1,1,0,0,1,29,10Z"/><path class="cls-2" d="M27.54,4.12,25.71,2.29a1,1,0,0,0-1.42,0L22.46,4.12A5,5,0,0,0,21,7.66V10a1,1,0,0,0,1,1h6a1,1,0,0,0,1-1V7.66A5,5,0,0,0,27.54,4.12Z"/><path class="cls-2" d="M7.71,2.29a1,1,0,0,0-1.42,0L4.46,4.12A5,5,0,0,0,3,7.66V10a1,1,0,0,0,1,1h6a1,1,0,0,0,1-1V7.66A5,5,0,0,0,9.54,4.12Z"/><path class="cls-2" d="M16,8a3,3,0,0,1-1.5-5.6,1,1,0,0,1,1,1.73A1,1,0,0,0,16,6a1.06,1.06,0,0,0,.5-.13,1,1,0,0,1,1.37.36A1,1,0,0,1,17.5,7.6,3,3,0,0,1,16,8Z"/><path class="cls-3" d="M29,11H21a1,1,0,0,1,0-2h8a1,1,0,0,1,0,2Z"/><path class="cls-3" d="M29,20H23a1,1,0,0,1,0-2h6a1,1,0,0,1,0,2Z"/><path class="cls-3" d="M11,11H3A1,1,0,0,1,3,9h8a1,1,0,0,1,0,2Z"/><path class="cls-3" d="M9,20H3a1,1,0,0,1,0-2H9a1,1,0,0,1,0,2Z"/><path class="cls-2" d="M16,8a8,8,0,0,0-8,8,1,1,0,0,0,1,1H23a1,1,0,0,0,1-1A8,8,0,0,0,16,8Z"/><path class="cls-2" d="M24,16V30H8V16a1,1,0,0,1,1-1H23A1,1,0,0,1,24,16Z"/><path class="cls-3" d="M24,17H8a1,1,0,0,1,0-2H24a1,1,0,0,1,0,2Z"/><path class="cls-4" d="M21,24v6H11V24a5,5,0,0,1,2-4l2.4-1.8a1,1,0,0,1,1.2,0L19,20A5,5,0,0,1,21,24Z"/></g></svg>