<svg xmlns="http://www.w3.org/2000/svg" viewBox="0 0 32 32"><defs><style>.cls-1{fill:#8b0000;}.cls-2{fill:#f5c12e;}</style></defs><title>Ramadhan Flat Icon</title><g id="Line"><path class="cls-1" d="M26.19,23.42,23,13.68a1.08,1.08,0,0,0-.15-.28l-1-1.28-1.4-2.59A1,1,0,0,0,19.56,9H13a1,1,0,0,0-.8.4l-3,4a1.08,1.08,0,0,0-.15.28L5.81,23.42A5,5,0,0,0,10.55,30h10.9a5,5,0,0,0,4.74-6.58Z"/><path class="cls-2" d="M23,8,18,7l-6,3.44a1.48,1.48,0,0,1-1.78-.24h0A1.47,1.47,0,0,1,10.36,8L17,3H29v8l-5,2-6.54-.76A1.75,1.75,0,0,1,16,10.52h0a1.75,1.75,0,0,1,1.5-1.73Z"/><path class="cls-2" d="M16.5,19h-1a.5.5,0,0,1,0-1H18a1,1,0,0,0,0-2H17V15a1,1,0,0,0-2,0v1.05A2.5,2.5,0,0,0,15.5,21h1a.5.5,0,0,1,0,1H14a1,1,0,0,0,0,2h1v1a1,1,0,0,0,2,0V24A2.5,2.5,0,0,0,16.5,19Z"/></g></svg>