<svg xmlns="http://www.w3.org/2000/svg" viewBox="0 0 32 32"><defs><style>.cls-1{fill:#d1d1d1;}.cls-2{fill:#c00;}.cls-3{fill:#8b0000;}.cls-4{fill:#f0ab00;}</style></defs><title>Ramadhan Flat Icon</title><g id="Line"><path class="cls-1" d="M4,12V29a1,1,0,0,0,1,1H27a1,1,0,0,0,1-1V12Z"/><path class="cls-2" d="M27,4H5A1,1,0,0,0,4,5v7H28V5A1,1,0,0,0,27,4Z"/><path class="cls-3" d="M8,8A1,1,0,0,1,7,7V3A1,1,0,0,1,9,3V7A1,1,0,0,1,8,8Z"/><path class="cls-3" d="M12,8a1,1,0,0,1-1-1V3a1,1,0,0,1,2,0V7A1,1,0,0,1,12,8Z"/><path class="cls-3" d="M20,8a1,1,0,0,1-1-1V3a1,1,0,0,1,2,0V7A1,1,0,0,1,20,8Z"/><path class="cls-3" d="M24,8a1,1,0,0,1-1-1V3a1,1,0,0,1,2,0V7A1,1,0,0,1,24,8Z"/><path class="cls-3" d="M16,8a1,1,0,0,1-1-1V3a1,1,0,0,1,2,0V7A1,1,0,0,1,16,8Z"/><path class="cls-4" d="M22.72,22.41a1,1,0,0,0-1.23-.17,4.62,4.62,0,0,1-2.36.64,4.15,4.15,0,0,1-4.32-3.94,4,4,0,0,1,3.28-3.82,1,1,0,0,0,0-1.95,7.91,7.91,0,0,0-1.6-.17A7.25,7.25,0,0,0,9,20a7.25,7.25,0,0,0,7.47,7,7.53,7.53,0,0,0,6.37-3.35A1,1,0,0,0,22.72,22.41Z"/><path class="cls-4" d="M22.42,18.24a1,1,0,0,0-1-1h-.53v-.42a1,1,0,0,0-2,0v.42h-.52a1,1,0,0,0-1,1,1,1,0,0,0,.65.92,1,1,0,0,0,.28,1.3,1,1,0,0,0,.58.19,1,1,0,0,0,.81-.42l.2-.28.21.28a1,1,0,0,0,.81.42,1,1,0,0,0,.58-.19,1,1,0,0,0,.28-1.3A1,1,0,0,0,22.42,18.24Z"/></g></svg>