<svg xmlns="http://www.w3.org/2000/svg" viewBox="0 0 32 32"><defs><style>.cls-1{fill:#795600;}.cls-2{fill:#007042;}.cls-3{fill:#f0ab00;}.cls-4{fill:#b58100;}.cls-5{fill:#fbeabc;}</style></defs><title>Ramadhan Flat Icon</title><g id="Line"><path class="cls-1" d="M4,30a1,1,0,0,1-.61-.21,1,1,0,0,1-.18-1.4l7.26-9.33a1,1,0,1,1,1.58,1.22L4.79,29.61A1,1,0,0,1,4,30Z"/><path class="cls-1" d="M18,30a1,1,0,0,1-.61-.21,1,1,0,0,1-.18-1.4L23.7,20a1,1,0,1,1,1.58,1.23l-6.49,8.34A1,1,0,0,1,18,30Z"/><polygon class="cls-2" points="26.77 2.17 25.53 2.27 26 2.23 26.77 2.17"/><polygon class="cls-2" points="25.54 21.73 26.77 21.83 26 21.77 25.54 21.73"/><path class="cls-2" d="M24,2.38,4.77,3.86a2.89,2.89,0,0,0-1,.25A3,3,0,0,0,2.23,5.7,3,3,0,0,0,2,6.85v10.3a2.83,2.83,0,0,0,.24,1.16A3,3,0,0,0,3.82,19.9a3.09,3.09,0,0,0,.95.24L24,21.62Z"/><path class="cls-3" d="M25.3,18.05l-8-2.52,8-2.58a1.17,1.17,0,0,0,.31-.17l.08-.09a.65.65,0,0,0,.15-.18l.06-.12s0-.05,0-.08a.41.41,0,0,0,0-.11.68.68,0,0,0,0-.4.41.41,0,0,0,0-.11.43.43,0,0,1,0-.07,1.9,1.9,0,0,0-.21-.32l-.15-.11a.59.59,0,0,0-.17-.1l-.07,0-8-2.58L25.3,6a1,1,0,1,0-.6-1.9L14,7.41,3.8,4.11A3,3,0,0,0,2.23,5.7l8.52,2.75L2.83,11,2,10.69v2.62l.83-.26,7.94,2.5L2.24,18.31A3,3,0,0,0,3.82,19.9l10.23-3.31L24.7,20A.79.79,0,0,0,25,20a1,1,0,0,0,.3-1.95ZM6.15,12,14,9.51,21.75,12l-7.7,2.49Z"/><path class="cls-4" d="M26,30a1,1,0,0,1-.79-.39L18.4,20.86A1,1,0,0,1,20,19.63l6.81,8.76a1,1,0,0,1-.18,1.4A1,1,0,0,1,26,30Z"/><path class="cls-4" d="M14,30a1,1,0,0,1-.79-.39L5.65,19.9a1,1,0,0,1,.18-1.41,1,1,0,0,1,1.4.18l7.56,9.72a1,1,0,0,1-.18,1.4A1,1,0,0,1,14,30Z"/><path class="cls-5" d="M30,5.16V18.84a3,3,0,0,1-3,3h-.23L26,21.77l-2-.15V2.38l2-.15.77-.06A3,3,0,0,1,29,3,3,3,0,0,1,30,5.16Z"/><polygon class="cls-3" points="26 2.23 26 21.77 24 21.62 24 2.38 26 2.23"/></g></svg>