<svg xmlns="http://www.w3.org/2000/svg" viewBox="0 0 32 32"><defs><style>.cls-1{fill:#fbeabc;}.cls-2{fill:#bbb;}.cls-3{fill:#c00;}</style></defs><title>Ramadhan Flat Icon</title><g id="Line"><circle class="cls-1" cx="16" cy="16" r="13"/><path class="cls-2" d="M23,11a3,3,0,0,0-2.22-1h-.85L20,9.07a1,1,0,0,0-.27-.75A1,1,0,0,0,19,8H9a1,1,0,0,0-.73.32A1,1,0,0,0,8,9.07L8.88,22.2a3,3,0,0,0,3,2.8h4.26a3,3,0,0,0,3-2.8l0-.2h1.05a3,3,0,0,0,3-2.7l.61-6A3,3,0,0,0,23,11ZM21.18,19.1a1,1,0,0,1-1,.9h-.92l.53-8h1a1,1,0,0,1,.74.33,1,1,0,0,1,.26.77Z"/><path class="cls-3" d="M16,2A14,14,0,1,0,30,16,14,14,0,0,0,16,2Zm0,2a11.89,11.89,0,0,1,7.74,2.85L6.85,23.74A12,12,0,0,1,16,4Zm0,24a11.89,11.89,0,0,1-7.74-2.85L25.15,8.26A12,12,0,0,1,16,28Z"/></g></svg>