<svg xmlns="http://www.w3.org/2000/svg" viewBox="0 0 32 32"><defs><style>.cls-1{fill:#f0ab00;}.cls-2{fill:#ec7a08;}</style></defs><title>Ramadhan Flat Icon</title><g id="Line"><path class="cls-1" d="M16,7A10,10,0,0,0,7,21.45a1,1,0,0,0,.9.55H24.06a1,1,0,0,0,.9-.55A10,10,0,0,0,16,7Z"/><path class="cls-2" d="M29,20H3a1,1,0,0,0,0,2H29a1,1,0,0,0,0-2Z"/><path class="cls-2" d="M26,24H6a1,1,0,0,0,0,2H26a1,1,0,0,0,0-2Z"/><path class="cls-2" d="M21,28H11a1,1,0,0,0,0,2H21a1,1,0,0,0,0-2Z"/><path class="cls-2" d="M24,9a1,1,0,0,0,.71-.29l2-2a1,1,0,1,0-1.42-1.42l-2,2a1,1,0,0,0,0,1.42A1,1,0,0,0,24,9Z"/><path class="cls-2" d="M7.29,8.71a1,1,0,0,0,1.42,0,1,1,0,0,0,0-1.42l-2-2A1,1,0,0,0,5.29,6.71Z"/><path class="cls-2" d="M28,15h1a1,1,0,0,0,0-2H28a1,1,0,0,0,0,2Z"/><path class="cls-2" d="M3,15H4a1,1,0,0,0,0-2H3a1,1,0,0,0,0,2Z"/><path class="cls-2" d="M16,6a1,1,0,0,0,1-1V3a1,1,0,0,0-2,0V5A1,1,0,0,0,16,6Z"/></g></svg>