<svg xmlns="http://www.w3.org/2000/svg" viewBox="0 0 32 32"><defs><style>.cls-1{fill:#ec7a08;}.cls-2{fill:#fbeabc;}.cls-3{fill:#f39d3c;}.cls-4{fill:#f0ab00;}</style></defs><title>Ramadhan Flat Icon</title><g id="Line"><path class="cls-1" d="M27.76,21.35A1,1,0,0,0,27,21H20a1,1,0,0,0-.76.35,1,1,0,0,0-.23.79l.89,6.11a2,2,0,0,0,2,1.75h3.24a2,2,0,0,0,2-1.73L28,22.14A1,1,0,0,0,27.76,21.35Z"/><path class="cls-2" d="M20.71,25.29A12.06,12.06,0,0,0,13,22a12.06,12.06,0,0,0-7.71,3.29,1,1,0,0,0-.21,1.09A1,1,0,0,0,6,27H20a1,1,0,0,0,.92-.62A1,1,0,0,0,20.71,25.29Z"/><path class="cls-3" d="M21.88,25.53A1,1,0,0,0,21,25H5a1,1,0,0,0-.88.53,1,1,0,0,0,0,1l1.4,2.11A3,3,0,0,0,8.07,30h9.86a3,3,0,0,0,2.5-1.34l1.4-2.11A1,1,0,0,0,21.88,25.53Z"/><path class="cls-4" d="M26,15.68A10.5,10.5,0,0,0,16,9a10.5,10.5,0,0,0-9.95,6.68,1,1,0,0,0,.14.9A1,1,0,0,0,7,17H25a1,1,0,0,0,.81-.42A1,1,0,0,0,26,15.68Z"/><path class="cls-1" d="M16,8a1,1,0,0,0,1-1V3a1,1,0,0,0-2,0V7A1,1,0,0,0,16,8Z"/><path class="cls-1" d="M26,13a.94.94,0,0,0,.55-.17l3-2a1,1,0,0,0-1.1-1.66l-3,2A1,1,0,0,0,26,13Z"/><path class="cls-1" d="M5.45,12.83A.94.94,0,0,0,6,13a1,1,0,0,0,.55-1.83l-3-2a1,1,0,1,0-1.1,1.66Z"/><path class="cls-1" d="M21.55,8.89A.93.93,0,0,0,22,9a1,1,0,0,0,.89-.55l1-2a1,1,0,1,0-1.78-.9l-1,2A1,1,0,0,0,21.55,8.89Z"/><path class="cls-1" d="M9.11,8.45A1,1,0,0,0,10,9a.93.93,0,0,0,.45-.11,1,1,0,0,0,.44-1.34l-1-2a1,1,0,0,0-1.78.9Z"/><path class="cls-1" d="M29,15H3a1,1,0,0,0,0,2H29a1,1,0,0,0,0-2Z"/><path class="cls-1" d="M23,18H9a1,1,0,0,0,0,2H23a1,1,0,0,0,0-2Z"/></g></svg>