<svg xmlns="http://www.w3.org/2000/svg" viewBox="0 0 32 32"><defs><style>.cls-1{fill:#0088ce;}.cls-2{fill:#39a5dc;}.cls-3{fill:#7dc3e8;}</style></defs><title>Ramadhan Flat Icon</title><g id="Line"><circle class="cls-1" cx="16" cy="27" r="3"/><circle class="cls-2" cx="20" cy="27" r="3"/><circle class="cls-2" cx="12" cy="27" r="3"/><circle class="cls-1" cx="24" cy="25" r="3"/><circle class="cls-1" cx="8" cy="25" r="3"/><circle class="cls-2" cx="27" cy="21" r="3"/><circle class="cls-2" cx="5" cy="21" r="3"/><circle class="cls-1" cx="25" cy="17" r="3"/><circle class="cls-1" cx="7" cy="17" r="3"/><circle class="cls-2" cx="21" cy="15" r="3"/><circle class="cls-2" cx="11" cy="15" r="3"/><path class="cls-3" d="M29,2H18a5,5,0,0,0-5,5V8a1,1,0,0,0,1,1,1,1,0,0,0,1-.82,6.31,6.31,0,0,0,2.75-.47L18,7.37a1,1,0,0,1,.8-.29L28.91,8A1,1,0,0,0,30,7V3A1,1,0,0,0,29,2Z"/><path class="cls-1" d="M19.75,13.67l-.56-5a3,3,0,0,0-3-2.67h-.42a3,3,0,0,0-3,2.67l-.56,5a3,3,0,0,0,3,3.33h1.54a3,3,0,0,0,3-3.33Z"/></g></svg>