<svg xmlns="http://www.w3.org/2000/svg" viewBox="0 0 32 32"><defs><style>.cls-1{fill:#007042;}.cls-2{fill:#bbb;}.cls-3{fill:#f5c12e;}.cls-4{fill:#292e34;}.cls-5{fill:#8b8d8f;}</style></defs><title>Ramadhan Flat Icon</title><g id="Line"><path class="cls-1" d="M28,17.16V27a3,3,0,0,1-3,3H18a4,4,0,0,1-4-4v-.4a4,4,0,0,1,3.43-4l3.74-.53L23,12.78a1,1,0,0,1,1.3-.73A5.39,5.39,0,0,1,28,17.16Z"/><path class="cls-2" d="M28,17.16V27a3,3,0,0,1-.19,1L22.15,23.4l-.4-.32,0,0-.54.08-6,.86a1,1,0,0,1-.91-.35,1,1,0,0,1-.18-1,6.76,6.76,0,0,1,4.77-4.42l.4-.1,1.83-5.48A1,1,0,0,1,22,12h2a1.19,1.19,0,0,1,.32.05A5.39,5.39,0,0,1,28,17.16Z"/><path class="cls-3" d="M12.42,7.42a1,1,0,0,0-1.14.1A2,2,0,0,1,10,8a2,2,0,0,1-.76-3.85,1,1,0,0,0-.09-1.87A5.24,5.24,0,0,0,7.5,2a5.5,5.5,0,1,0,5.41,6.46A1,1,0,0,0,12.42,7.42Z"/><path class="cls-3" d="M27,8H19a1,1,0,0,0-1,1A5,5,0,0,0,28,9,1,1,0,0,0,27,8Z"/><path class="cls-4" d="M27.45,4.11,27.13,4A12.12,12.12,0,0,0,18.76,3,1,1,0,0,0,18,4V9a1,1,0,0,0,1,1h8a1,1,0,0,0,1-1V5A1,1,0,0,0,27.45,4.11Z"/><path class="cls-5" d="M24.46,18.2l-2.31,5.2-.4-.32,0,0-.54.08,2.37-5.33a.5.5,0,0,1,.92.4Z"/></g></svg>