<svg xmlns="http://www.w3.org/2000/svg" viewBox="0 0 32 32"><defs><style>.cls-1{fill:#7dc3e8;}.cls-2{fill:#b58100;}.cls-3{fill:#39a5dc;}.cls-4{fill:#0088ce;}.cls-5{fill:#f5c12e;}.cls-6{fill:#bbb;}</style></defs><title>Ramadhan Flat Icon</title><g id="Line"><path class="cls-1" d="M24.66,21.36,23,13.78A1,1,0,0,0,22,13H10a1,1,0,0,0-1,.78L7.34,21.36A4,4,0,0,0,9,29H23a4,4,0,0,0,1.66-7.64Z"/><path class="cls-2" d="M21.91,24.59a1,1,0,0,0-1.32-.5l-4.59,2-4.59-2a1,1,0,1,0-.82,1.82l2.95,1.31-1.95.87A1,1,0,0,0,12,30a1,1,0,0,0,.41-.09L16,28.32l3.59,1.59A1,1,0,0,0,20,30a1,1,0,0,0,.41-1.91l-1.95-.87,2.95-1.31A1,1,0,0,0,21.91,24.59Z"/><path class="cls-3" d="M13.08,15.51a.49.49,0,0,0-.57.41l-1,6a.49.49,0,0,0,.41.57H12a.49.49,0,0,0,.49-.42l1-6A.49.49,0,0,0,13.08,15.51Z"/><path class="cls-3" d="M19.49,15.92a.5.5,0,1,0-1,.16l1,6a.49.49,0,0,0,.49.42h.08a.49.49,0,0,0,.41-.57Z"/><path class="cls-4" d="M22.7,13.29,21.41,12A7.89,7.89,0,0,0,22,9c0-3.86-2.69-7-6-7s-6,3.14-6,7a8,8,0,0,0,.58,3L9.29,13.29A1,1,0,0,0,9,14.1a1,1,0,0,0,.45.73l6,4a1,1,0,0,0,1.1,0l6-4a1,1,0,0,0,.45-.74A1,1,0,0,0,22.7,13.29Z"/><path class="cls-5" d="M20,9a4,4,0,0,1-.13,1c-.44,1.87-2,4-3.87,4s-3.43-2.13-3.87-4A4,4,0,0,1,12,9c0-1.66,1.79-3,4-3S20,7.34,20,9Z"/><path class="cls-6" d="M20,9a4,4,0,0,1-.13,1H12.13A4,4,0,0,1,12,9c0-1.66,1.79-3,4-3S20,7.34,20,9Z"/></g></svg>