<svg xmlns="http://www.w3.org/2000/svg" viewBox="0 0 32 32"><defs><style>.cls-1{fill:#8b8d8f;}.cls-2{fill:#bbb;}.cls-3{fill:#d1d1d1;}.cls-4{fill:#f0ab00;}.cls-5{fill:#292e34;}.cls-6{fill:#f5c12e;}.cls-7{fill:#393f44;}</style></defs><title>Ramadhan Flat Icon</title><g id="Line"><rect class="cls-1" x="4" y="20" width="24" height="8" rx="1"/><path class="cls-2" d="M28.67,12.57,26.6,11.2a1,1,0,0,0-.55-.17H6a1,1,0,0,0-.55.16L3.34,12.57A3,3,0,0,0,2,15.07V19a3,3,0,0,0,3,3H27a3,3,0,0,0,3-3V15.07A3,3,0,0,0,28.67,12.57Z"/><path class="cls-1" d="M26,18.5H23a.5.5,0,0,1,0-1h2.5V16a.5.5,0,0,1,1,0v2A.5.5,0,0,1,26,18.5Z"/><path class="cls-1" d="M9,18.5H6a.5.5,0,0,1-.5-.5V16a.5.5,0,0,1,1,0v1.5H9a.5.5,0,0,1,0,1Z"/><rect class="cls-2" x="10" y="22" width="12" height="8" rx="1"/><path class="cls-3" d="M24.36,20.31l-1-4.63a5,5,0,0,0-2.66-3.44l-1.81-.9a1,1,0,0,0-.44-.11H13.54a1.18,1.18,0,0,0-.45.1l-1.81.91a5,5,0,0,0-2.66,3.44l-1,4.59A3,3,0,0,0,10.56,24H21.44a3,3,0,0,0,2.92-3.69Z"/><path class="cls-4" d="M27,8H21a1,1,0,0,0-1,1c0,2.48,1.37,5,4,5s4-2.52,4-5A1,1,0,0,0,27,8Z"/><path class="cls-4" d="M11,8H5A1,1,0,0,0,4,9c0,2.48,1.37,5,4,5s4-2.52,4-5A1,1,0,0,0,11,8Z"/><path class="cls-5" d="M28,8.76l-1-4A1,1,0,0,0,26,4H22a1,1,0,0,0-1,.76l-1,4a1,1,0,0,0,.18.86A1,1,0,0,0,21,10h6a1,1,0,0,0,.79-.38A1,1,0,0,0,28,8.76Z"/><path class="cls-5" d="M11,4.76A1,1,0,0,0,10,4H6a1,1,0,0,0-1,.76l-1,4a1,1,0,0,0,.18.86A1,1,0,0,0,5,10h6a1,1,0,0,0,.79-.38A1,1,0,0,0,12,8.76Z"/><path class="cls-6" d="M20,7H12a1,1,0,0,0-1,1c0,3.76,1.87,6,5,6s5-2.24,5-6A1,1,0,0,0,20,7Z"/><path class="cls-7" d="M20,2.8A1,1,0,0,0,19,2H13a1,1,0,0,0-1,.8l-1,5a1,1,0,0,0,.21.83A1,1,0,0,0,12,9h8a1,1,0,0,0,.77-.37A1,1,0,0,0,21,7.8Z"/><path class="cls-2" d="M19.82,20.87a2.39,2.39,0,0,0-.32-.59V17a.5.5,0,0,0-1,0v2.59a2.26,2.26,0,0,0-.58-.09H13.5V17a.5.5,0,0,0-1,0v2.5H12a.5.5,0,0,0,0,1h5.92a1,1,0,0,1,.81,1.58,1,1,0,0,1-.81.42.5.5,0,0,0,0,1,2,2,0,0,0,1.62-.83A2,2,0,0,0,19.82,20.87Z"/></g></svg>