<svg xmlns="http://www.w3.org/2000/svg" viewBox="0 0 32 32"><defs><style>.cls-1{fill:#b58100;}.cls-2{fill:#3d2c00;}.cls-3{fill:#795600;}.cls-4{fill:#f0ab00;}.cls-5{fill:#f9d67a;}.cls-6{fill:#f5c12e;}.cls-7{fill:#009649;}</style></defs><title>Ramadhan Flat Icon</title><g id="Line"><path class="cls-1" d="M29.77,15.36,25.08,9.73a1,1,0,0,0-.75-.36L9.78,9H8a1,1,0,0,0-.77.36l-5,6A1,1,0,0,0,3,17H29a1,1,0,0,0,.77-1.64Z"/><path class="cls-2" d="M29,25H25a1,1,0,0,0-1,1v2a2,2,0,0,0,2,2h2a2,2,0,0,0,2-2V26A1,1,0,0,0,29,25Z"/><path class="cls-2" d="M7,25H3a1,1,0,0,0-1,1v2a2,2,0,0,0,2,2H6a2,2,0,0,0,2-2V26A1,1,0,0,0,7,25Z"/><rect class="cls-3" x="2" y="15" width="28" height="12" rx="1"/><path class="cls-4" d="M12.59,3.69a4.22,4.22,0,1,0-3.38,6.74,1,1,0,0,0,.9-.55l2.57-5.15A1,1,0,0,0,12.59,3.69Z"/><path class="cls-5" d="M19,15.12v6.76A1.07,1.07,0,0,1,18,23H14a1.07,1.07,0,0,1-1-1.12V15.12A.49.49,0,0,1,13,15h6A.49.49,0,0,1,19,15.12Z"/><path class="cls-6" d="M16,7.5a4.22,4.22,0,1,0-4.21,4.21,4.16,4.16,0,0,0,3.54-1.94,1,1,0,0,0-.17-1.28A1,1,0,0,0,16,7.5Z"/><path class="cls-7" d="M28,8.68l-2-6a1,1,0,0,0-.55-.6,1,1,0,0,0-.81,0l-11,5a1,1,0,0,0-.52,1.28l2,5A1,1,0,0,0,16,14h3a1,1,0,0,0,.45-.11l8-4A1,1,0,0,0,28,8.68Z"/><path class="cls-3" d="M19,12H13a1,1,0,0,0,0,2h6a1,1,0,0,0,0-2Z"/></g></svg>