<svg xmlns="http://www.w3.org/2000/svg" viewBox="0 0 32 32"><defs><style>.cls-1{fill:#a30000;}.cls-2{fill:#8b0000;}.cls-3{fill:#bee1f4;}</style></defs><title>Ramadhan Flat Icon</title><g id="Line"><path class="cls-1" d="M17,6a1,1,0,0,0-1,1v3a1,1,0,0,0,2,0V7A1,1,0,0,0,17,6Z"/><path class="cls-1" d="M17,2a1,1,0,0,0-1,1V4a1,1,0,0,0,2,0V3A1,1,0,0,0,17,2Z"/><path class="cls-1" d="M30,12.13v6a1,1,0,0,1-1,1H21a1,1,0,0,1-1-1v-6a1,1,0,0,1,1-1h8A1,1,0,0,1,30,12.13Z"/><path class="cls-2" d="M20.5,3h-7a2.5,2.5,0,0,0,0,5h7a2.5,2.5,0,0,0,0-5Z"/><rect class="cls-2" x="24" y="11.13" width="2" height="8"/><path class="cls-1" d="M13,12H9a5,5,0,0,0-5,5v3a1,1,0,0,0,1,1H9a1,1,0,0,0,1-1V18.17a.16.16,0,0,1,.17-.17H13a1,1,0,0,0,1-1V13A1,1,0,0,0,13,12Z"/><path class="cls-2" d="M9.5,19h-5a2.5,2.5,0,0,0,0,5h5a2.5,2.5,0,0,0,0-5Z"/><path class="cls-3" d="M9,26,7.8,24.4a1,1,0,0,0-1.6,0L5,26a2.5,2.5,0,1,0,4,0Z"/><rect class="cls-2" x="12" y="9" width="10" height="12" rx="3"/></g></svg>