<svg xmlns="http://www.w3.org/2000/svg" viewBox="0 0 32 32"><defs><style>.cls-1{fill:#f5c12e;}</style></defs><title>Ramadhan Flat Icon</title><g id="Line"><path class="cls-1" d="M5.5,7.32a1,1,0,0,0-1,1V12.5a2,2,0,0,1,2,2V8.32A1,1,0,0,0,5.5,7.32Z"/><path class="cls-1" d="M27.5,8.32a1,1,0,0,0-2,0V14.5a2,2,0,0,1,2-2Z"/><path class="cls-1" d="M27.5,13.5a1,1,0,0,0-1,1V17a.47.47,0,0,1-.15.35l-3,3a.49.49,0,0,1-.7-.7l2.85-2.86V15a.5.5,0,0,1-1,0V6.5a1,1,0,0,0-2,0V15a.5.5,0,0,1-1,0V8.32a1,1,0,0,0-2,0V15a.5.5,0,0,1-1,0V10a1,1,0,0,0-2,0V21l.92,5.5h8.19l.9-3.62a.77.77,0,0,1,.07-.16l1.92-2.87V14.5A1,1,0,0,0,27.5,13.5Z"/><path class="cls-1" d="M5.49,22.88l.9,3.62h8.19l.93-5.58V15h0V10a1,1,0,0,0-2,0V15a.5.5,0,0,1-1,0V8.32a1,1,0,0,0-2,0V15a.5.5,0,0,1-1,0V6.5a1,1,0,0,0-2,0V15a.5.5,0,0,1-1,0v1.79l2.85,2.86a.49.49,0,1,1-.7.7l-3-3A.47.47,0,0,1,5.5,17V14.5a1,1,0,0,0-2,0v5.35l1.92,2.87A.77.77,0,0,1,5.49,22.88Z"/></g></svg>