<svg xmlns="http://www.w3.org/2000/svg" viewBox="0 0 32 32"><defs><style>.cls-1{fill:#fbeabc;}.cls-2{fill:#bbb;}.cls-3{fill:#fafafa;}.cls-4{fill:#f5c12e;}.cls-5{fill:#c00;}</style></defs><title>Ramadhan Flat Icon</title><g id="Line"><circle class="cls-1" cx="16" cy="16" r="13"/><path class="cls-2" d="M6,15a1,1,0,0,1-1-1V12a1,1,0,0,1,2,0v2A1,1,0,0,1,6,15Z"/><path class="cls-2" d="M9,14a1,1,0,0,1-1-1V9a1,1,0,0,1,2,0v4A1,1,0,0,1,9,14Z"/><path class="cls-3" d="M27,17v2a2,2,0,0,1-2,2H8a3,3,0,0,1,0-6H25A2,2,0,0,1,27,17Z"/><path class="cls-4" d="M27,17v2a2,2,0,0,1-2,2H20V15h5A2,2,0,0,1,27,17Z"/><path class="cls-5" d="M16,2A14,14,0,1,0,30,16,14,14,0,0,0,16,2Zm0,2a11.89,11.89,0,0,1,7.74,2.85L6.85,23.74A12,12,0,0,1,16,4Zm0,24a11.89,11.89,0,0,1-7.74-2.85L25.15,8.26A12,12,0,0,1,16,28Z"/></g></svg>