<svg xmlns="http://www.w3.org/2000/svg" viewBox="0 0 32 32"><defs><style>.cls-1{fill:#3d2c00;}.cls-2{fill:#b58100;}.cls-3{fill:#f9d67a;}.cls-4{fill:#f5c12e;}.cls-5{fill:#795600;}</style></defs><title>Ramadhan Flat Icon</title><g id="Line"><path class="cls-1" d="M29,25H25a1,1,0,0,0-1,1v2a2,2,0,0,0,2,2h2a2,2,0,0,0,2-2V26A1,1,0,0,0,29,25Z"/><path class="cls-1" d="M7,25H3a1,1,0,0,0-1,1v2a2,2,0,0,0,2,2H6a2,2,0,0,0,2-2V26A1,1,0,0,0,7,25Z"/><path class="cls-2" d="M29.71,18.29l-8-8a1,1,0,0,0-.82-.28l-9,1H9a1,1,0,0,0-.76.35l-6,7a1,1,0,0,0-.15,1.07A1,1,0,0,0,3,20H29a1,1,0,0,0,.92-.62A1,1,0,0,0,29.71,18.29Z"/><circle class="cls-3" cx="15" cy="12" r="4"/><path class="cls-4" d="M23,8,18,7l-6,3.44a1.48,1.48,0,0,1-1.78-.24h0A1.47,1.47,0,0,1,10.36,8L17,3H29v8l-5,2-6.54-.76A1.75,1.75,0,0,1,16,10.52h0a1.75,1.75,0,0,1,1.5-1.73Z"/><rect class="cls-5" x="2" y="18" width="28" height="9" rx="1"/><path class="cls-5" d="M19,17H13a1,1,0,0,1,0-2h6a1,1,0,0,1,0,2Z"/></g></svg>