<svg xmlns="http://www.w3.org/2000/svg" viewBox="0 0 32 32"><defs><style>.cls-1{fill:#007042;}.cls-2{fill:#009649;}.cls-3{fill:#ace12e;}.cls-4{fill:#82a53c;}</style></defs><title>Ramadhan Flat Icon</title><g id="Line"><path class="cls-1" d="M29,22H26a1,1,0,0,0,0,2h3a1,1,0,0,0,0-2Z"/><path class="cls-1" d="M29,26H26a1,1,0,0,0,0,2h3a1,1,0,0,0,0-2Z"/><path class="cls-1" d="M29,18H26a1,1,0,0,0,0,2h3a1,1,0,0,0,0-2Z"/><path class="cls-1" d="M29,14H26a1,1,0,0,0,0,2h3a1,1,0,0,0,0-2Z"/><path class="cls-1" d="M26,12h3a1,1,0,0,0,0-2H26a1,1,0,0,0,0,2Z"/><path class="cls-2" d="M26,9H11a1,1,0,0,0-1,.79l-4,19a1,1,0,0,0,.2.84A1,1,0,0,0,7,30H26a1,1,0,0,0,1-1V10A1,1,0,0,0,26,9Z"/><path class="cls-3" d="M22.71,18.29l-2-2A10,10,0,0,0,16,14.1V14a1,1,0,0,0-1-1H11a1,1,0,0,0-1,1V25a1,1,0,0,0,1,1h4a1,1,0,0,0,1-1v-.1a10,10,0,0,0,4.71-2.19,1,1,0,0,0,.12-.16l2-3A1,1,0,0,0,22.71,18.29Z"/><path class="cls-1" d="M7,3C4.29,3,2,4.81,2,7V26a1,1,0,0,0,1,1h8a1,1,0,0,0,1-1V7C12,4.83,9.71,3,7,3Z"/><ellipse class="cls-4" cx="7" cy="26" rx="5" ry="4"/></g></svg>