<?xml version="1.0" encoding="UTF-8"?>
<!DOCTYPE svg PUBLIC "-//W3C//DTD SVG 1.1//EN" "http://www.w3.org/Graphics/SVG/1.1/DTD/svg11.dtd">
<!-- Creator: CorelDRAW 2017 -->
<svg xmlns="http://www.w3.org/2000/svg" xml:space="preserve" width="997px" height="731px" version="1.1" style="shape-rendering:geometricPrecision; text-rendering:geometricPrecision; image-rendering:optimizeQuality; fill-rule:evenodd; clip-rule:evenodd"
viewBox="0 0 997 730.72"
 xmlns:xlink="http://www.w3.org/1999/xlink">
 <defs>
  <style type="text/css">
   <![CDATA[
    .str0 {stroke:#333333;stroke-width:9.38;stroke-miterlimit:2.61313}
    .str2 {stroke:#444053;stroke-width:3.13;stroke-miterlimit:2.61313}
    .str4 {stroke:#565987;stroke-width:3.13;stroke-miterlimit:2.61313}
    .str1 {stroke:#3F3D56;stroke-width:12.5;stroke-miterlimit:2.61313}
    .str3 {stroke:#444053;stroke-width:6.25;stroke-miterlimit:2.61313}
    .fil8 {fill:none}
    .fil23 {fill:#3C354C}
    .fil20 {fill:#3F3D56}
    .fil15 {fill:#444053}
    .fil11 {fill:#57B793}
    .fil13 {fill:#656380}
    .fil4 {fill:#76B020}
    .fil19 {fill:#76B020}
    .fil24 {fill:#787460}
    .fil18 {fill:#787460}
    .fil10 {fill:#8C740A}
    .fil16 {fill:#A8A8A8}
    .fil0 {fill:#B8ED1A}
    .fil5 {fill:#BDA228}
    .fil22 {fill:#E5ADB2}
    .fil25 {fill:#EBD46C}
    .fil1 {fill:#F1F1F1}
    .fil2 {fill:#F4F4F4}
    .fil21 {fill:#FFC0C6}
    .fil17 {fill:#FFD037}
    .fil12 {fill:black;fill-opacity:0.101961}
    .fil14 {fill:#76B020;fill-opacity:0.101961}
    .fil9 {fill:black;fill-opacity:0.200000}
    .fil6 {fill:url(#id0)}
    .fil3 {fill:url(#id1)}
    .fil7 {fill:url(#id2)}
   ]]>
  </style>
  <linearGradient id="id0" gradientUnits="userSpaceOnUse" x1="200816.68" y1="-18610.65" x2="200816.68" y2="-136069.5">
   <stop offset="0" style="stop-opacity:0.25098; stop-color:gray"/>
   <stop offset="0.541176" style="stop-opacity:0.121569; stop-color:gray"/>
   <stop offset="1" style="stop-opacity:0.101961; stop-color:gray"/>
  </linearGradient>
  <linearGradient id="id1" gradientUnits="userSpaceOnUse" xlink:href="#id0" x1="457.21" y1="546.03" x2="457.21" y2="437.75">
  </linearGradient>
  <linearGradient id="id2" gradientUnits="userSpaceOnUse" xlink:href="#id0" x1="65039.97" y1="-17257.28" x2="65039.97" y2="-134719.43">
  </linearGradient>
 </defs>
 <g id="Layer_x0020_1">
  <metadata id="CorelCorpID_0Corel-Layer"/>
  <g id="_684217344">
   <path class="fil0" d="M415 587.65c30.9,8.46 62.01,16.96 93.94,19.41 14.22,1.1 28.58,0.97 42.69,-1.13 17.07,-2.53 33.56,-7.93 50.15,-12.68 86.22,-24.69 176.34,-32.23 265.75,-39.66l0.23 -10.35c-46.74,-11.36 -95.62,-2.12 -143.46,2.68 -59.84,6.01 -120.14,4.95 -180.27,3.9l-74.32 -1.3c-40.7,-0.69 -81.39,-1.43 -122.02,-2.66 -20.54,-0.62 -41.08,-1.39 -61.62,-2.31 -8.77,-0.4 -51.6,1.61 -53.91,-5.64 30.26,4.75 60.94,16.34 90.57,24.46l92.27 25.28z"/>
   <path class="fil0" d="M289.68 564.72c14.49,3.35 28.56,8.07 42.6,12.79l140.83 47.3c6.31,2.12 12.86,4.38 17.46,8.96 10.24,10.25 5.94,28.12 -4.98,37.72 -10.92,9.59 -26.21,13.04 -40.73,16.14 -86.14,18.3 -173.03,36.29 -260.83,42.9 -39.08,2.93 -72.42,-28.06 -72.1,-67.26 0.25,-32.31 1.44,-64.6 3.58,-96.87 0.36,-5.47 1.09,-11.6 5.61,-15.03 3.02,-2.3 7.07,-2.84 10.91,-3.24 53.95,-5.51 105.62,4.59 157.65,16.59z"/>
   <path class="fil0" d="M730.26 574.63c-18.1,2.45 -36.09,6.09 -53.73,10.64 -27.95,7.36 -54.89,17.72 -81.75,28.06 -2.06,0.8 -4.35,1.79 -5.17,3.74 -0.88,2.07 0.26,4.42 1.59,6.28 8.33,11.58 23.84,16.16 38.18,20 29.01,7.71 58.31,15.46 88.42,17.04 11.03,0.58 22.07,0.31 33.1,0.98 10.63,0.63 21.17,2.11 31.69,3.6l95.77 13.51c4.14,-17.85 -0.92,-36.27 -4.54,-54.23 -1.62,-8.06 -2.95,-16.27 -2.94,-24.48 0,-5.99 2.98,-14.29 1.38,-20.14 -3.6,-13.1 -23.73,-9.8 -35.72,-10.29 -7.99,-0.28 -16.21,-0.5 -24.21,-0.5 -27.43,0 -54.94,2 -82.09,5.79l0.02 0z"/>
  </g>
  <g id="_684217464">
   <path class="fil1" d="M401.86 438.56l1.05 -0.67 0.3 -0.2c-4.89,-0.83 -8.47,-5.07 -8.47,-10.03 0,-4.57 3.04,-8.57 7.43,-9.8l-0.05 4.19 2.31 -4.56 0 0c0.15,-0.01 0.31,-0.01 0.47,-0.01 5.44,0 9.92,4.27 10.17,9.71 0,0.19 0,0.38 0,0.57 0.81,-0.88 1.49,-1.88 2.01,-2.96 0.98,-2.18 1,-4.65 0.92,-7.64 -0.15,-5.94 -0.41,-11.92 -0.74,-17.89 -4.97,-0.55 -8.81,-4.64 -9.04,-9.63 -0.01,-0.16 -0.02,-0.31 -0.02,-0.47 0,-0.15 0.01,-0.3 0.02,-0.46 0,-0.07 0,-0.15 0,-0.22 0,-0.3 0.04,-0.59 0.09,-0.88 0,-0.03 0,-0.05 0,-0.07 0,-0.03 0,-0.05 0,-0.07 0.04,-0.25 0.09,-0.49 0.15,-0.73 0,-0.09 0.04,-0.18 0.06,-0.26 0.08,-0.26 0.15,-0.52 0.25,-0.77 0.03,-0.09 0.06,-0.17 0.1,-0.25 0.07,-0.19 0.15,-0.37 0.23,-0.55 0.04,-0.09 0.08,-0.19 0.13,-0.29l0.04 -0.07 0 0c1.73,-3.42 5.25,-5.58 9.08,-5.58 0.98,0 1.96,0.14 2.89,0.42l-0.07 5.46 2.28 -4.51c3,1.73 4.92,4.87 5.08,8.33 0.01,0.16 0.02,0.31 0.02,0.47 0,0.73 -0.08,1.45 -0.24,2.16l0 0c0,0.07 -0.04,0.14 -0.06,0.21 -0.01,0.07 -0.06,0.27 -0.1,0.4 -0.04,0.13 -0.1,0.34 -0.16,0.52 -0.05,0.18 -0.08,0.25 -0.13,0.38 -0.04,0.12 -0.15,0.35 -0.23,0.52 -0.04,0.1 -0.08,0.2 -0.13,0.3 -0.13,0.26 -0.27,0.53 -0.42,0.77 -0.06,0.09 -0.12,0.18 -0.17,0.26 -0.11,0.17 -0.22,0.34 -0.34,0.52 -0.12,0.18 -0.15,0.2 -0.23,0.29 -0.07,0.1 -0.22,0.28 -0.34,0.42 -0.12,0.13 -0.17,0.19 -0.26,0.28 -0.09,0.09 -0.25,0.26 -0.39,0.39l-0.26 0.24 -0.47 0.39 -0.23 0.19c-0.25,0.17 -0.49,0.34 -0.75,0.52l-0.15 0.08c-0.21,0.13 -0.43,0.25 -0.66,0.36l-0.29 0.13c-0.19,0.08 -0.37,0.17 -0.56,0.23l-0.34 0.12c-0.19,0.07 -0.37,0.13 -0.57,0.18l-0.34 0.09c-0.21,0.05 -0.42,0.09 -0.63,0.13l-0.05 0c0.14,2.52 0.27,5.04 0.38,7.55 1.7,-3.5 5.25,-5.72 9.15,-5.72 1.74,0 3.46,0.45 4.98,1.3l-1.8 4.94 3.7 -3.56c1.99,1.82 3.17,4.35 3.29,7.03 0.01,0.16 0.02,0.33 0.02,0.49 0,0.78 -0.1,1.56 -0.28,2.32 -1.06,4.61 -5.18,7.88 -9.91,7.88 -3.65,0 -7.01,-1.95 -8.83,-5.11 0,0.26 0,0.52 0,0.77 0.07,2.64 0.15,5.93 -1.16,8.85 -0.94,1.89 -2.22,3.61 -3.75,5.06 -0.93,0.94 -1.89,1.85 -2.86,2.74 -0.97,1.29 -2.24,2.34 -3.69,3.05 -1.61,1.25 -3.28,2.41 -5.01,3.5l-0.9 0.65c-0.96,0.61 -1.96,1.22 -2.93,1.86l0.52 -0.04c0.16,-0.01 0.32,-0.01 0.47,-0.01 4.26,0 8.07,2.65 9.55,6.64l-6.36 5.2 7 -1.62c-0.02,5.61 -4.58,10.16 -10.2,10.16 -1.51,0 -3.01,-0.34 -4.38,-0.99 0.17,0.19 0.32,0.39 0.48,0.59l0.92 1.16c4.17,5.24 5.3,10.22 3.25,14.01l-2.5 -1.34c2,-3.7 -1,-8.43 -2.97,-10.94 -0.29,-0.38 -0.6,-0.76 -0.91,-1.14 -2.64,-3.28 -5.64,-7.01 -5.57,-11.58 0.05,-6.89 6.74,-11.04 12.11,-14.36z"/>
   <path class="fil1" d="M351.55 431.62l-1.6 -1c-0.16,-0.1 -0.31,-0.19 -0.46,-0.29 7.32,-1.26 12.67,-7.61 12.67,-15.03 0,-6.83 -4.54,-12.83 -11.11,-14.68l0.08 6.28 -3.45 -6.83 -0.04 0c-0.23,-0.01 -0.48,-0.02 -0.71,-0.02 -8.15,0 -14.85,6.41 -15.23,14.54 0,0.3 0,0.58 0,0.87 -1.22,-1.33 -2.24,-2.83 -3.02,-4.45 -1.46,-3.26 -1.49,-6.95 -1.37,-11.46 0.23,-8.89 0.61,-17.85 1.11,-26.78 7.45,-0.82 13.19,-6.94 13.54,-14.42 0,-0.47 0,-0.93 0,-1.39l0 -0.34c-0.03,-0.44 -0.07,-0.88 -0.14,-1.31 0,-0.08 0,-0.14 -0.04,-0.22 -0.06,-0.36 -0.14,-0.72 -0.23,-1.08 -0.03,-0.13 -0.06,-0.26 -0.1,-0.4 -0.11,-0.39 -0.22,-0.77 -0.36,-1.15 -0.04,-0.13 -0.09,-0.24 -0.15,-0.37 -0.11,-0.28 -0.22,-0.55 -0.34,-0.82 -0.07,-0.15 -0.13,-0.29 -0.2,-0.43 -0.02,-0.03 -0.04,-0.07 -0.05,-0.11l0 0c-2.49,-4.89 -7.41,-8.07 -12.89,-8.33 -0.23,-0.01 -0.46,-0.01 -0.69,-0.01 -1.47,0 -2.93,0.21 -4.33,0.62l0.1 8.17 -3.41 -6.76c-4.72,2.69 -7.64,7.72 -7.64,13.16 0,1.1 0.12,2.2 0.35,3.27l0 0c0,0.1 0.06,0.2 0.09,0.31 0.04,0.21 0.09,0.41 0.15,0.6 0.05,0.2 0.15,0.52 0.24,0.76 0.08,0.23 0.12,0.37 0.19,0.56 0.1,0.27 0.22,0.52 0.34,0.79 0.07,0.16 0.13,0.31 0.21,0.46 0.19,0.4 0.4,0.78 0.63,1.16 0.07,0.13 0.16,0.26 0.25,0.38 0.16,0.26 0.32,0.52 0.52,0.75 0.11,0.15 0.22,0.29 0.34,0.44 0.11,0.14 0.34,0.42 0.52,0.62l0.38 0.42c0.19,0.2 0.39,0.39 0.58,0.58l0.4 0.37c0.23,0.2 0.46,0.39 0.7,0.58 0.12,0.09 0.24,0.19 0.36,0.28 0.36,0.27 0.73,0.52 1.11,0.75 0.08,0.05 0.16,0.08 0.23,0.12 0.32,0.19 0.65,0.37 0.98,0.53l0.44 0.19c0.28,0.13 0.56,0.25 0.84,0.35 0.17,0.07 0.34,0.13 0.52,0.18 0.29,0.1 0.57,0.19 0.86,0.27l0.52 0.13c0.32,0.07 0.63,0.14 0.95,0.19l0.06 0c-0.21,3.77 -0.4,7.54 -0.56,11.31 -2.55,-5.24 -7.87,-8.56 -13.7,-8.56 -2.61,0 -5.18,0.67 -7.46,1.95l2.7 7.38 -5.55 -5.32c-2.97,2.71 -4.75,6.51 -4.92,10.53 -0.02,0.24 -0.02,0.5 -0.02,0.74 0,1.17 0.13,2.33 0.4,3.46 1.61,6.89 7.76,11.78 14.84,11.78 5.44,0 10.47,-2.91 13.2,-7.62 0,0.39 0,0.77 -0.04,1.15 -0.1,3.97 -0.23,8.89 1.74,13.29 1.34,2.98 3.5,5.4 5.62,7.57 1.39,1.41 2.82,2.78 4.29,4.1 1.44,1.94 3.33,3.52 5.5,4.58 2.43,1.86 4.94,3.59 7.51,5.21l1.61 1c1.45,0.9 2.94,1.83 4.4,2.78 -0.26,0 -0.52,-0.05 -0.77,-0.06 -0.24,-0.01 -0.48,-0.02 -0.72,-0.02 -6.37,0 -12.08,3.97 -14.29,9.94l9.52 7.75 -10.48 -2.42c0.02,8.42 6.85,15.23 15.26,15.23 2.29,0 4.55,-0.51 6.6,-1.5 -0.23,0.29 -0.47,0.58 -0.7,0.88 -0.47,0.58 -0.94,1.16 -1.39,1.73 -6.2,7.86 -7.93,15.31 -4.86,21l3.74 -2.02c-2.99,-5.53 1.5,-12.61 4.45,-16.34 0.44,-0.57 0.9,-1.14 1.36,-1.71 3.96,-4.92 8.45,-10.5 8.33,-17.34 -0.25,-10.26 -10.26,-16.45 -18.31,-21.45z"/>
  </g>
  <path class="fil2" d="M472.94 133.24c-3.17,0 -6.69,0 -9.1,0.19 -1.07,0.06 -2.13,0.28 -3.15,0.65l-16.27 5.88c13.12,0.33 26.85,0.23 40.31,0.12l75.54 -0.58c7.7,-0.05 15.79,-0.13 22.22,-0.59 4.31,-0.31 7.51,-0.76 11.44,-1.11 14.3,-1.28 35.15,-1.03 53.77,-0.94 18.62,0.09 41.1,-0.42 47.65,-2.29l-39.96 0c-4.32,0 -8.83,0 -12.64,-0.21 -4.45,-0.26 -7.16,-0.75 -11.07,-1.09 -6.47,-0.55 -15.4,-0.62 -23.69,-0.66 -45.56,-0.2 -90.55,0.87 -135.05,0.63z"/>
  <path class="fil3" d="M135.04 546.43c0,0 33.65,-152.81 133.63,-112.5 99.99,40.31 235.54,19.23 249.96,10.57 14.42,-8.65 192.28,-82.68 245.15,-1.92 52.88,80.76 29.8,103.83 29.8,103.83l-658.54 0.02z"/>
  <path class="fil4" d="M143.32 544.68c0,0 32.81,-149.07 130.31,-109.69 97.5,39.37 229.69,18.75 243.75,10.31 14.07,-8.44 187.51,-80.63 239.07,-1.88 51.56,78.76 29.06,101.26 29.06,101.26l-642.19 0z"/>
  <path class="fil5" d="M215.51 554.05c0,0 38.43,-125.27 70.31,-84.74 31.88,40.53 142.5,22.11 163.13,20.27 20.62,-1.84 285,64.48 285,64.48l-518.44 -0.01z"/>
  <path class="fil6" d="M879.67 240.99c3.45,-8.76 5.22,-18.1 5.22,-27.52 0,-11.52 -2.65,-22.89 -7.74,-33.22 -6.94,-13.85 -18.11,-25.31 -24.19,-39.59 -3.52,-8.27 -5.22,-17.19 -8.06,-25.71 -9.02,-26.51 -28.68,-48.1 -54.22,-59.55 -12.44,-5.49 -26.25,-8.43 -39.75,-6.56 -21.82,3.03 -40.11,18 -54.68,34.51 -21.2,24 -37.8,56.03 -30.55,87.19 4.9,21.05 19.99,38.59 25.06,59.59 6.57,27.19 -4.53,55.82 -0.98,83.57 3.27,25.64 20.09,48.58 42.72,60.69 25.89,13.86 61.92,-0.69 87.73,-9.73 11.09,-3.89 22.81,-9.07 28.5,-19.37 7.5,-13.63 1.74,-30.58 3.56,-46.05 2.5,-21.42 19.34,-38.19 27.38,-58.25z"/>
  <path class="fil7" d="M279.18 136.82c-3.52,-8.27 -5.22,-17.18 -8.06,-25.7 -9.01,-26.51 -28.67,-48.1 -54.21,-59.55 -12.44,-5.49 -26.25,-8.44 -39.75,-6.56 -21.82,3.02 -40.11,18 -54.69,34.51 -21.19,24 -37.8,56.02 -30.54,87.18 4.89,21.05 19.99,38.59 25.06,59.59 6.56,27.19 -4.53,55.82 -0.99,83.57 3.28,25.64 20.1,48.58 42.73,60.7 25.89,13.85 61.92,-0.7 87.73,-9.73 11.09,-3.89 22.81,-9.08 28.5,-19.37 7.5,-13.63 1.73,-30.58 3.55,-46.05 2.52,-21.47 19.35,-38.24 27.4,-58.31 3.45,-8.76 5.22,-18.1 5.22,-27.52 0,-11.52 -2.65,-22.89 -7.75,-33.22 -6.94,-13.79 -18.11,-25.29 -24.2,-39.54z"/>
  <path class="fil4" d="M685.47 311.58c-3.47,-27.18 7.4,-55.17 0.94,-81.78 -4.97,-20.56 -19.69,-37.73 -24.53,-58.33 -7.1,-30.52 9.15,-61.87 29.9,-85.31 14.27,-16.15 32.18,-30.82 53.52,-33.75 13.18,-1.88 26.73,1.02 38.9,6.39 25,11.21 44.24,32.34 53.06,58.29 2.82,8.34 4.44,17.07 7.9,25.16 5.95,13.94 16.87,25.19 23.67,38.74 4.98,10.11 7.58,21.24 7.58,32.52 0,9.22 -1.74,18.36 -5.12,26.93 -7.86,19.63 -24.37,36.06 -26.81,57.07 -1.77,15.14 3.91,31.72 -3.47,45.07 -5.57,10.06 -17.04,15.15 -27.89,18.95 -25.26,8.85 -60.53,23.09 -85.87,9.53 -22.12,-11.93 -38.57,-34.38 -41.78,-59.48z"/>
  <path class="fil8 str0" d="M756.31 330.91c0,0 37.18,-15 41.87,-23.44 4.69,-8.44 11.25,-58.13 11.25,-58.13"/>
  <line class="fil8 str0" x1="755.99" y1="560.61" x2="755.99" y2= "237.17" />
  <path class="fil4" d="M123.9 307.83c-3.47,-27.18 7.4,-55.17 0.94,-81.79 -4.97,-20.55 -19.69,-37.72 -24.52,-58.32 -7.11,-30.52 9.15,-61.87 29.89,-85.31 14.27,-16.15 32.18,-30.82 53.53,-33.75 13.18,-1.88 26.72,1.02 38.89,6.39 25,11.21 44.25,32.34 53.07,58.29 2.81,8.34 4.43,17.07 7.89,25.16 5.95,13.94 16.87,25.19 23.67,38.75 4.99,10.1 7.58,21.23 7.58,32.51 0,9.22 -1.74,18.36 -5.12,26.93 -7.86,19.64 -24.37,36.06 -26.81,57.07 -1.77,15.14 3.91,31.72 -3.47,45.07 -5.57,10.06 -17.03,15.15 -27.89,18.95 -25.26,8.85 -60.52,23.09 -85.87,9.53 -22.12,-11.93 -38.57,-34.38 -41.78,-59.48z"/>
  <path class="fil9" d="M123.9 307.83c-3.47,-27.18 7.4,-55.17 0.94,-81.79 -4.97,-20.55 -19.69,-37.72 -24.52,-58.32 -7.11,-30.52 9.15,-61.87 29.89,-85.31 14.27,-16.15 32.18,-30.82 53.53,-33.75 13.18,-1.88 26.72,1.02 38.89,6.39 25,11.21 44.25,32.34 53.07,58.29 2.81,8.34 4.43,17.07 7.89,25.16 5.95,13.94 16.87,25.19 23.67,38.75 4.99,10.1 7.58,21.23 7.58,32.51 0,9.22 -1.74,18.36 -5.12,26.93 -7.86,19.64 -24.37,36.06 -26.81,57.07 -1.77,15.14 3.91,31.72 -3.47,45.07 -5.57,10.06 -17.03,15.15 -27.89,18.95 -25.26,8.85 -60.52,23.09 -85.87,9.53 -22.12,-11.93 -38.57,-34.38 -41.78,-59.48z"/>
  <path class="fil8 str0" d="M194.74 327.16c0,0 37.18,-15 41.87,-23.44 4.69,-8.44 11.25,-58.13 11.25,-58.13"/>
  <line class="fil8 str0" x1="194.42" y1="556.86" x2="194.42" y2= "233.42" />
  <path class="fil10" d="M253.15 591.04c11.54,0.76 23.74,4.76 34.24,-0.08 2.71,-1.25 5.16,-3.05 7.97,-4.05 6.46,-2.31 13.56,-0.07 20.07,2.09 50.79,16.81 103.34,29.08 156.44,36.47 10.95,1.53 22.38,2.81 32.81,-0.75 7.63,-2.6 14.24,-7.62 21.8,-10.43 12.35,-4.58 26,-2.88 39.16,-2.15 4.48,0.27 9.11,0.39 13.64,0.39 29.89,0 59.62,-5.39 87.61,-15.8l1.7 -0.62c5.88,-2.27 12.13,-3.44 18.44,-3.44 10.93,0 21.59,3.52 30.39,10 5.48,4.02 11.33,7.6 17.41,10.63 14.32,7.19 23.36,21.87 23.36,37.89 0,6.24 -1.38,12.41 -4.03,18.05l-0.22 0.49c-5.36,11.69 -9.84,24.78 -20.35,32.2 -9.91,7 -22.91,7.3 -35.04,7.32l-74.47 0.18c-7.72,0 -15.54,0 -23.04,-1.82 -6.74,-1.66 -13.01,-4.77 -19.23,-7.86l-33.33 -16.57c-13.41,-6.66 -28.12,-13.53 -42.8,-10.46 -15,3.13 -25.81,15.74 -38.88,23.69 -20.28,12.35 -47.24,12.83 -67.95,1.21 -9.92,-5.57 -18.54,-13.69 -29.36,-17.19 -17.87,-5.78 -36.85,2.23 -55.23,6.06 -35.77,7.45 -77.95,-2.76 -105.36,-27.44 -35.32,-31.81 6.17,-70.5 44.25,-68.01z"/>
  <path class="fil2" d="M326.43 91.83c-1.87,0 -3.98,0 -5.43,0.09 -0.63,0.04 -1.26,0.15 -1.87,0.33l-9.71 2.94c7.84,0.17 16.02,0.11 24.04,0.06l45.06 -0.29c4.59,0 9.42,-0.06 13.26,-0.3 2.57,-0.15 4.46,-0.38 6.82,-0.56 8.53,-0.64 20.96,-0.52 32.07,-0.49 11.11,0.03 24.52,-0.21 28.43,-1.15l-23.84 0c-2.57,0 -5.27,0 -7.5,-0.11 -2.65,-0.13 -4.27,-0.38 -6.56,-0.55 -3.86,-0.28 -9.18,-0.31 -14.13,-0.33 -27.26,-0.06 -54.1,0.47 -80.64,0.36z"/>
  <path class="fil2" d="M347.06 178.08c-1.88,0 -3.99,0 -5.43,0.1 -0.64,0.03 -1.27,0.14 -1.88,0.32l-9.71 2.94c7.85,0.17 16.02,0.11 24.05,0.06l45.06 -0.29c4.59,0 9.42,-0.06 13.25,-0.3 2.57,-0.15 4.46,-0.38 6.83,-0.56 8.53,-0.64 20.96,-0.51 32.07,-0.49 11.11,0.03 24.52,-0.21 28.43,-1.15l-23.85 0c-2.56,0 -5.26,0 -7.5,-0.11 -2.65,-0.13 -4.26,-0.38 -6.56,-0.55 -3.85,-0.28 -9.18,-0.31 -14.13,-0.32 -27.25,-0.07 -54.09,0.46 -80.63,0.35z"/>
  <g id="_684220944">
   <path class="fil8 str1" d="M693.52 544.29c2.82,-5.16 -0.37,-11.5 -4.01,-16.1 -3.64,-4.61 -8.08,-9.38 -7.99,-15.28 0.14,-8.43 9.1,-13.41 16.25,-17.89 5.3,-3.31 10.22,-7.27 14.59,-11.74 1.84,-1.71 3.36,-3.74 4.48,-5.99 1.48,-3.3 1.44,-7.05 1.35,-10.66 -0.31,-12.04 -0.9,-24.07 -1.79,-36.09"/>
   <path class="fil11" d="M730 429.89c-0.2,-4.48 -2.68,-8.55 -6.56,-10.78l-2.94 5.83 0.09 -7.06c-1.22,-0.36 -2.48,-0.54 -3.75,-0.54 -0.19,0 -0.39,0 -0.59,0.01 -6.99,0.35 -12.48,6.12 -12.48,13.11 0,7.25 5.88,13.13 13.13,13.13 7.25,0 13.12,-5.88 13.12,-13.13 0,-0.19 0,-0.38 -0.01,-0.57l-0.01 0z"/>
   <path class="fil11" d="M706.54 518.94c-2.25,4.37 -6.76,7.11 -11.67,7.11 -7.25,0 -13.12,-5.88 -13.12,-13.13 0,-7.24 5.87,-13.12 13.12,-13.12 5.49,0 10.39,3.41 12.3,8.55l-8.22 6.72 9.05 -2.09c-0.01,2.07 -0.51,4.12 -1.46,5.96l0 0z"/>
   <path class="fil11" d="M700.04 493.4c-0.3,0.02 -0.61,0.03 -0.91,0.03 -7.25,0 -13.13,-5.88 -13.13,-13.13 0,-6 4.07,-11.23 9.88,-12.72l-0.07 5.42 2.97 -5.89 0 0c0.22,-0.01 0.45,-0.02 0.67,-0.02 7.03,0 12.8,5.53 13.12,12.54 0,0.22 0.01,0.44 0.01,0.66 0,1.3 -0.19,2.59 -0.58,3.83 -1.62,5.31 -6.41,9.03 -11.96,9.28l0 0z"/>
   <path class="fil11" d="M731.98 472.14c-0.16,0 -0.32,0.01 -0.48,0.01 -7.25,0 -13.13,-5.88 -13.13,-13.13 0,-7.24 5.88,-13.12 13.13,-13.12 2.2,0 4.37,0.56 6.3,1.61l-2.32 6.38 4.78 -4.6c2.56,2.35 4.09,5.62 4.25,9.09 0.01,0.22 0.01,0.44 0.01,0.66 0,1 -0.11,2 -0.34,2.97 -1.34,5.73 -6.32,9.87 -12.2,10.13z"/>
   <path class="fil12" d="M728.23 433.39c-3.04,0.33 -5.99,1.28 -9.04,1.47 -3.04,0.18 -6.39,-0.54 -8.31,-2.91 -1.04,-1.27 -1.57,-2.89 -2.44,-4.28 -0.83,-1.3 -1.97,-2.38 -3.32,-3.13 -0.84,1.77 -1.28,3.71 -1.28,5.67 0,7.25 5.87,13.12 13.12,13.12 6.07,0 11.34,-4.16 12.76,-10.05 -0.49,0.02 -0.99,0.06 -1.49,0.11z"/>
   <path class="fil12" d="M731.98 472.14c-0.19,0.01 -0.39,0.01 -0.59,0.01 -7.27,0 -13.17,-5.89 -13.17,-13.17 0,-1.93 0.43,-3.84 1.25,-5.59 1.04,0.69 1.95,1.58 2.66,2.62 0.94,1.41 1.51,3.05 2.61,4.35 2.05,2.41 5.54,3.19 8.72,3.05 3.18,-0.14 6.25,-1.05 9.38,-1.34 0.44,0 0.93,-0.06 1.33,-0.07 -1.33,5.73 -6.31,9.87 -12.19,10.14l0 0z"/>
   <path class="fil12" d="M700.04 493.4c-0.21,0 -0.43,0.01 -0.64,0.01 -7.25,0 -13.13,-5.88 -13.13,-13.13 0,-1.86 0.4,-3.71 1.17,-5.41 1.09,0.71 2.05,1.62 2.81,2.67 1.02,1.45 1.66,3.11 2.81,4.45 2.23,2.46 5.96,3.33 9.32,3.26 3.37,-0.08 6.4,-0.87 9.63,-1.13 -1.62,5.31 -6.42,9.03 -11.97,9.27l0 0.01z"/>
   <path class="fil12" d="M706.54 518.94c-2.12,4.73 -6.81,7.77 -11.99,7.77 -7.26,0 -13.14,-5.88 -13.14,-13.14 0,-1.85 0.39,-3.67 1.15,-5.36 1.08,0.71 2.05,1.58 2.87,2.58 1.26,1.51 2.09,3.25 3.53,4.68 2.69,2.65 7.03,3.75 10.9,3.84 0.08,0 0.19,0 0.27,0 2.13,0 4.29,-0.13 6.41,-0.37l0 0z"/>
   <path class="fil13" d="M673.68 538.34c0,0 10.38,-0.32 13.52,-2.55 3.13,-2.23 15.93,-4.89 16.75,-1.31 0.82,3.57 15.6,17.81 3.88,17.87 -11.72,0.05 -27.24,-1.82 -30.37,-3.75 -3.12,-1.94 -3.78,-10.26 -3.78,-10.26z"/>
   <path class="fil9" d="M708.07 551.11c-11.73,0.09 -27.25,-1.88 -30.37,-3.75 -2.38,-1.45 -3.33,-6.65 -3.65,-9.05l-0.34 0c0,0 0.65,8.38 3.75,10.31 3.09,1.94 18.63,3.82 30.36,3.75 3.39,0 4.55,-1.22 4.49,-3.01 -0.49,1.05 -1.75,1.72 -4.24,1.75z"/>
  </g>
  <g id="_684190056">
   <path class="fil14" d="M10.77 251.23c15.78,43.36 49.17,80.84 101.95,99.01 109.69,37.75 357.06,18.28 541.69,-4.07 95.47,-11.56 179.42,-43.45 240.39,-88.37l-884.03 -6.57z"/>
   <path class="fil14" d="M978.93 47.13l-101.3 0c-4.82,0 -8.76,-2.53 -8.76,-5.62 0,-3.09 3.94,-5.63 8.76,-5.63l17.47 0c-4.81,0 -8.75,-2.53 -8.75,-5.62 0,-3.09 3.94,-5.63 8.75,-5.63l-12.5 0c-4.81,0 -8.76,-2.53 -8.76,-5.62 0,-3.09 3.95,-5.63 8.76,-5.63l52.87 0c-13.44,-3.84 -27.3,-6.31 -41.24,-7.3 -144.16,-11.9 -195.63,-4.03 -213.75,4.07 -23.55,10.46 -48.53,17.52 -74.07,20.88 -89,11.78 -255.35,25.98 -406.12,-4.52 -74.94,-15.18 -130.63,10.47 -164.01,53.33l960.23 0c-1.25,-12.46 -5,-23.96 -11.89,-34.03 -1.68,0.87 -3.55,1.33 -5.45,1.33 -0.08,0 -0.17,0 -0.25,-0.01l0.01 0z"/>
   <path class="fil14" d="M2.17 160.73c-1.42,9.36 -2.17,18.88 -2.17,28.35 0,15.96 2.07,31.89 6.11,47.29l889.38 20.92c24.62,-18.23 45.48,-38.59 61.79,-60.6l-955.11 -35.96zm351.77 53.97l-17.51 0c4.82,0 8.76,2.53 8.76,5.62 0,3.09 -3.94,5.63 -8.76,5.63l-101.33 0c-4.82,0 -8.76,-2.54 -8.76,-5.63 0,-3.09 3.94,-5.62 8.76,-5.62l17.51 0c-4.82,0 -8.76,-2.54 -8.76,-5.63 0,-3.09 3.94,-5.62 8.76,-5.62l-12.47 0c-4.82,0 -8.76,-2.54 -8.76,-5.63 0,-3.09 3.94,-5.62 8.76,-5.62l101.3 0c4.81,0 8.74,2.54 8.74,5.62 0,3.09 -3.93,5.63 -8.74,5.63l12.5 0c4.81,0 8.75,2.54 8.75,5.62 0,3.09 -3.94,5.63 -8.75,5.63z"/>
   <path class="fil14" d="M996.55 80.2l-970.99 15.19c-11.84,19.77 -19.73,41.71 -23.24,64.49l977.21 -0.01c6.24,-13.08 10.99,-26.94 14.06,-41.11 2.97,-13.44 4.13,-26.45 2.96,-38.56zm-797.08 49.76l-17.53 0c4.82,0 8.76,2.54 8.76,5.63 0,3.08 -3.94,5.62 -8.76,5.62l-101.25 0c-4.81,0 -8.75,-2.53 -8.75,-5.62 0,-3.09 3.94,-5.63 8.75,-5.63l17.51 0c-4.82,0 -8.76,-2.53 -8.76,-5.62 0,-3.1 3.94,-5.63 8.76,-5.63l-12.55 0c-4.82,0 -8.76,-2.53 -8.76,-5.62 0,-3.1 3.94,-5.63 8.76,-5.63l101.25 0c4.82,0 8.75,2.53 8.75,5.63 0,3.09 -3.93,5.62 -8.75,5.62l12.57 0c4.82,0 8.76,2.54 8.76,5.63 0,3.08 -3.96,5.62 -8.76,5.62z"/>
   <path class="fil12" d="M651.6 350.62c0,0 1.54,24.37 -1.2,29.13l1.2 -29.13z"/>
   <path class="fil12" d="M659.22 323.7c1.41,0.52 7.41,12.68 6.21,16.28 -1.2,3.61 -6.21,-16.28 -6.21,-16.28z"/>
   <path class="fil12" d="M644.01 311.06c0.66,0.3 3.44,7.32 2.89,9.38 -0.56,2.06 -2.89,-9.38 -2.89,-9.38z"/>
   <path class="fil12" d="M670 351.95c-0.7,7.07 -1.08,11.7 -0.64,17.35 0.15,1.88 0.24,3.78 0.24,5.66 0,2.52 -0.14,5.06 -0.43,7.54m0.83 -30.55l0 0 0 0z"/>
   <path class="fil12" d="M594.86 269.63c0.76,0.99 1.17,2.19 1.17,3.43 0,0.05 0,0.11 0,0.16 0,1.28 -0.12,2.56 0,3.84 0.12,1.27 0.73,2.92 2.06,3.11m-3.23 -10.54l0 0 0 0z"/>
   <path class="fil12" d="M617.86 227.49c1.7,1.71 3.22,3.6 4.51,5.63 0.37,0.66 0.8,1.29 1.28,1.87 0.76,0.74 1.59,1.42 2.47,2.02 1.94,1.58 3.32,3.75 3.94,6.18m-12.2 -15.7l0 0 0 0z"/>
   <path class="fil12" d="M682.95 191.1c-0.4,0.8 -0.94,1.52 -1.59,2.14 -0.56,0.54 -1.21,0.99 -1.72,1.58 -0.41,0.51 -0.78,1.05 -1.1,1.62 -1.37,2.06 -2.92,4.02 -4.61,5.82m9.02 -11.16l0 0 0 0z"/>
   <path class="fil12" d="M652.81 227.14c1.07,0.67 1.35,2.11 1.33,3.37 -0.06,0.44 -0.09,0.88 -0.09,1.32 0,0.82 0.11,1.64 0.32,2.43 0.22,0.54 0.56,1.01 0.79,1.54 0.25,0.75 0.39,1.54 0.39,2.33 0,0.2 -0.01,0.4 -0.03,0.59 0,1.16 -0.05,2.3 -0.1,3.45 -0.06,1.37 -0.19,2.87 -1.13,3.89m-1.48 -18.92l0 0 0 0z"/>
   <path class="fil8" d="M661.83 262.86c-1,0.51 -1.95,1.14 -2.81,1.87 -0.86,0.76 -1.43,1.79 -1.62,2.92 -0.07,0.47 0,0.93 -0.14,1.44 -0.18,0.65 -0.5,1.25 -0.94,1.75 -0.72,0.92 -1.51,1.8 -2.35,2.61"/>
   <path class="fil12" d="M653.7 295.37c0.71,-0.58 1.47,-1.11 2.25,-1.57 0.72,-0.43 1.51,-0.78 2.32,-1.01 1.26,-0.23 2.54,-0.37 3.82,-0.41 1.3,-0.04 2.54,-0.55 3.49,-1.44m-11.88 4.43l0 0 0 0z"/>
   <path class="fil12" d="M704.34 279.64c-0.16,-0.01 -0.32,-0.01 -0.47,-0.01 -1.36,0 -2.71,0.27 -3.97,0.79 -0.69,0.36 -1.29,0.87 -1.97,1.24 -0.85,0.49 -1.82,0.74 -2.81,0.75m9.22 -2.77l0 0 0 0z"/>
   <path class="fil12" d="M683.33 285.89c0.12,-0.07 0.26,-0.1 0.4,-0.1 0.27,0 0.53,0.13 0.69,0.35 0.27,0.31 0.42,0.72 0.69,1.02 0.56,0.45 1.26,0.7 1.98,0.7 0.1,0 0.19,0 0.29,-0.01m-4.05 -1.96l0 0 0 0z"/>
   <path class="fil12" d="M674.67 253.71l-1.47 0.76c-1.51,0.72 -2.95,1.61 -4.29,2.61m5.76 -3.37l0 0 0 0z"/>
   <path class="fil12" d="M658.02 267.95c-0.93,-0.24 -1.78,0.78 -1.95,1.76 -0.02,0.97 -0.11,1.96 -0.25,2.92 -0.29,0.83 -0.79,1.57 -1.43,2.16m3.63 -6.84l0 0 0 0z"/>
   <path class="fil12" d="M641.82 269.72c-0.87,2.6 0.94,5.44 0.44,8.13 -0.16,0.81 -0.55,1.58 -0.74,2.39 -0.07,0.41 -0.11,0.83 -0.11,1.25 0,1.8 0.67,3.53 1.88,4.86m-1.47 -16.63l0 0 0 0z"/>
   <path class="fil12" d="M180.72 336.83c-2.21,0.81 -11.7,20.05 -9.81,25.74 1.9,5.69 9.81,-25.74 9.81,-25.74z"/>
   <path class="fil12" d="M204.77 316.83c-1.03,0.47 -5.44,11.55 -4.56,14.82 0.88,3.27 4.56,-14.82 4.56,-14.82z"/>
   <path class="fil12" d="M282.46 251.33c-1.22,1.58 -1.88,3.51 -1.88,5.5 0,0.06 0,0.12 0,0.18 -0.06,2.02 0.2,4.05 0.07,6.07 -0.13,2.03 -1.15,4.62 -3.26,4.91m5.07 -16.66l0 0 0 0z"/>
   <path class="fil12" d="M246.11 184.71c-2.69,2.67 -5.09,5.66 -7.13,8.85 -0.59,1.01 -1.26,1.98 -2.02,2.88 -1.22,1.17 -2.53,2.24 -3.91,3.2 -3.06,2.5 -5.25,5.93 -6.22,9.76m19.28 -24.69l0 0 0 0z"/>
   <path class="fil12" d="M143.22 127.2c0.65,1.26 1.51,2.4 2.53,3.38 0.89,0.85 1.88,1.57 2.72,2.5 0.64,0.8 1.22,1.66 1.73,2.56 2.17,3.25 4.61,6.35 7.29,9.19m-14.27 -17.63l0 0 0 0z"/>
   <path class="fil12" d="M190.86 184.14c-1.69,1.06 -2.14,3.33 -2.11,5.34 0.04,2 0.39,4.08 -0.36,5.93 -0.34,0.85 -0.88,1.6 -1.24,2.43 -0.41,1.19 -0.62,2.44 -0.62,3.7 0,0.31 0.02,0.62 0.04,0.93 0,1.81 0.09,3.62 0.16,5.43 0.09,2.18 0.3,4.55 1.78,6.15m2.35 -29.91l0 0 0 0z"/>
   <path class="fil8" d="M176.6 240.62c1.58,0.83 3.07,1.86 4.42,3.05 1.36,1.19 2.26,2.82 2.57,4.6 0.09,0.76 0.05,1.54 0.21,2.28 0.29,1.02 0.81,1.97 1.51,2.76 1.14,1.47 2.4,2.86 3.75,4.13"/>
   <path class="fil12" d="M189.46 292.01c-1.12,-0.91 -2.32,-1.74 -3.56,-2.46 -1.15,-0.7 -2.38,-1.25 -3.67,-1.62 -1.99,-0.37 -4.02,-0.59 -6.05,-0.65 -2.05,-0.07 -4.01,-0.87 -5.51,-2.26m18.79 6.99l0 0 0 0z"/>
   <path class="fil12" d="M109.41 267.15c2.39,0.07 4.89,0.15 7.02,1.25 1.08,0.56 2.03,1.36 3.1,1.96 1.38,0.76 2.93,1.16 4.51,1.17m-14.63 -4.38l0 0 0 0z"/>
   <path class="fil12" d="M142.62 277.03c-0.19,-0.1 -0.41,-0.16 -0.63,-0.16 -0.43,0 -0.84,0.21 -1.09,0.56 -0.43,0.49 -0.66,1.13 -1.1,1.61 -0.87,0.93 -2.31,1.05 -3.59,1.09m6.41 -3.1l0 0 0 0z"/>
   <path class="fil12" d="M156.35 226.2l2.3 1.21c2.39,1.15 4.68,2.54 6.79,4.13m-9.09 -5.34l0 0 0 0z"/>
   <path class="fil12" d="M182.59 248.7c1.51,-0.36 2.82,1.26 3.09,2.81 0.27,1.56 -0.05,3.14 0.38,4.64 0.48,1.3 1.26,2.46 2.27,3.4m-5.74 -10.85l0 0 0 0z"/>
   <path class="fil12" d="M208.23 251.51c1.37,4.11 -1.55,8.6 -0.7,12.85 0.27,1.29 0.86,2.49 1.17,3.75 0.8,3.38 -0.58,6.98 -2.81,9.66m2.34 -26.26l0 0 0 0z"/>
  </g>
  <g id="_684196512">
   <path class="fil4" d="M788.63 561.63c0,0 -10.31,1.12 -5.02,-15.36l3.15 -0.41 1.55 -3.6c0,0 2.24,-5.12 3.75,-4.69 1.51,0.44 3.57,1.05 3.91,-0.93 0.5,-2.33 2.16,-4.23 4.4,-5.05 2.25,-0.72 13.62,-7.91 16.09,-13.83 2.48,-5.93 4.8,-7.5 4.8,-7.5 0,0 3.28,0.09 1.2,13.22 0,0 -0.71,4.5 -1.75,5.46 -1.04,0.96 -9.93,10.16 -9.93,10.16l-4.48 10.65 -1.68 5.28c0,0 4.16,4.08 -1.56,8.24 -5.73,4.16 -13.13,1.76 -13.13,1.76l-1.3 -3.4z"/>
   <path class="fil8 str2" d="M789.08 559.39l9.1 -16 8.44 -9.61c0,0 9.44,-10.96 10.65,-13.2 0,0 3.2,-6 3.27,-7.5"/>
   <path class="fil8 str2" d="M801.49 559.71c0,0 -9.37,-1.56 -12.19,-0.78"/>
   <path class="fil8 str2" d="M784.99 553.15c0,0 4.25,2.48 4.09,3.19"/>
   <path class="fil8 str2" d="M792.76 540.74c0,0 1.18,10.09 0.34,11.57"/>
   <path class="fil8 str2" d="M803.04 549.23c0,0 -10.45,3.98 -10.81,4.61"/>
   <path class="fil8 str2" d="M800.38 534.55c0,0 -0.72,7.01 -1.6,8.2"/>
   <path class="fil8 str2" d="M805.88 540.74c0,0 -7.15,1.66 -7.7,2.65"/>
   <path class="fil8 str2" d="M813 531.54l-7.03 2.96c0,0 1.44,-5.04 1.11,-5.52"/>
   <path class="fil8 str2" d="M819.57 524.38c0,0 -8.16,2.76 -7.96,3.48l0.93 -3.48"/>
   <polyline class="fil8 str2" points="820.53,518.19 817.25,520.58 816.85,518.39 "/>
   <g>
    <path class="fil15" d="M792.6 494.09c0,0 6.96,-38.17 9.48,-41.17l0.94 0.72c0,0 -9.72,35.76 -9.6,46.56 0,0 -6.8,54.65 -2.36,71.46 0,0 0.56,3.1 -1,3.45 -1.2,-8.83 -1.84,-17.8 -1.84,-26.73 0,-8.53 0.57,-17.12 1.68,-25.55l2.7 -28.74zm0 0l0 0 0 0z"/>
   </g>
   <path class="fil8 str2" d="M792.28 500.09c0,0 4.08,-5.62 8.05,-6"/>
   <path class="fil15" d="M802.48 491.57c0,0 -3.15,1.7 -3.01,2.68 0.14,0.99 3.75,1.22 3.75,1.22l-0.74 -3.9z"/>
   <path class="fil4" d="M804.35 488.99c0,0 5.33,-3.91 6.78,-0.93 1.44,2.97 -0.6,3.9 -0.6,3.9l-3.9 1.34c0,0 5.34,-0.3 4.14,5.46 0,0 -3.54,3.12 -5.62,-0.36 0,0 -0.36,2.57 -1.44,1.65 -1.08,-0.93 -3.3,-1.88 -1.5,-6.44l2.14 -4.62z"/>
   <path class="fil4" d="M804.71 492.23c0,0 0.84,-7.32 -1.88,-6.66 -2.72,0.67 -2.1,4.02 -2.1,4.02l1.43 3.36 2.55 -0.72z"/>
   <path class="fil15" d="M803.54 492.63c0.03,0.01 0.07,0.01 0.1,0.01 0.03,0 0.06,0 0.09,-0.01 0.09,-0.05 0.16,-0.12 0.2,-0.22 0.21,-0.4 0.4,-0.82 0.55,-1.25 0.15,-0.43 0.08,0 0.09,0.07l0.11 0.94c0,0.05 0.02,0.1 0.05,0.14 0.03,0.02 0.07,0.04 0.11,0.05 0.05,0.01 0.11,0.02 0.17,0.02 0.05,0 0.11,-0.01 0.17,-0.02 0.11,-0.03 0.18,-0.13 0.18,-0.24 0,0 0,-0.01 0,-0.01 0.08,-0.02 0.16,-0.03 0.25,-0.03 0.08,0 0.16,0.01 0.24,0.03 0.16,0.04 0.28,0.17 0.31,0.33 0,0.02 0,0.03 0,0.05 0,0.08 -0.04,0.16 -0.1,0.21l-0.12 0c-0.25,0.1 -0.38,0.46 -0.65,0.47 0,0 -0.11,0 -0.13,0 -0.01,0.02 -0.01,0.03 -0.01,0.05 0,0.01 0,0.03 0.01,0.04 0.09,0.36 0.32,0.67 0.64,0.86l0.57 0.44c0,0.27 0,0.6 -0.28,0.73 -0.05,0.04 -0.12,0.05 -0.18,0.05 -0.1,0 -0.2,-0.04 -0.27,-0.1 -0.12,-0.12 -0.17,-0.31 -0.33,-0.37 -0.15,-0.06 -0.36,0.08 -0.43,0.25 -0.01,0.1 -0.01,0.19 -0.01,0.28 0,0.09 0,0.19 0.01,0.28 -0.01,0.4 -0.18,0.79 -0.46,1.08 -0.05,0.04 -0.09,0.09 -0.13,0.15 0,0.03 0,0.07 0,0.11 0,0.04 0,0.07 0,0.11 0,0.16 -0.09,0.31 -0.24,0.38 -0.04,0.01 -0.09,0.02 -0.14,0.02 -0.11,0 -0.22,-0.05 -0.28,-0.15 -0.12,-0.19 0,-0.44 0.07,-0.66 0.13,-0.42 0,-0.88 0.12,-1.31 0.05,-0.23 0.16,-0.44 0.21,-0.65 0.02,-0.05 0.03,-0.1 0.03,-0.16 0,-0.05 -0.01,-0.1 -0.03,-0.15 -0.02,-0.07 -0.06,-0.13 -0.11,-0.19 -0.16,-0.19 -0.36,-0.36 -0.57,-0.49 -0.18,-0.08 -0.34,-0.21 -0.44,-0.38 -0.03,-0.08 -0.04,-0.16 -0.04,-0.24 0,-0.16 0.05,-0.33 0.16,-0.45 0.06,-0.13 0.32,-0.07 0.51,-0.07z"/>
   <path class="fil15" d="M785.82 499.16c0,0 2.24,2.82 1.73,3.65 -0.51,0.84 -3.98,-0.36 -3.98,-0.36l2.25 -3.29z"/>
   <path class="fil4" d="M785.08 496.11c0,0 -3.39,-5.68 -5.86,-3.54 -2.48,2.15 -0.94,3.83 -0.94,3.83l3.07 2.74c0,0 -4.8,-2.37 -5.94,3.4 0,0 2.03,4.26 5.27,1.88 0,0 -0.68,2.5 0.68,2.08 1.36,-0.43 3.75,-0.48 3.9,-5.34l-0.18 -5.05z"/>
   <path class="fil4" d="M783.48 498.92c0,0 2.09,-7.07 4.32,-5.4 2.23,1.67 0.36,4.52 0.36,4.52l-2.64 2.53 -2.04 -1.65z"/>
   <path class="fil15" d="M784.39 499.72c-0.06,-0.02 -0.11,-0.05 -0.16,-0.1 -0.06,-0.08 -0.09,-0.17 -0.09,-0.27 -0.02,-0.23 -0.03,-0.46 -0.03,-0.69 0,-0.23 0.01,-0.46 0.03,-0.69 0.01,-0.22 -0.09,0 -0.11,0l-0.46 0.79c-0.02,0.05 -0.05,0.09 -0.1,0.11 -0.02,0.01 -0.04,0.01 -0.06,0.01 -0.02,0 -0.04,0 -0.06,-0.01 -0.11,-0.01 -0.22,-0.06 -0.31,-0.13 -0.06,-0.05 -0.09,-0.12 -0.09,-0.2 0,-0.03 0.01,-0.07 0.02,-0.11 -0.13,-0.09 -0.28,-0.15 -0.45,-0.17 -0.02,-0.01 -0.04,-0.01 -0.06,-0.01 -0.14,0 -0.28,0.07 -0.36,0.19 -0.02,0.04 -0.04,0.09 -0.04,0.14 0,0.05 0.02,0.09 0.04,0.13l0.09 0.09c0.19,0.19 0.17,0.56 0.41,0.69 0,0 0.1,0 0.11,0.09 0.01,0.08 0,0.05 0,0.08 -0.23,0.3 -0.56,0.49 -0.94,0.54l-0.69 0.18c-0.07,0.12 -0.1,0.26 -0.1,0.4 0,0.14 0.03,0.27 0.1,0.39 0.08,0.09 0.19,0.14 0.31,0.14 0.05,0 0.09,0 0.13,-0.02 0.16,-0.05 0.28,-0.21 0.44,-0.21 0.16,0 0.31,0.21 0.3,0.4 -0.03,0.19 -0.1,0.37 -0.19,0.53 -0.07,0.19 -0.1,0.39 -0.1,0.59 0,0.19 0.03,0.39 0.1,0.58 0.04,0.06 0.06,0.13 0.06,0.19 -0.01,0.08 -0.03,0.15 -0.07,0.21 -0.03,0.05 -0.04,0.11 -0.04,0.16 0,0.1 0.04,0.2 0.11,0.28 0.06,0.05 0.14,0.08 0.22,0.08 0.07,0 0.15,-0.03 0.21,-0.08 0.19,-0.13 0.17,-0.4 0.2,-0.64 0,-0.43 0.34,-0.81 0.41,-1.24 0,-0.23 0,-0.46 0.06,-0.69 0,-0.1 0.04,-0.2 0.11,-0.28 0.06,-0.05 0.12,-0.1 0.19,-0.13 0.22,-0.12 0.46,-0.2 0.71,-0.23 0.2,-0.01 0.39,-0.06 0.55,-0.17 0.12,-0.14 0.19,-0.31 0.19,-0.49 0,-0.07 -0.01,-0.13 -0.03,-0.2 -0.07,-0.09 -0.37,-0.15 -0.56,-0.23z"/>
   <path class="fil8 str2" d="M790.14 527.86c0,0 1.98,-7.11 4.87,-10.08"/>
   <path class="fil4" d="M796.44 511.62c0,0 0.16,-6.32 3.75,-6.25 3.59,0.08 3.93,4.57 2.81,6.25 0,0 5.24,-0.57 5.45,3.75 0.2,4.31 -5.05,3.84 -5.05,3.84 0,0 -0.6,4.48 -4.84,5.12 -4.23,0.64 -3.41,-5.44 -3.41,-5.44 0,0 -4.83,-0.65 -5.23,-3.44 -0.4,-2.79 2.94,-3.86 2.94,-3.86l3.58 0.03z"/>
   <path class="fil15" d="M801.06 515.26c0.1,0.03 0.21,0.04 0.32,0.05 0.1,0.04 0.2,0.1 0.26,0.2 0.23,0.24 0.45,0.6 0.27,0.88 -0.18,0.28 -0.62,0.2 -0.93,0.05 -0.32,-0.15 -0.67,-0.32 -0.94,-0.15l0.07 1.16c0.01,0.03 0.02,0.07 0.02,0.11 0,0.04 -0.01,0.08 -0.02,0.11 -0.07,0.07 -0.16,0.1 -0.25,0.1 -0.01,0 -0.01,0 -0.02,0 -0.13,0.01 -0.26,0.02 -0.39,0.02 -0.13,0 -0.27,-0.01 -0.4,-0.02 0.01,-0.1 0.01,-0.2 0.01,-0.3 0,-0.31 -0.03,-0.61 -0.09,-0.91 -0.01,-0.09 -0.05,-0.17 -0.1,-0.24 -0.07,-0.05 -0.15,-0.07 -0.23,-0.07 -0.4,0 -1.38,0.26 -1.52,-0.35 -0.14,-0.61 0.59,-0.45 0.84,-0.73 0.49,-0.57 0.53,-1.42 1.27,-1.88 0.74,-0.46 0.57,-0.23 0.75,0.35 0.06,0.2 -0.17,0.4 0,0.63 0.17,0.22 0.52,0 0.7,0.15 0.19,0.15 0.14,0.73 0.38,0.84z"/>
   <path class="fil12" d="M802.61 512.05c-0.55,0 -1.06,0.24 -1.41,0.65 -0.35,0.41 -0.62,0.88 -0.82,1.37m2.23 -2.02l0 0 0 0z"/>
   <path class="fil12" d="M798.18 516.73c-0.54,0.01 -1.05,0.25 -1.4,0.66 -0.35,0.41 -0.63,0.87 -0.83,1.36m2.23 -2.02l0 0 0 0z"/>
   <path class="fil12" d="M797.72 513.83c-0.16,-0.52 -0.53,-0.94 -1.02,-1.16 -0.49,-0.21 -1.02,-0.35 -1.55,-0.41m2.57 1.57l0 0 0 0z"/>
   <path class="fil12" d="M802.63 519.37c-0.07,-0.53 -0.37,-1.01 -0.82,-1.3 -0.45,-0.29 -0.95,-0.51 -1.46,-0.65m2.28 1.95l0 0 0 0z"/>
   <path class="fil4" d="M788.71 480.1c0,0 -2.71,-5.71 0.55,-7.27 3.25,-1.56 5.56,2.31 5.35,4.29 0,0 4.42,-2.81 6.56,0.94 2.15,3.75 -2.76,5.71 -2.76,5.71 0,0 1.49,4.27 -2.01,6.75 -3.5,2.49 -5.5,-3.32 -5.5,-3.32 0,0 -4.6,1.61 -6.22,-0.71 -1.62,-2.32 0.94,-4.77 0.94,-4.77l3.09 -1.62z"/>
   <path class="fil15" d="M794.49 481.28c0.1,0 0.19,-0.1 0.3,-0.12 0.02,0 0.04,0 0.05,0 0.1,0 0.19,0.02 0.28,0.06 0.3,0.12 0.66,0.34 0.63,0.67 -0.03,0.32 -0.46,0.47 -0.79,0.47 -0.34,0.01 -0.74,0 -0.94,0.3l0.58 0.99c0.04,0.06 0.07,0.13 0.07,0.2 0,0.01 0,0.02 0,0.02 0,0.1 -0.11,0.16 -0.2,0.21 -0.23,0.13 -0.46,0.25 -0.71,0.36 -0.16,-0.38 -0.36,-0.74 -0.61,-1.06 -0.05,-0.08 -0.13,-0.13 -0.21,-0.16 -0.04,-0.01 -0.08,-0.02 -0.12,-0.02 -0.04,0 -0.08,0.01 -0.11,0.02 -0.36,0.16 -1.11,0.85 -1.51,0.37 -0.41,-0.48 0.32,-0.66 0.42,-1.03 0.19,-0.72 -0.17,-1.5 0.3,-2.24 0.47,-0.74 0.4,-0.47 0.81,0 0.15,0.15 0,0.44 0.29,0.56 0.28,0.13 0.46,-0.24 0.7,-0.17 0.24,0.06 0.53,0.58 0.77,0.57z"/>
   <path class="fil12" d="M794.43 477.74c-0.47,0.26 -0.81,0.7 -0.94,1.22 -0.08,0.38 -0.13,0.77 -0.13,1.16 0,0.14 0.01,0.28 0.02,0.43m1.05 -2.81l0 0 0 0z"/>
   <path class="fil12" d="M792.59 483.92c-0.47,0.25 -0.81,0.69 -0.93,1.21 -0.09,0.4 -0.14,0.81 -0.14,1.22 0,0.13 0.01,0.25 0.01,0.37m1.06 -2.8l0 0 0 0z"/>
   <path class="fil12" d="M790.86 481.49c-0.35,-0.36 -0.84,-0.57 -1.35,-0.57 -0.03,0 -0.06,0 -0.09,0 -0.54,0.03 -1.06,0.15 -1.56,0.34m3 0.23l0 0 0 0z"/>
   <path class="fil12" d="M797.74 484.23c-0.31,-0.45 -0.79,-0.74 -1.33,-0.8 -0.17,-0.01 -0.33,-0.02 -0.5,-0.02 -0.37,0 -0.73,0.04 -1.09,0.11m2.92 0.71l0 0 0 0z"/>
   <path class="fil8 str2" d="M787 502.25c0,0 5.73,5.44 4.51,8.44"/>
   <path class="fil15" d="M784.12 516.21c0,0 2.25,2.81 1.73,3.66 -0.51,0.84 -3.97,-0.37 -3.97,-0.37l2.24 -3.29z"/>
   <path class="fil4" d="M783.42 513.11c0,0 -3.39,-5.63 -5.86,-3.54 -2.48,2.09 -0.94,3.83 -0.94,3.83l3.07 2.74c0,0 -4.8,-2.37 -5.95,3.41 0,0 2.04,4.25 5.28,1.87 0,0 -0.68,2.51 0.68,2.08 1.36,-0.43 3.75,-0.47 3.9,-5.33l-0.18 -5.06z"/>
   <path class="fil4" d="M781.82 515.96c0,0 2.09,-7.07 4.32,-5.41 2.24,1.66 0.36,4.52 0.36,4.52l-2.64 2.53 -2.04 -1.64z"/>
   <path class="fil15" d="M782.73 516.73c-0.06,-0.02 -0.11,-0.05 -0.16,-0.09 -0.06,-0.08 -0.09,-0.18 -0.09,-0.28 -0.02,-0.23 -0.03,-0.46 -0.03,-0.69 0,-0.22 0.01,-0.45 0.03,-0.68 0.02,-0.23 -0.09,0 -0.11,0l-0.46 0.8c-0.02,0.04 -0.05,0.08 -0.1,0.1 -0.02,0.01 -0.04,0.01 -0.06,0.01 -0.02,0 -0.04,0 -0.06,-0.01 -0.11,-0.02 -0.22,-0.06 -0.31,-0.13 -0.06,-0.05 -0.09,-0.13 -0.09,-0.21 0,-0.03 0,-0.07 0.02,-0.1 -0.13,-0.1 -0.28,-0.17 -0.44,-0.19 -0.02,0 -0.04,0 -0.06,0 -0.15,0 -0.29,0.07 -0.37,0.2 -0.03,0.04 -0.04,0.08 -0.04,0.13 0,0.05 0.01,0.09 0.04,0.13 0.03,0.04 0.06,0.06 0.09,0.09 0.19,0.18 0.17,0.57 0.41,0.69 0,0 0.1,0 0.11,0.09 0.01,0.02 0.01,0.03 0.01,0.04 0,0.01 0,0.03 -0.01,0.04 -0.22,0.3 -0.56,0.5 -0.93,0.54l-0.71 0.19c-0.1,0.25 -0.2,0.56 0,0.78 0.07,0.09 0.18,0.15 0.3,0.15 0.05,0 0.1,-0.01 0.14,-0.03 0.15,-0.06 0.27,-0.22 0.44,-0.21 0.17,0.01 0.31,0.22 0.3,0.41 -0.03,0.18 -0.09,0.36 -0.18,0.52 -0.08,0.19 -0.11,0.39 -0.11,0.59 0,0.2 0.03,0.4 0.11,0.58 0.03,0.06 0.05,0.13 0.05,0.19 -0.02,0.07 -0.04,0.15 -0.07,0.22 -0.03,0.05 -0.04,0.1 -0.04,0.16 0,0.1 0.04,0.2 0.11,0.28 0.07,0.06 0.15,0.1 0.25,0.1 0.06,0 0.13,-0.02 0.18,-0.06 0.19,-0.13 0.17,-0.41 0.19,-0.63 0.06,-0.44 0.35,-0.82 0.41,-1.26 0.05,-0.22 0,-0.46 0.06,-0.68 0.01,-0.11 0.05,-0.21 0.12,-0.29 0.05,-0.05 0.12,-0.1 0.19,-0.13 0.22,-0.11 0.46,-0.19 0.71,-0.22 0.2,0 0.39,-0.06 0.55,-0.17 0.13,-0.14 0.19,-0.31 0.19,-0.49 0,-0.07 -0.01,-0.14 -0.03,-0.2 -0.11,-0.12 -0.37,-0.16 -0.55,-0.28z"/>
   <path class="fil8 str2" d="M785.34 519.3c0,0 5.73,5.43 4.5,8.44"/>
   <path class="fil15" d="M795.19 455.62c0,0 2.24,2.81 1.73,3.65 -0.52,0.85 -3.98,-0.36 -3.98,-0.36l2.25 -3.29z"/>
   <path class="fil4" d="M794.47 452.51c0,0 -3.39,-5.62 -5.87,-3.53 -2.47,2.09 -0.94,3.83 -0.94,3.83l3.08 2.74c0,0 -4.8,-2.37 -5.96,3.41 0,0 2.05,4.25 5.28,1.87 0,0 -0.67,2.51 0.69,2.08 1.35,-0.43 3.75,-0.47 3.9,-5.33l-0.18 -5.07z"/>
   <path class="fil4" d="M792.87 455.36c0,0 2.09,-7.06 4.32,-5.4 2.23,1.65 0.35,4.52 0.35,4.52l-2.64 2.53 -2.03 -1.65z"/>
   <path class="fil15" d="M793.78 456.18c-0.06,-0.02 -0.12,-0.05 -0.16,-0.09 -0.06,-0.09 -0.1,-0.18 -0.1,-0.28 -0.02,-0.23 -0.03,-0.46 -0.03,-0.69 0,-0.23 0.01,-0.46 0.03,-0.68 0.02,-0.23 -0.08,0 -0.1,0l-0.46 0.79c-0.03,0.05 -0.06,0.08 -0.1,0.11 -0.02,0 -0.04,0.01 -0.07,0.01 -0.02,0 -0.04,-0.01 -0.06,-0.01 -0.11,-0.02 -0.21,-0.07 -0.3,-0.13 -0.06,-0.05 -0.1,-0.13 -0.1,-0.2 0,-0.04 0.01,-0.08 0.03,-0.11 -0.13,-0.1 -0.29,-0.17 -0.45,-0.19 -0.02,0 -0.03,0 -0.05,0 -0.15,0 -0.29,0.07 -0.37,0.2 -0.03,0.03 -0.04,0.08 -0.04,0.13 0,0.04 0.01,0.09 0.04,0.13 0.02,0.04 0.05,0.05 0.08,0.08 0.2,0.19 0.17,0.57 0.41,0.7 0,0 0.11,0 0.12,0.09 0,0.01 0,0.02 0,0.04 0,0.01 0,0.02 0,0.03 -0.23,0.31 -0.57,0.5 -0.94,0.55l-0.7 0.19c-0.06,0.11 -0.1,0.25 -0.1,0.38 0,0.14 0.04,0.28 0.11,0.39 0.07,0.1 0.18,0.15 0.3,0.15 0.05,0 0.09,-0.01 0.14,-0.02 0.16,-0.06 0.27,-0.22 0.44,-0.21 0.17,0.01 0.31,0.22 0.3,0.4 -0.04,0.19 -0.1,0.36 -0.19,0.53 -0.07,0.18 -0.11,0.38 -0.11,0.58 0,0.2 0.04,0.4 0.11,0.59 0.03,0.06 0.05,0.12 0.06,0.19 -0.02,0.07 -0.05,0.14 -0.08,0.21 -0.02,0.05 -0.03,0.11 -0.03,0.17 0,0.1 0.03,0.2 0.11,0.27 0.06,0.07 0.15,0.11 0.24,0.11 0.07,0 0.13,-0.02 0.19,-0.06 0.18,-0.13 0.17,-0.41 0.18,-0.64 0.06,-0.44 0.35,-0.81 0.43,-1.25 0,-0.23 0,-0.46 0,-0.69 0.01,-0.1 0.05,-0.2 0.12,-0.28 0.05,-0.06 0.11,-0.1 0.19,-0.13 0.22,-0.11 0.46,-0.19 0.71,-0.23 0.19,0 0.39,-0.06 0.55,-0.16 0.12,-0.14 0.19,-0.31 0.19,-0.5 0,-0.06 -0.01,-0.13 -0.03,-0.2 -0.04,-0.15 -0.33,-0.19 -0.51,-0.27z"/>
   <path class="fil8 str2" d="M796.38 458.71c0,0 4.69,3.04 3.43,6.01"/>
   <path class="fil15" d="M798.36 439.86c0,0 2.24,2.81 1.73,3.64 -0.5,0.84 -3.98,-0.35 -3.98,-0.35l2.25 -3.29z"/>
   <path class="fil4" d="M797.66 436.71c0,0 -3.4,-5.68 -5.87,-3.54 -2.48,2.15 -0.94,3.83 -0.94,3.83l3.08 2.74c0,0 -4.8,-2.37 -5.95,3.41 0,0 2.03,4.25 5.27,1.87 0,0 -0.67,2.52 0.68,2.08 1.36,-0.43 3.75,-0.46 3.9,-5.33l-0.17 -5.06z"/>
   <path class="fil4" d="M796.05 439.55c0,0 2.09,-7.06 4.33,-5.4 2.23,1.66 0.35,4.52 0.35,4.52l-2.63 2.53 -2.05 -1.65z"/>
   <path class="fil15" d="M796.96 440.37c-0.05,-0.02 -0.11,-0.05 -0.16,-0.09 -0.05,-0.08 -0.09,-0.18 -0.09,-0.28 -0.02,-0.23 -0.03,-0.46 -0.03,-0.69 0,-0.22 0.01,-0.45 0.03,-0.68 0,-0.05 -0.08,0 -0.1,0l-0.46 0.8c-0.03,0.04 -0.06,0.08 -0.11,0.1 -0.01,0.01 -0.03,0.01 -0.05,0.01 -0.02,0 -0.04,0 -0.06,-0.01 -0.12,-0.02 -0.23,-0.07 -0.32,-0.14 -0.05,-0.05 -0.09,-0.12 -0.09,-0.2 0,-0.04 0.01,-0.08 0.03,-0.11 -0.14,-0.09 -0.29,-0.15 -0.45,-0.18 -0.02,0 -0.03,0 -0.05,0 -0.15,0 -0.29,0.07 -0.37,0.2 -0.03,0.04 -0.04,0.08 -0.04,0.13 0,0.05 0.01,0.09 0.03,0.13 0.03,0.04 0.06,0.06 0.09,0.09 0.2,0.18 0.17,0.57 0.42,0.69 0,0 0.1,0 0.1,0.09 0.01,0.02 0.01,0.03 0.01,0.04 0,0.01 0,0.03 -0.01,0.04 -0.22,0.3 -0.56,0.49 -0.93,0.54l-0.7 0.18c-0.07,0.12 -0.1,0.26 -0.1,0.39 0,0.14 0.03,0.28 0.1,0.4 0.08,0.09 0.19,0.14 0.31,0.14 0.04,0 0.09,0 0.13,-0.02 0.16,-0.06 0.29,-0.22 0.44,-0.22 0.18,0.04 0.31,0.19 0.31,0.37 0,0.02 0,0.03 -0.01,0.05 -0.03,0.18 -0.09,0.36 -0.17,0.52 -0.08,0.19 -0.12,0.38 -0.12,0.58 0,0.2 0.04,0.4 0.12,0.58 0.03,0.07 0.05,0.13 0.05,0.2 -0.01,0.07 -0.03,0.14 -0.07,0.21 -0.02,0.05 -0.03,0.1 -0.03,0.16 0,0.1 0.03,0.21 0.1,0.29 0.07,0.06 0.16,0.1 0.25,0.1 0.06,0 0.13,-0.02 0.18,-0.06 0.19,-0.13 0.17,-0.41 0.2,-0.63 0.05,-0.44 0.34,-0.82 0.41,-1.26 0,-0.23 0,-0.46 0.06,-0.68 0.01,-0.11 0.05,-0.21 0.11,-0.29 0.06,-0.05 0.12,-0.09 0.19,-0.13 0.22,-0.11 0.46,-0.19 0.71,-0.22 0.2,0 0.39,-0.06 0.56,-0.17 0.11,-0.14 0.18,-0.31 0.18,-0.5 0,-0.06 -0.01,-0.13 -0.03,-0.19 -0.13,-0.15 -0.38,-0.2 -0.57,-0.28z"/>
   <path class="fil8 str2" d="M799.57 442.9c0,0 4.69,3.04 3.43,6.01"/>
   <path class="fil15" d="M819.82 455.32c0,0 -2.24,2.81 -1.74,3.65 0.51,0.85 3.99,-0.36 3.99,-0.36l-2.25 -3.29z"/>
   <path class="fil4" d="M820.5 452.21c0,0 3.4,-5.62 5.87,-3.53 2.48,2.09 0.94,3.83 0.94,3.83l-3.08 2.74c0,0 4.8,-2.37 5.95,3.41 0,0 -2.04,4.25 -5.27,1.87 0,0 0.67,2.51 -0.68,2.08 -1.36,-0.43 -3.75,-0.47 -3.9,-5.33l0.17 -5.07z"/>
   <path class="fil4" d="M822.13 455.06c0,0 -2.1,-7.06 -4.33,-5.4 -2.23,1.66 -0.35,4.52 -0.35,4.52l2.64 2.53 2.04 -1.65z"/>
   <path class="fil15" d="M821.22 455.88c0.05,-0.02 0.11,-0.05 0.16,-0.09 0.05,-0.09 0.08,-0.18 0.09,-0.28 0.02,-0.23 0.03,-0.46 0.03,-0.69 0,-0.23 -0.01,-0.46 -0.03,-0.68 -0.02,-0.23 0.08,0 0.1,0l0.46 0.79c0,0 0.06,0.1 0.1,0.11 0.02,0 0.04,0.01 0.07,0.01 0.02,0 0.04,-0.01 0.06,-0.01 0.11,-0.02 0.21,-0.07 0.31,-0.13 0.05,-0.05 0.09,-0.13 0.09,-0.2 0,-0.04 -0.01,-0.08 -0.03,-0.11 0.13,-0.1 0.29,-0.17 0.45,-0.19 0.02,0 0.03,0 0.05,0 0.15,0 0.29,0.07 0.37,0.2 0.03,0.03 0.04,0.08 0.04,0.13 0,0.04 -0.01,0.09 -0.04,0.13 -0.02,0.04 -0.05,0.05 -0.08,0.08 -0.2,0.19 -0.17,0.57 -0.42,0.7 0,0 -0.1,0 -0.11,0.09 0,0.01 0,0.02 0,0.04 0,0.01 0,0.02 0,0.03 0.23,0.31 0.57,0.5 0.94,0.55l0.7 0.19c0.06,0.11 0.1,0.25 0.1,0.38 0,0.14 -0.04,0.28 -0.1,0.39 -0.08,0.1 -0.19,0.15 -0.31,0.15 -0.04,0 -0.09,-0.01 -0.14,-0.02 -0.15,-0.06 -0.28,-0.22 -0.44,-0.21 -0.16,0.01 -0.31,0.22 -0.3,0.4 0.04,0.19 0.1,0.36 0.19,0.53 0.07,0.18 0.11,0.38 0.11,0.58 0,0.2 -0.04,0.4 -0.11,0.59 -0.03,0.06 -0.05,0.12 -0.06,0.19 0.02,0.07 0.04,0.15 0.08,0.21 0.02,0.05 0.03,0.11 0.03,0.16 0,0.11 -0.04,0.21 -0.1,0.28 -0.07,0.05 -0.14,0.08 -0.22,0.08 -0.08,0 -0.16,-0.03 -0.22,-0.08 -0.18,-0.13 -0.16,-0.41 -0.19,-0.63 0,-0.44 -0.34,-0.82 -0.42,-1.26 0,-0.23 0,-0.46 -0.05,-0.68 -0.01,-0.11 -0.05,-0.21 -0.11,-0.29 -0.06,-0.05 -0.12,-0.1 -0.19,-0.13 -0.23,-0.11 -0.47,-0.19 -0.71,-0.22 -0.2,0 -0.39,-0.06 -0.56,-0.17 -0.12,-0.14 -0.18,-0.31 -0.18,-0.49 0,-0.07 0,-0.14 0.02,-0.2 0.13,-0.11 0.38,-0.15 0.57,-0.23z"/>
   <path class="fil8 str2" d="M818.63 458.41c0,0 -21.16,6.38 -19.93,9.38"/>
   <path class="fil4" d="M805.42 466.33c0,0 -0.19,-6.32 3.41,-6.44 3.6,-0.12 4.16,4.35 3.18,6.09 0,0 5.19,-0.85 5.62,3.46 0.44,4.3 -4.82,4.1 -4.82,4.1 0,0 -0.36,4.51 -4.56,5.38 -4.2,0.88 -3.75,-5.25 -3.75,-5.25 0,0 -4.86,-0.38 -5.41,-3.16 -0.55,-2.77 2.74,-4.01 2.74,-4.01l3.59 -0.17z"/>
   <path class="fil15" d="M810.19 469.73c0.05,0 0.11,0 0.16,0 0.05,0 0.11,0 0.16,0 0.11,0.03 0.2,0.1 0.27,0.18 0.24,0.24 0.49,0.58 0.32,0.87 -0.17,0.29 -0.6,0.24 -0.94,0.11 -0.33,-0.13 -0.68,-0.29 -0.93,-0.1l0.13 1.15c0.01,0.04 0.02,0.07 0.02,0.11 0,0.04 -0.01,0.08 -0.02,0.11 0,0.09 -0.16,0.11 -0.27,0.12 -0.13,0 -0.26,0.01 -0.39,0.01 -0.13,0 -0.26,-0.01 -0.39,-0.01 0,-0.04 0,-0.07 0,-0.11 0,-0.37 -0.05,-0.75 -0.15,-1.11 -0.01,-0.09 -0.06,-0.17 -0.12,-0.24 -0.06,-0.03 -0.13,-0.05 -0.2,-0.05 -0.01,0 -0.02,0 -0.03,0 -0.39,0 -1.35,0.34 -1.53,-0.26 -0.18,-0.6 0.56,-0.49 0.8,-0.78 0.46,-0.59 0.45,-1.45 1.17,-1.93 0.72,-0.49 0.56,-0.28 0.77,0.3 0.06,0.19 -0.15,0.42 0,0.62 0.15,0.21 0.51,0 0.71,0.12 0.2,0.11 0.24,0.78 0.46,0.89z"/>
   <path class="fil12" d="M811.6 466.47c-0.55,0.03 -1.05,0.29 -1.37,0.73 -0.32,0.43 -0.57,0.9 -0.75,1.4m2.12 -2.13l0 0 0 0z"/>
   <path class="fil12" d="M807.43 471.39c-0.55,0.03 -1.05,0.3 -1.37,0.73 -0.32,0.43 -0.57,0.9 -0.74,1.4m2.11 -2.13l0 0 0 0z"/>
   <path class="fil12" d="M806.82 468.47c-0.18,-0.51 -0.58,-0.92 -1.09,-1.11 -0.51,-0.18 -1.03,-0.29 -1.57,-0.31m2.66 1.42l0 0 0 0z"/>
   <path class="fil12" d="M812.07 473.74c-0.11,-0.54 -0.46,-1 -0.94,-1.26 -0.46,-0.26 -0.97,-0.45 -1.49,-0.56m2.43 1.82l0 0 0 0z"/>
   <path class="fil8 str3" d="M806.26 445.9c0,-0.22 1,-15.27 1,-15.27"/>
   <path class="fil15" d="M817.59 437.22c0,0 -1.18,3.39 -0.41,4.02 0.76,0.62 3.62,-1.67 3.62,-1.67l-3.21 -2.35z"/>
   <path class="fil4" d="M817.22 434.06c0,0 1.31,-6.48 4.35,-5.29 3.05,1.19 2.2,3.28 2.2,3.28l-1.99 3.61c0,0 3.75,-3.83 6.74,1.24 0,0 -0.5,4.68 -4.36,3.49 0,0 1.47,2.15 0.06,2.2 -1.42,0.04 -3.75,0.81 -5.46,-3.75l-1.54 -4.78z"/>
   <path class="fil4" d="M819.67 436.2c0,0 -4.32,-5.96 -5.87,-3.65 -1.55,2.32 1.17,4.38 1.17,4.38l3.33 1.51 1.37 -2.24z"/>
   <path class="fil15" d="M819.09 437.28c0.05,-0.04 0.09,-0.08 0.11,-0.14 0.02,-0.05 0.02,-0.1 0.02,-0.15 0,-0.05 0,-0.09 -0.02,-0.14 -0.11,-0.45 -0.25,-0.88 -0.43,-1.3 -0.18,-0.43 0.07,0 0.11,0l0.7 0.59c0.03,0.03 0.08,0.05 0.13,0.06 0.01,0.01 0.03,0.01 0.05,0.01 0.02,0 0.04,0 0.06,-0.01 0.1,-0.06 0.18,-0.14 0.24,-0.23 0.04,-0.05 0.06,-0.1 0.06,-0.16 0,-0.06 -0.02,-0.12 -0.06,-0.16 0.1,-0.14 0.22,-0.25 0.37,-0.32 0.07,-0.04 0.15,-0.06 0.23,-0.06 0.08,0 0.16,0.02 0.23,0.06 0.06,0.05 0.1,0.13 0.1,0.21 0,0.01 0,0.03 -0.01,0.05 -0.01,0.04 -0.03,0.07 -0.05,0.11 -0.13,0.24 0,0.59 -0.16,0.79 0,0 -0.09,0.07 -0.08,0.11 0.01,0.05 0,0.06 0,0.08 0.23,0.15 0.49,0.23 0.76,0.23 0.1,0 0.2,-0.01 0.29,-0.03l0.72 -0.06c0.19,0.21 0.39,0.47 0.3,0.72 -0.06,0.16 -0.21,0.27 -0.38,0.27 -0.16,0 -0.33,-0.11 -0.49,-0.05 -0.11,0.06 -0.18,0.18 -0.18,0.31 0,0.06 0.01,0.12 0.04,0.17 0.09,0.16 0.21,0.31 0.35,0.44 0.25,0.29 0.38,0.66 0.38,1.05 0,0.01 0,0.03 0,0.04 -0.01,0.04 -0.01,0.07 -0.01,0.1 0,0.03 0,0.07 0.01,0.1 0.04,0.07 0.08,0.13 0.14,0.18 0.07,0.08 0.11,0.18 0.11,0.28 0,0.05 -0.01,0.11 -0.03,0.16 -0.06,0.12 -0.18,0.2 -0.32,0.2 -0.03,0 -0.05,0 -0.08,0 -0.21,-0.07 -0.29,-0.34 -0.38,-0.55 -0.2,-0.39 -0.6,-0.65 -0.82,-1.04 -0.1,-0.2 -0.16,-0.43 -0.27,-0.63 -0.04,-0.09 -0.12,-0.17 -0.2,-0.22 -0.07,-0.04 -0.15,-0.06 -0.22,-0.07 -0.12,-0.02 -0.25,-0.03 -0.38,-0.03 -0.12,0 -0.25,0.01 -0.37,0.03 -0.1,0.03 -0.19,0.04 -0.29,0.04 -0.1,0 -0.2,-0.01 -0.29,-0.04 -0.22,-0.12 -0.37,-0.34 -0.39,-0.59 0.03,-0.15 0.25,-0.27 0.4,-0.41z"/>
   <path class="fil8 str2" d="M817.48 440.53c0,0 -17.82,13.07 -15.68,15.46"/>
   <path class="fil4" d="M804.19 447.97c0,0 -2.97,-5.63 0.2,-7.29 3.17,-1.66 5.62,2.05 5.55,4.03 0,0 4.27,-3.05 6.56,0.6 2.29,3.66 -2.49,5.83 -2.49,5.83 0,0 1.67,4.2 -1.7,6.84 -3.38,2.65 -5.63,-3.06 -5.63,-3.06 0,0 -4.52,1.82 -6.25,-0.42 -1.72,-2.24 0.67,-4.81 0.67,-4.81l3.09 -1.72z"/>
   <path class="fil15" d="M810 448.87c0.12,0 0.2,-0.1 0.3,-0.12 0.06,-0.02 0.11,-0.03 0.17,-0.03 0.05,0 0.11,0.01 0.16,0.03 0.31,0.1 0.69,0.3 0.67,0.62 -0.02,0.33 -0.43,0.49 -0.77,0.52 -0.34,0.03 -0.74,0 -0.94,0.34l0.62 0.93c0.05,0.06 0.08,0.14 0.08,0.22 0,0.1 -0.1,0.17 -0.18,0.23 -0.23,0.14 -0.45,0.26 -0.69,0.38 -0.18,-0.37 -0.41,-0.72 -0.67,-1.03 -0.06,-0.07 -0.13,-0.13 -0.21,-0.15 -0.01,0 -0.03,0 -0.04,0 -0.07,0 -0.14,0.02 -0.19,0.05 -0.36,0.17 -1.07,0.94 -1.49,0.45 -0.43,-0.5 0.29,-0.69 0.36,-1.05 0.16,-0.74 -0.23,-1.5 0.2,-2.26 0.43,-0.75 0.37,-0.49 0.81,-0.07 0.15,0.15 0.06,0.44 0.31,0.55 0.26,0.12 0.45,-0.26 0.69,-0.21 0.23,0.04 0.53,0.63 0.81,0.6z"/>
   <path class="fil12" d="M809.79 445.34c-0.48,0.26 -0.83,0.72 -0.94,1.26 -0.04,0.26 -0.06,0.53 -0.06,0.8 0,0.27 0.02,0.54 0.06,0.8m0.94 -2.86l0 0 0 0z"/>
   <path class="fil12" d="M808.24 451.61c-0.49,0.25 -0.83,0.71 -0.94,1.25 -0.04,0.26 -0.06,0.53 -0.06,0.8 0,0.26 0.02,0.53 0.06,0.8m0.94 -2.85l0 0 0 0z"/>
   <path class="fil12" d="M806.44 449.23c-0.34,-0.33 -0.79,-0.51 -1.27,-0.51 -0.06,0 -0.13,0 -0.19,0.01 -0.53,0.05 -1.06,0.19 -1.55,0.41m3.01 0.09l0 0 0 0z"/>
   <path class="fil12" d="M813.4 451.67c-0.33,-0.43 -0.83,-0.7 -1.37,-0.73 -0.09,0 -0.18,-0.01 -0.26,-0.01 -0.45,0 -0.89,0.06 -1.33,0.17m2.96 0.57l0 0 0 0z"/>
   <path class="fil15" d="M807.26 424.63c0,0 -3.12,5.44 0,6.96 0,0 4.24,-2.88 0,-6.96z"/>
   <path class="fil15" d="M815.28 423.41c0,0 -5.5,2.99 -3.66,5.93 0,0 5.13,-0.22 3.66,-5.93z"/>
   <path class="fil15" d="M817.44 426.73c0,0 -5.51,2.99 -3.67,5.92 0,0.04 5.13,-0.17 3.67,-5.92z"/>
   <line class="fil8 str3" x1="811.93" y1="428.63" x2="806.26" y2= "441.79" />
   <path class="fil8 str3" d="M814.68 431.59c0,0 -6.94,4.5 -6.94,6.85"/>
  </g>
  <g>
   <path class="fil4" d="M149.23 537.86c0,0 5.13,-0.83 8.21,2.81 0,0 -2.26,1.78 -7.12,-0.68l-1.09 -2.13z"/>
   <path class="fil4" d="M148.68 537.77c0,0 -3.27,4.05 -1.67,8.52 0,0 2.67,-1.07 2.96,-6.51l-1.29 -2.01z"/>
   <path class="fil4" d="M145.74 531.16c0,0 2.05,-3.75 10.26,1.5 0,0 -1.1,2.53 -4.69,2.33 -3.59,-0.2 -4.58,-1.85 -5.57,-3.83z"/>
   <path class="fil4" d="M145.21 530.91c0,0 -4.26,-0.49 -4.69,9.27 0,0 2.7,0.55 4.62,-2.53 1.91,-3.07 1.14,-4.86 0.07,-6.74z"/>
   <path class="fil4" d="M142.74 523.11c0,0 2.39,-6.63 11.07,-1.87 0,0 -1.98,6.08 -10.19,4.17l-0.88 -2.3z"/>
   <path class="fil4" d="M140.06 513.2c0,0 4.51,-6.7 12.52,-0.49 0,0 -2.81,6.3 -11.83,2.88l-0.69 -2.39z"/>
   <path class="fil4" d="M139.11 503.72c0,0 5.27,-6.16 13.2,0 0,0 -5,5.4 -13.2,1.58l0 -1.58z"/>
   <path class="fil4" d="M138.29 494.59c0,0 5.34,-6.42 12.93,-0.33 0,0 -6.02,5.67 -12.93,1.87l0 -1.54z"/>
   <path class="fil4" d="M138.76 486.45c0,0 5.63,-8.26 12.72,-2.66 0,0 -6.02,7.12 -12.72,4.24l0 -1.58z"/>
   <path class="fil4" d="M140.06 476.95c0,0 5.96,-8.2 12.86,-1.88 0,0 -7.04,7.12 -12.86,3.43l0 -1.55z"/>
   <path class="fil4" d="M142.04 468.45c0,0 7.04,-7.7 13.19,-4.63 0,0 -7.34,8.19 -13.49,6.69l0.3 -2.06z"/>
   <path class="fil4" d="M144.51 460.4c0,0 8.13,-9.43 12.86,-6.29 0,0 -5.99,7.32 -13.44,8.07l0.58 -1.78z"/>
   <path class="fil4" d="M148.06 451.06c0,0 7.12,-7.71 12.32,-5.8 0,0 -6.09,8.01 -13.28,8.21l0.96 -2.41z"/>
   <path class="fil4" d="M151.28 442.33c0,0 7.86,-7.39 11.25,-6.1 0,0 -5.69,8.22 -11.63,7.74l0.38 -1.64z"/>
   <path class="fil4" d="M154.43 434.25c0,0 6.76,-8.82 10.46,-8.13 0,0 -4.11,7.86 -10.46,9.03l0 -0.9z"/>
   <path class="fil4" d="M157.84 423.38c0,0 5.98,-6.77 9.21,-6.75 0,0 -4.68,9.03 -9.46,8.95l0.25 -2.2z"/>
   <path class="fil4" d="M159.85 416.13l5.78 -14.06c0,0 0.29,12.74 -6.52,16.71l0.74 -2.65z"/>
   <path class="fil4" d="M162.21 400.6c0,0 0.93,-11.77 0.33,-12.72 0,0 4.14,9.77 -0.37,17.91l0.04 -5.19z"/>
   <path class="fil4" d="M142.51 522.95c0,0 -6,-3.75 -9.87,5.38 0,0 5.32,3.54 10.57,-3.05l-0.7 -2.33z"/>
   <path class="fil4" d="M139.88 512.82c0,0 -7.35,-3.36 -10.93,6.14 0,0 5.69,3.89 11.59,-3.75l-0.66 -2.39z"/>
   <path class="fil4" d="M138.76 504.32c0,0 -5.26,-6.15 -13.19,0 0,0 4.99,5.4 13.19,1.58l0 -1.58z"/>
   <path class="fil4" d="M138.1 494.59c0,0 -5.33,-6.42 -12.91,-0.33 0,0 6.01,5.67 12.91,1.87l0 -1.54z"/>
   <path class="fil4" d="M138.76 486.69c0,0 -3.75,-9.26 -11.87,-5.28 0,0 4.39,8.22 11.54,6.82l0.33 -1.54z"/>
   <path class="fil4" d="M140.53 476.9c0,0 -3.75,-9.37 -11.97,-5.05 0,0 5.05,8.64 11.6,6.56l0.37 -1.51z"/>
   <path class="fil4" d="M142.84 468.5c0,0 -1.47,-10.31 -8.29,-11.25 0,0 1.44,10.9 7.38,13.13l0.91 -1.88z"/>
   <path class="fil4" d="M144.69 460.42c0,0 -0.58,-12.45 -6.23,-12.89 0,0 0.19,9.46 5.63,14.65l0.6 -1.76z"/>
   <path class="fil4" d="M148.65 450.71c0,0 -1.69,-10.36 -7.08,-11.63 0,0 0.67,10.03 6.57,14.16l0.51 -2.53z"/>
   <path class="fil4" d="M151.92 442.4c0,0 -0.05,-10.79 -3.35,-12.37 0,0 -2.05,9.76 2.4,13.75l0.95 -1.38z"/>
   <path class="fil4" d="M154.68 434.13c0,0 -0.47,-11.11 -3.88,-12.67 0,0 -1.16,8.79 3.36,13.4l0.52 -0.73z"/>
   <path class="fil4" d="M158.32 424.26c0,0 0,-9.03 -2.46,-11.15 0,0 -2.43,9.9 1.18,12.97l1.28 -1.82z"/>
   <path class="fil4" d="M159.57 415.68l-2.37 -15c0,0 -3.21,12.33 2.49,17.76l-0.12 -2.76z"/>
   <path class="fil4" d="M160.04 400.74c0,0 -6.09,-10.11 -5.96,-11.25 0,0 0.65,10.59 8.31,15.88l-2.35 -4.63z"/>
   <path class="fil4" d="M160.79 397.79c0,0 -5.75,-14.36 -8.34,-15.52 0,0 8.2,4.17 8.82,15.11l-0.48 0.41z"/>
   <path class="fil15" d="M157.56 425.67l-0.39 -0.13c4.85,-15.8 6.06,-25.9 3.41,-28.41l0.28 -0.29c2.81,2.66 1.67,12.63 -3.3,28.83z"/>
   <path class="fil15" d="M144.22 462.67l-0.58 -0.21c0.51,-1.45 1.06,-2.91 1.65,-4.36 5.06,-12.61 9.37,-24.38 12.13,-33.35l0.5 -0.26c-2.81,9.02 -7,21.21 -12.06,33.83 -0.58,1.44 -1.14,2.91 -1.64,4.35z"/>
   <path class="fil15" d="M156.44 549.66c-0.07,-0.08 -7.93,-8.93 -13.4,-24.04 -3.21,-8.82 -5.02,-18.14 -5.31,-27.53 -0.38,-11.75 2.1,-24.88 6.32,-36.79l0.45 0.53c-9.47,26.76 -5.71,49.69 -0.71,63.49 5.42,15 13.18,23.72 13.26,23.8l-0.61 0.54z"/>
   <path class="fil14" d="M171.99 582.53c0,-1.47 -7.06,-2.66 -15.77,-2.66 -8.71,0 -15.77,1.19 -15.77,2.66 0,1.47 7.06,2.66 15.77,2.66 8.71,0 15.77,-1.19 15.77,-2.66z"/>
   <path class="fil16" d="M145.62 570.15c0,0 8.99,-0.27 11.7,-2.21 2.71,-1.93 13.84,-4.23 14.52,-1.14 0.67,3.09 13.51,15.39 3.35,15.48 -10.15,0.08 -23.59,-1.59 -26.3,-3.24 -2.7,-1.65 -3.27,-8.89 -3.27,-8.89z"/>
   <path class="fil9" d="M175.38 581.2c-10.15,0.08 -23.6,-1.58 -26.3,-3.23 -2.06,-1.25 -2.89,-5.76 -3.16,-7.83l-0.3 0c0,0 0.57,7.25 3.27,8.89 2.7,1.64 16.15,3.32 26.3,3.24 2.94,0 3.95,-1.07 3.89,-2.62 -0.4,0.95 -1.53,1.53 -3.7,1.55z"/>
  </g>
  <g>
   <path class="fil14" d="M272.78 631.47c0,-1.46 -8.6,-2.64 -19.21,-2.64 -10.61,0 -19.21,1.18 -19.21,2.64 0,1.45 8.6,2.63 19.21,2.63 10.61,0 19.21,-1.18 19.21,-2.63z"/>
   <path class="fil14" d="M346.36 638.93c0,-1.46 -8.6,-2.64 -19.21,-2.64 -10.61,0 -19.21,1.18 -19.21,2.64 0,1.45 8.6,2.63 19.21,2.63 10.61,0 19.21,-1.18 19.21,-2.63z"/>
   <path class="fil14" d="M433.03 628.83c0,-1.45 -8.6,-2.63 -19.21,-2.63 -10.61,0 -19.21,1.18 -19.21,2.63 0,1.46 8.6,2.64 19.21,2.64 10.61,0 19.21,-1.18 19.21,-2.64z"/>
   <path class="fil14" d="M311.36 660.17c0,-1.03 -6.12,-1.87 -13.66,-1.87 -7.55,0 -13.66,0.84 -13.66,1.87 0,1.04 6.11,1.88 13.66,1.88 7.54,0 13.66,-0.84 13.66,-1.88z"/>
   <path class="fil14" d="M387.73 658.3c0,-1.04 -6.12,-1.88 -13.66,-1.88 -7.55,0 -13.66,0.84 -13.66,1.88 0,1.03 6.11,1.87 13.66,1.87 7.54,0 13.66,-0.84 13.66,-1.87z"/>
   <path class="fil4" d="M327.56 638.33c0,0 -26.94,-88.31 4.22,-123.69 23.3,-26.46 49.76,-23.29 61.61,-20.02 6.2,1.65 11.37,5.95 14.13,11.75 4.14,8.93 3.39,23.43 -25.85,40.36 -48.96,28.36 -52,67.22 -52,67.22l-2.11 24.38z"/>
   <path class="fil8 str4" d="M389.17 507.15c0,0 -79.42,24.84 -61.61,131.18"/>
   <path class="fil8 str4" d="M342.79 516.06c0,0 10.93,7.37 7.5,18.44"/>
   <path class="fil8 str4" d="M381.2 522.61c0,0 -6.68,-6.79 -14.81,-3.04"/>
   <path class="fil8 str4" d="M349.81 556.82c0,0 -11.73,-5.96 -14.77,1.5"/>
   <path class="fil8 str4" d="M320.77 569.23c0,0 8.81,-0.7 8.97,3.52"/>
   <path class="fil4" d="M326.46 639.04c0,0 31.56,-64.18 40.22,-62.81 4.11,0.67 6.02,4.69 6.87,8.79 0.34,1.68 0.51,3.41 0.51,5.12 0,3.62 -0.76,7.2 -2.22,10.5 -4.48,10.3 -16.5,29.8 -45.38,38.4z"/>
   <path class="fil8 str4" d="M366.45 588.44c0,0 -33.11,48.01 -39.51,50.13"/>
   <line class="fil8 str4" x1="369.5" y1="595.93" x2="361.78" y2= "595.93" />
   <line class="fil8 str4" x1="360.25" y1="613.51" x2="348.13" y2= "614.03" />
   <line class="fil8 str4" x1="352.87" y1="599.45" x2="354.19" y2= "605.76" />
   <line class="fil8 str4" x1="339.99" y1="618.66" x2="340.22" y2= "624.4" />
   <path class="fil4" d="M327.4 639.04c0,0 -31.55,-64.18 -40.22,-62.81 -4.12,0.67 -6.01,4.69 -6.87,8.79 -0.34,1.68 -0.52,3.41 -0.52,5.12 0,3.62 0.76,7.2 2.23,10.5 4.49,10.3 16.52,29.8 45.38,38.4z"/>
   <path class="fil8 str4" d="M287.42 588.44c0,0 33.12,48.02 39.52,50.13"/>
   <line class="fil8 str4" x1="284.38" y1="595.93" x2="292.11" y2= "595.93" />
   <line class="fil8 str4" x1="293.64" y1="613.51" x2="305.76" y2= "614.03" />
   <line class="fil8 str4" x1="301.02" y1="599.45" x2="299.69" y2= "605.76" />
   <line class="fil8 str4" x1="313.9" y1="618.66" x2="313.66" y2= "624.4" />
   <path class="fil4" d="M381.59 654.03c0.85,-0.7 1.48,-1.64 1.79,-2.71 0.05,-0.21 0.08,-0.43 0.08,-0.65 0,-0.91 -0.51,-1.75 -1.33,-2.16 -1.15,-0.44 -2.39,0.37 -3.32,1.17 -0.93,0.81 -2.01,1.73 -3.23,1.56 1.03,-0.94 1.62,-2.26 1.62,-3.65 0,-0.32 -0.03,-0.64 -0.1,-0.96 -0.05,-0.34 -0.2,-0.67 -0.43,-0.93 -0.64,-0.69 -1.79,-0.4 -2.56,0.15 -2.43,1.71 -3.12,5.02 -3.13,7.99 -0.06,-0.54 -0.09,-1.09 -0.09,-1.64 0,-0.55 0.03,-1.1 0.09,-1.65 0.01,-0.09 0.02,-0.2 0.02,-0.29 0,-1.02 -0.47,-1.98 -1.26,-2.62 -0.54,-0.3 -1.16,-0.45 -1.78,-0.45 -0.03,0 -0.06,0 -0.09,0 -0.18,-0.03 -0.37,-0.04 -0.55,-0.04 -0.92,0 -1.81,0.32 -2.52,0.91 -0.93,0.99 -0.68,2.66 0.13,3.75 0.9,1.02 1.97,1.88 3.16,2.54 0.91,0.54 1.69,1.29 2.27,2.17 0.07,0.12 0.13,0.25 0.17,0.38l6.86 0c1.52,-0.76 2.94,-1.73 4.2,-2.87l0 0z"/>
   <path class="fil4" d="M261.36 628.19c0.85,-0.71 1.48,-1.65 1.79,-2.71 0.05,-0.2 0.08,-0.41 0.08,-0.61 0,-0.92 -0.52,-1.75 -1.34,-2.16 -1.15,-0.44 -2.38,0.36 -3.32,1.16 -0.93,0.81 -1.99,1.74 -3.22,1.56 1.03,-0.93 1.61,-2.25 1.61,-3.63 0,-0.32 -0.03,-0.65 -0.09,-0.97 -0.05,-0.34 -0.2,-0.67 -0.42,-0.93 -0.64,-0.69 -1.8,-0.4 -2.56,0.14 -2.44,1.71 -3.13,5.02 -3.13,8 -0.06,-0.54 -0.09,-1.09 -0.09,-1.65 0,-0.55 0.03,-1.1 0.09,-1.65 0,-0.09 0.01,-0.18 0.01,-0.28 0,-1.02 -0.46,-1.99 -1.25,-2.63 -0.55,-0.29 -1.15,-0.44 -1.77,-0.44 -0.03,0 -0.07,0 -0.11,0 -0.18,-0.03 -0.37,-0.04 -0.56,-0.04 -0.91,0 -1.8,0.32 -2.5,0.91 -0.94,0.99 -0.69,2.66 0.12,3.75 0.9,1.02 1.97,1.88 3.17,2.54 0.91,0.54 1.68,1.28 2.27,2.16 0.06,0.12 0.11,0.25 0.16,0.38l6.78 0c1.55,-0.77 2.99,-1.75 4.28,-2.91l0 0.01z"/>
   <path class="fil4" d="M301.43 654.03c0.85,-0.7 1.48,-1.64 1.79,-2.71 0.06,-0.21 0.09,-0.43 0.09,-0.65 0,-0.92 -0.52,-1.76 -1.35,-2.16 -1.15,-0.44 -2.38,0.37 -3.32,1.17 -0.93,0.81 -1.99,1.73 -3.22,1.56 1.03,-0.93 1.61,-2.25 1.61,-3.64 0,-0.32 -0.03,-0.65 -0.09,-0.97 -0.05,-0.34 -0.2,-0.67 -0.42,-0.93 -0.64,-0.69 -1.8,-0.4 -2.56,0.15 -2.44,1.71 -3.13,5.02 -3.14,7.99 -0.05,-0.54 -0.08,-1.09 -0.08,-1.64 0,-0.55 0.03,-1.1 0.09,-1.65 0,-0.09 0.01,-0.19 0.01,-0.29 0,-1.01 -0.46,-1.98 -1.25,-2.62 -0.55,-0.3 -1.16,-0.45 -1.79,-0.45 -0.03,0 -0.06,0 -0.09,0 -0.18,-0.03 -0.36,-0.04 -0.55,-0.04 -0.91,0 -1.81,0.32 -2.51,0.91 -0.94,0.99 -0.69,2.66 0.12,3.75 0.9,1.02 1.97,1.88 3.17,2.54 0.9,0.54 1.68,1.29 2.27,2.17 0.06,0.12 0.12,0.25 0.16,0.38l6.87 0c1.51,-0.76 2.93,-1.73 4.19,-2.87l0 0z"/>
   <path class="fil4" d="M415.06 601.77c0,0 2.58,3.36 -1.19,8.43 -3.77,5.08 -6.86,9.38 -5.62,12.55 0,0 5.62,-9.44 10.31,-9.57 4.69,-0.14 1.58,-5.72 -3.5,-11.41z"/>
   <path class="fil12" d="M415.06 601.77c0.23,0.32 0.4,0.68 0.53,1.06 4.51,5.29 6.91,10.23 2.58,10.35 -4.04,0.12 -8.88,7.34 -10.04,9.15 0.03,0.15 0.08,0.29 0.14,0.43 0.05,0.13 5.62,-9.45 10.31,-9.58 4.69,-0.13 1.56,-5.72 -3.52,-11.41z"/>
   <path class="fil17" d="M419.84 606.07c0,1.18 -0.13,2.14 -0.29,2.14 -0.16,0 -0.3,-0.94 -0.3,-2.14 0,-1.2 0.17,-0.63 0.33,-0.63 0.16,0 0.26,-0.56 0.26,0.63z"/>
   <path class="fil17" d="M421.49 607.48c-1.04,0.57 -1.95,0.94 -2.03,0.76 -0.08,-0.17 0.7,-0.72 1.74,-1.28 1.04,-0.56 0.63,-0.16 0.72,0 0.08,0.16 0.61,-0.05 -0.43,0.52z"/>
   <path class="fil4" d="M401.46 601.77c0,0 -2.58,3.36 1.19,8.43 3.77,5.08 6.86,9.38 5.63,12.55 0,0 -5.63,-9.44 -10.32,-9.57 -4.68,-0.14 -1.57,-5.72 3.5,-11.41z"/>
   <path class="fil12" d="M401.46 601.77c-0.22,0.32 -0.4,0.68 -0.52,1.06 -4.51,5.29 -6.91,10.23 -2.58,10.35 4.03,0.12 8.88,7.34 10.04,9.15 0,0.14 -0.09,0.29 -0.14,0.43 -0.06,0.14 -5.63,-9.45 -10.32,-9.58 -4.68,-0.13 -1.55,-5.72 3.52,-11.41z"/>
   <path class="fil17" d="M396.69 606.07c0,1.18 0.13,2.14 0.29,2.14 0.16,0 0.3,-0.94 0.3,-2.14 0,-1.2 -0.17,-0.63 -0.33,-0.63 -0.16,0 -0.26,-0.56 -0.26,0.63z"/>
   <path class="fil17" d="M395.04 607.48c1.04,0.57 1.95,0.94 2.02,0.76 0.08,-0.17 -0.69,-0.72 -1.73,-1.28 -1.04,-0.56 -0.64,-0.16 -0.71,0 -0.08,0.16 -0.66,-0.05 0.42,0.52z"/>
   <path class="fil16" d="M397.5 622.33c0,0 7.2,-0.23 9.38,-1.78 2.17,-1.54 11.07,-3.38 11.61,-0.93 0.53,2.44 10.8,12.32 2.69,12.38 -8.12,0.07 -18.89,-1.27 -21.05,-2.59 -2.17,-1.32 -2.63,-7.08 -2.63,-7.08z"/>
   <path class="fil9" d="M421.31 631.17c-8.12,0.06 -18.87,-1.27 -21.04,-2.59 -1.65,-1 -2.31,-4.6 -2.52,-6.26l-0.25 0c0,0 0.46,5.8 2.62,7.11 2.16,1.31 12.92,2.66 21.05,2.59 2.34,0 3.15,-0.85 3.11,-2.09 -0.32,0.76 -1.26,1.23 -2.97,1.24z"/>
  </g>
  <g>
   <path class="fil18" d="M487.19 101.02c0,0 6.53,0.98 2.53,12.81 -3.99,11.82 -3.7,51.08 -3.7,51.08 0,0 -0.01,5.12 -13.93,-1.61 -13.93,-6.73 -42.7,-7.04 -42.7,-7.04 0,0 -0.55,-43.77 7.94,-55.84 8.49,-12.07 15.01,-8.54 28.77,-4.81 13.76,3.74 21.09,5.41 21.09,5.41z"/>
   <path class="fil19" d="M566.14 262.48c-16.01,-12.43 -26.71,-30.53 -29.85,-50.56 -0.54,-3.55 -1.96,-8.2 -5.55,-8.07 -1.09,0.11 -2.13,0.48 -3.06,1.06l-13.01 6.98c-0.93,0.37 -1.72,1.03 -2.27,1.87 -0.85,1.67 0.36,3.59 1.4,5.15 7,10.59 7.5,24.05 7.78,36.74 0.09,3.75 0.11,7.7 -1.7,10.98 -1.47,2.65 -4.03,4.6 -5.38,7.33 -1.26,2.56 -1.32,5.52 -1.36,8.38 -0.26,20.4 -0.52,40.83 0.55,61.21 0.16,3.08 0.4,6.3 2.04,8.91 1.53,2.41 4.05,3.96 6.49,5.44l19.73 11.92c3.75,2.28 7.65,4.59 11.99,5.32 4.34,0.74 9.3,-0.5 11.8,-4.13 1.21,-1.76 1.74,-3.91 2.9,-5.7 1.17,-1.79 3.39,-3.24 5.37,-2.45 1.4,0.57 2.17,2.04 2.81,3.4 1.26,2.59 2.57,5.26 4.62,7.29 2.05,2.04 5.03,3.4 7.85,2.81 2.44,-0.53 4.34,-2.38 6.09,-4.14 5.42,-5.43 10.9,-10.93 14.88,-17.5 0.55,-0.73 0.85,-1.62 0.85,-2.54 0,-0.04 0,-0.08 -0.01,-0.12 -0.25,-0.93 -0.76,-1.77 -1.45,-2.43 -2.49,-3.06 -3.48,-7.06 -4.22,-10.95 -7.41,-39 3.06,-79.53 -2.71,-118.82 -0.65,-4.5 -2.1,-8.63 -5.47,-11.68 -3.38,-3.04 -7.58,-4.98 -11.71,-6.88 -1.36,-0.62 -2.92,-1.25 -4.31,-0.69 -2.29,0.94 -2.3,4.1 -2.13,6.56 0.04,1.09 0.06,2.22 0.06,3.32 0,3.95 -0.28,7.89 -0.82,11.8l-2.01 18.55c-0.19,2.83 -0.73,5.65 -1.57,8.35 -1.78,5.05 -4.73,9.61 -8.62,13.29l0 0z"/>
   <path class="fil20" d="M538.92 171.42c-0.02,-0.13 -0.02,-0.27 -0.02,-0.41 0,-0.55 0.1,-1.09 0.31,-1.59 0.76,-1.35 2.74,-0.99 4.24,-0.6 6.04,1.52 12.4,0.14 18.6,0.5 6.21,0.35 13.21,3.45 14.46,9.55 4.51,-3.19 8.4,-7.2 11.46,-11.79 1.73,-2.57 3.23,-5.53 2.99,-8.62 -0.33,-4.46 -4.07,-7.8 -7.54,-10.63l-10.31 -8.44c-1.36,-1.25 -2.93,-2.25 -4.63,-2.94 -2.39,-0.82 -4.99,-0.44 -7.5,-0.44 -7.51,0 -15.54,-3.41 -22.23,0 -2.82,1.44 -4.9,3.9 -6.92,6.3l-9.23 10.92c-0.69,0.69 -1.2,1.56 -1.47,2.5 -0.26,1.33 0.42,2.64 0.66,3.99 0.44,2.43 -0.62,5.03 0.19,7.37 1.34,3.89 6.06,4.45 8.95,6.67 1.08,0.83 2.76,3.65 4.04,3.62 2.29,-0.03 3.88,-4.16 3.95,-5.96z"/>
   <path class="fil21" d="M540.43 197.51c-0.1,3.03 -1.87,5.73 -3.58,8.26 -2.28,3.35 -4.68,6.84 -8.28,8.71 11.44,6.04 24.23,9.22 37.18,9.22 7.32,0 14.64,-1.01 21.68,-3.01 3.16,-0.93 6.89,-2.88 6.7,-6.17 -3.75,-1.03 -7.63,-2.09 -10.82,-4.35 -3.81,-2.7 -6.32,-6.9 -7.94,-11.25 -1.62,-4.35 -2.45,-9 -3.58,-13.52 -0.08,-0.47 -0.28,-0.91 -0.59,-1.26 -0.43,-0.32 -0.96,-0.49 -1.5,-0.49 -0.09,0 -0.19,0.01 -0.28,0.02l-12.49 -0.23c-5.12,0 -10.69,-0.12 -15.46,2.06 -5.92,2.72 -0.87,6.96 -1.04,12.01z"/>
   <path class="fil12" d="M540.43 197.51c-0.1,3.03 -1.87,5.73 -3.58,8.26 -2.28,3.35 -4.68,6.84 -8.28,8.71 11.44,6.04 24.23,9.22 37.18,9.22 7.32,0 14.64,-1.01 21.68,-3.01 3.16,-0.93 6.89,-2.88 6.7,-6.17 -3.75,-1.03 -7.63,-2.09 -10.82,-4.35 -3.81,-2.7 -6.32,-6.9 -7.94,-11.25 -1.62,-4.35 -2.45,-9 -3.58,-13.52 -0.08,-0.47 -0.28,-0.91 -0.59,-1.26 -0.43,-0.32 -0.96,-0.49 -1.5,-0.49 -0.09,0 -0.19,0.01 -0.28,0.02l-12.49 -0.23c-5.12,0 -10.69,-0.12 -15.46,2.06 -5.92,2.72 -0.87,6.96 -1.04,12.01z"/>
   <path class="fil22" d="M529.57 625.24c-3.08,4.68 -7.1,8.65 -10.47,13.12 -3.38,4.47 -6.2,9.69 -6.24,15.28 -0.01,0.1 -0.02,0.2 -0.02,0.3 0,0.62 0.24,1.22 0.67,1.67 0.38,0.25 0.83,0.39 1.28,0.4l13.03 1.67c1.24,0.22 2.5,0.33 3.75,0.33 0.75,0 1.51,-0.04 2.26,-0.12 2.15,-0.42 4.22,-1.19 6.14,-2.24 1.47,-0.58 2.75,-1.55 3.7,-2.81 0.63,-1.03 0.8,-2.3 1.4,-3.35 1.8,-3.18 6.36,-3.04 9.98,-2.48 1.04,-9.67 -1.63,-19.31 -4.28,-28.66 -0.12,-0.58 -0.37,-1.12 -0.73,-1.58 -0.47,-0.46 -1.06,-0.78 -1.69,-0.94 -3.13,-1.02 -10.67,-5.02 -13.3,-3.15 -1.92,1.39 -3.93,10.07 -5.48,12.56z"/>
   <path class="fil22" d="M592.4 644.3c2.5,-1.18 5.18,-2.69 7.88,-2.07 3.8,0.86 5.5,5.36 8.73,7.5 1.99,1.34 4.45,1.74 6.82,2.05 6.74,0.86 13.56,1.31 20.37,1.31 0.54,0 1.12,0 1.67,0 2.35,0 5.31,-0.56 5.89,-2.81 0.57,-2.25 -1.6,-4.05 -3.52,-5.22 -4.16,-2.55 -8.54,-4.84 -13.03,-6.77 -2.19,-0.81 -4.29,-1.92 -6.2,-3.3 -3.21,-2.59 -4.78,-6.66 -6.21,-10.53 -1.16,-3.12 -2.22,-9.84 -4.58,-12.19 -2.59,-2.54 -6.06,-0.85 -9.31,-0.14 -5.04,1.1 -10.95,1.87 -14.19,6.4 -4.74,6.63 -8.39,32.28 5.68,25.77z"/>
   <path class="fil23" d="M517.86 345.13c-4.29,10.57 -6.68,21.89 -7,33.31 -0.22,8.55 0.7,17.06 1.63,25.55 1.48,13.75 2.97,27.5 4.46,41.25 0.46,5.7 1.39,11.41 2.69,16.98 1.63,6.23 4.26,12.19 6.14,18.32 5.84,19.1 4.18,39.71 0.32,59.31 -0.51,2.15 -0.79,4.36 -0.81,6.57 0.11,3.31 1.39,6.46 2.21,9.66 5.05,19.55 -6.56,41.25 1.02,60 0.19,0.67 0.61,1.26 1.19,1.65 0.34,0.12 0.7,0.19 1.06,0.19 0.45,0 0.9,-0.1 1.3,-0.3 2.16,-0.75 4.24,-1.73 6.18,-2.92 4.08,4.94 9.35,8.75 15.32,11.09 4.44,-1.1 5.28,-6.5 6.73,-10.84 1.11,-3.08 2.01,-6.25 2.7,-9.44 0.65,-3.92 0.98,-7.91 0.98,-11.89l3.85 -135.33 -0.28 41.3c-0.02,0.65 -0.04,1.31 -0.04,1.95 0,2.7 0.22,5.4 0.67,8.05 0.56,2.74 1.59,5.38 2.18,8.12 0.83,3.93 0.73,8 0.69,12.02 -0.01,1.13 -0.01,2.34 -0.01,3.46 0,22.69 2.2,45.37 6.51,67.62 1.5,7.67 3.3,15.42 7.13,22.21 0.28,0.63 0.78,1.13 1.42,1.37 0.82,0.18 1.57,-0.47 2.18,-1.04 4.37,-3.86 10,-5.99 15.83,-5.99 4.07,0 8.07,1.03 11.62,3.01 -0.83,-3.98 2.96,-8.6 0.25,-11.62 -0.78,-0.87 -1.94,-1.29 -2.81,-2.05 -1.73,-1.47 -2.14,-3.95 -2.38,-6.21 -0.54,-5 -0.8,-10.09 -0.8,-15.12 0,-5.04 0.26,-10.13 0.79,-15.13 1.32,-12.57 4.29,-25.25 2.1,-37.69 -1.6,-9.03 -5.89,-17.81 -5.04,-26.9 0.57,-6.09 3.4,-11.71 5.35,-17.51 8.51,-25.37 0,-53.64 6.16,-79.69 1.41,-5.98 3.55,-12.45 0.98,-18.03l3.91 -1.19 -8.12 -18.53c-1.72,-3.95 -3.52,-8.01 -6.56,-11.04 -5.1,-5.08 -12.72,-6.44 -19.84,-7.5l-57.88 -9.03c-5.12,-0.83 -12.04,-2.77 -13.98,2z"/>
   <circle class="fil21" cx="554.3" cy="172.6" r="24.78"/>
   <path class="fil4" d="M540.79 202.1c-0.89,-0.53 -1.9,-0.8 -2.93,-0.8 -0.36,0 -0.71,0.03 -1.06,0.1 -0.68,0.24 -1.31,0.58 -1.88,1.02l-11.72 8.21c-1.67,1.04 -3.18,2.36 -4.43,3.88 -2.01,2.73 -2.33,6.36 -2.06,9.74 0.58,7.61 3.65,14.79 5.32,22.23 1.67,7.45 1.67,15.94 -3.13,21.9 -0.82,0.85 -1.52,1.84 -2.04,2.9 -0.26,0.82 -0.39,1.67 -0.39,2.53 0,0.09 0,0.19 0,0.28 -0.05,1.22 -0.09,2.5 -0.09,3.73 0,2.32 0.11,4.67 0.32,6.96 0.52,4.59 1.87,9.04 2.61,13.59 1.28,7.74 0.93,15.68 1.93,23.43 -0.01,0.11 -0.02,0.21 -0.02,0.32 0,2.07 1.68,3.75 3.75,3.75 0,0 0.01,0 0.01,0 5.28,0.77 10.65,1.16 15.99,1.16 0.5,0 1.03,-0.01 1.51,-0.01 6.78,0 13.55,-0.37 20.32,-0.73l30.8 -1.62c0.14,0.02 0.27,0.02 0.4,0.02 1.67,0 3.03,-1.36 3.03,-3.03 0,-0.04 0,-0.09 0,-0.13 2.7,-12.96 5.42,-26.15 4.15,-39.31 -0.83,-8.5 -3.3,-16.74 -5.63,-24.96 -1.87,-6.65 -3.67,-13.64 -2.27,-20.42 0.94,-4.47 3.22,-8.6 3.81,-13.12 0.1,-0.73 0.16,-1.48 0.16,-2.22 0,-4.04 -1.58,-7.92 -4.4,-10.81 -3.45,-3.31 -8.48,-4.57 -11.92,-7.89 -0.94,-1.07 -1.98,-2.07 -3.08,-2.98 -0.68,-0.54 -1.53,-0.84 -2.4,-0.84 -0.56,0 -1.13,0.13 -1.64,0.37 -0.63,0.45 -1.16,1.04 -1.54,1.72 -3,4.55 -7.5,12.06 -13.83,10.88 -6.84,-1.23 -11.62,-6.94 -17.65,-9.85z"/>
   <path class="fil22" d="M602.7 369.61c-2.19,1.64 -3.82,4.56 -2.81,7.1 0.83,0.15 1.67,0.22 2.52,0.22 2.16,0 4.31,-0.49 6.26,-1.44 1.75,-0.85 3.93,-2.05 5.45,-0.81 0.49,0.47 0.88,1.05 1.12,1.68 1.64,3.48 3.64,6.8 5.94,9.87 1.67,-0.79 3.43,-1.65 4.43,-3.19 0.6,-1.05 0.99,-2.22 1.15,-3.42 0.58,-3 1.03,-6.08 1.3,-9.13 0.2,-2.22 0.24,-4.68 -1.28,-6.33 -6.52,-7.03 -18.67,1.41 -24.08,5.45z"/>
   <path class="fil20" d="M537.37 162.12c-0.01,-0.13 -0.02,-0.27 -0.02,-0.41 0,-0.54 0.1,-1.08 0.31,-1.58 0.76,-1.35 2.75,-0.94 4.25,-0.61 6.03,1.53 12.39,0.15 18.6,0.5 6.2,0.36 13.21,3.46 14.45,9.56 4.51,-3.2 8.41,-7.2 11.48,-11.79 1.72,-2.58 3.22,-5.53 2.99,-8.62 -0.34,-4.47 -4.08,-7.8 -7.55,-10.64l-10.31 -8.43c-1.36,-1.25 -2.93,-2.24 -4.63,-2.94 -2.38,-0.81 -4.99,-0.43 -7.5,-0.43 -7.5,0 -15.54,-3.41 -22.23,0 -2.81,1.45 -4.89,3.9 -6.93,6.3l-9.21 10.93c-0.7,0.69 -1.21,1.55 -1.49,2.49 -0.26,1.33 0.43,2.65 0.67,3.98 0.43,2.44 -0.62,5.05 0.19,7.39 1.34,3.89 6.06,4.44 8.95,6.67 1.08,0.83 2.76,3.64 4.04,3.61 2.28,-0.04 3.87,-4.18 3.94,-5.98z"/>
   <path class="fil22" d="M598.56 212.38c1.44,-0.34 2.93,-0.51 4.42,-0.51 3.85,0 7.62,1.16 10.8,3.33 7.09,4.85 10.01,13.72 12.47,21.95l5.52 18.46c2.42,8.09 4.86,16.26 5.42,24.69 0.52,7.66 -0.53,15.33 -1.58,22.93 -1.45,10.53 1.97,22.07 2.02,32.69 0,12.19 -3.52,25.69 -9.73,36.2 -0.52,-1.87 1.52,-3.94 -0.31,-4.58 -1.79,-0.62 -3.68,-0.81 -5.57,-0.94l-13.64 -0.87c1.4,-2.38 -0.24,-5.05 0.76,-7.62 6.33,-16.25 3.9,-34.42 1.37,-51.67 -0.19,-1.65 -0.51,-3.29 -0.94,-4.88 -1.06,-3.95 -1.6,-8.04 -1.6,-12.13 0,-2.26 0.17,-4.53 0.49,-6.76 0.25,-1.91 0.38,-3.85 0.38,-5.78 0,-0.95 -0.03,-1.89 -0.09,-2.83 -0.03,-1.21 -0.29,-2.41 -0.76,-3.52 -0.48,-0.92 -1.1,-1.77 -1.82,-2.51l-3.34 -3.75c-0.27,-11.35 -2.05,-22.78 -3.81,-33.99 -0.51,-3.6 -0.78,-7.25 -0.78,-10.9 0,-2.33 0.11,-4.68 0.32,-7l0 -0.01z"/>
   <path class="fil24" d="M582.15 309.62l-119.45 -214.96 13.93 3.74 113.36 206.92c0.36,0.66 0.55,1.4 0.55,2.15 0,1.67 -0.94,3.21 -2.42,3.98l0 0c-0.63,0.33 -1.34,0.49 -2.05,0.49 -1.63,0 -3.13,-0.89 -3.92,-2.32l0 0z"/>
   <path class="fil22" d="M534.8 256.57c3.02,-6.46 -0.08,-13.91 -2.14,-20.74 -1.63,-5.41 -2.62,-11.03 -2.91,-16.69 -0.05,-0.44 -0.08,-0.89 -0.08,-1.33 0,-1.34 0.23,-2.68 0.66,-3.94 0.62,-1.72 2.19,-2.92 4.01,-3.07 2.12,3.16 3.25,6.89 3.25,10.7 0,1 -0.08,2.02 -0.24,3.01 1.74,-0.45 3.52,-0.8 5.3,-1.04 0.44,-0.06 0.89,-0.09 1.33,-0.09 4.33,0 8.16,2.81 9.47,6.94 2.97,9.52 3.98,19.69 -0.16,28.59 -1.32,2.63 -2.86,5.17 -4.59,7.55l-9.04 13.2c-0.61,0.94 -1.37,1.88 -2.46,2.03 -1.09,0.16 -2.22,-0.82 -3.02,-1.73 -2.75,-3.1 -7.62,-7.62 -7.09,-11.9 0.54,-4.27 5.91,-7.69 7.71,-11.49z"/>
   <path class="fil22" d="M513.91 216.75c-9.18,-1.04 -19.69,1.45 -24.49,9.38 -2.41,4 -3.01,8.8 -3.43,13.45 -0.59,6.52 -0.93,13.05 -1.26,19.58l-1.77 34.35c-0.22,4.1 -0.43,8.22 -0.5,12.33 -0.04,0.6 -0.06,1.22 -0.06,1.84 0,2.6 0.36,5.18 1.08,7.68 1.13,3.33 3.38,6.14 5.62,8.88 2.24,2.74 5.05,5.56 8.34,4.76 1.35,-0.44 2.57,-1.2 3.57,-2.2l7.5 -6.49c5.1,-4.38 10.26,-8.82 14.14,-14.32 1.87,-2.64 3.41,-5.5 5.31,-8.12 5.56,-7.73 13.29,-15.75 16.22,-24.81 -2.81,-0.15 -6.05,1.09 -7.35,-1.41 -0.68,-1.32 -0.77,-2.89 -1.53,-4.16 -1.16,-1.93 -3.75,-2.98 -4.14,-5.19 -7.37,5.93 -13.54,12.82 -19.42,20.22l2.39 -9.29c0.17,-0.87 0.53,-1.7 1.06,-2.41 0.84,-0.73 1.79,-1.33 2.81,-1.77 2.92,-1.76 4.02,-5.41 4.61,-8.77 0.61,-3.47 0.92,-7.02 0.92,-10.55 0,-11.68 -3.34,-23.14 -9.62,-32.98l0 0z"/>
   <path class="fil25" d="M509.02 149.48c6.66,-0.51 12.43,-1.11 23.49,-1.68 11.07,-0.56 27.44,-1.09 38.4,-0.84 10.96,0.26 16.52,1.3 24.68,2.3 8.16,1 18.92,1.95 18.01,-0.17 -0.91,-2.13 -13.5,-7.34 -21.59,-10.31 -8.09,-2.98 -11.69,-3.72 -13.29,-5.89 -1.61,-2.17 -1.22,-5.77 -2.46,-9.78 -1.25,-4.01 -4.11,-8.44 -10.75,-11.13 -6.64,-2.69 -17.06,-3.65 -23.56,0.15 -6.5,3.8 -9.08,12.35 -11.64,17 -2.57,4.64 -5.1,5.38 -11.1,7.65 -6,2.28 -15.46,6.1 -21.37,8.7 -5.9,2.61 -8.24,4 -5.64,4.48 2.6,0.47 10.16,0.04 16.82,-0.48z"/>
  </g>
 </g>
</svg>
